NewsreaderText-ExtraBoldItalic.ufo
<glyph name="exclam" format="2">
	<unicode hex="0021"/>
	<advance width="561"/>
	<outline>
		<contour>
			<point x="729" y="1221" type="line" smooth="yes"/>
			<point x="760" y="1321"/>
			<point x="660" y="1370"/>
			<point x="556" y="1370" type="curve" smooth="yes"/>
			<point x="451" y="1370"/>
			<point x="342" y="1321"/>
			<point x="311" y="1221" type="curve" smooth="yes"/>
			<point x="307" y="1206" type="line" smooth="yes"/>
			<point x="283" y="1129"/>
			<point x="299" y="1000"/>
			<point x="266" y="502" type="curve"/>
			<point x="335" y="502" type="line"/>
			<point x="607" y="1000"/>
			<point x="701" y="1129"/>
			<point x="725" y="1206" type="curve" smooth="yes"/>
		</contour>
		<contour>
			<point x="228" y="349" type="curve" smooth="yes"/>
			<point x="109" y="349"/>
			<point x="15" y="258"/>
			<point x="15" y="133" type="curve" smooth="yes"/>
			<point x="15" y="44"/>
			<point x="69" y="-24"/>
			<point x="171" y="-24" type="curve" smooth="yes"/>
			<point x="290" y="-24"/>
			<point x="384" y="67"/>
			<point x="384" y="192" type="curve" smooth="yes"/>
			<point x="384" y="281"/>
			<point x="330" y="349"/>
		</contour>
	</outline>
</glyph>
<glyph name="ampersand" format="2">
	<unicode hex="0026"/>
	<advance width="1420"/>
	<outline>
		<contour>
			<point x="1020" y="232" type="line"/>
			<point x="1132" y="347"/>
			<point x="1238" y="506"/>
			<point x="1334" y="719" type="curve"/>
			<point x="1456" y="765" type="line"/>
			<point x="1471" y="813" type="line"/>
			<point x="1000" y="813" type="line"/>
			<point x="985" y="765" type="line"/>
			<point x="1100" y="719" type="line"/>
			<point x="1085" y="528"/>
			<point x="1039" y="392"/>
			<point x="984" y="322" type="curve"/>
			<point x="827" y="214" type="line"/>
			<point x="768" y="180"/>
			<point x="686" y="162"/>
			<point x="606" y="162" type="curve" smooth="yes"/>
			<point x="447" y="162"/>
			<point x="354" y="252"/>
			<point x="354" y="402" type="curve" smooth="yes"/>
			<point x="354" y="527"/>
			<point x="410" y="635"/>
			<point x="517" y="695" type="curve"/>
			<point x="765" y="801" type="line"/>
			<point x="1060" y="889"/>
			<point x="1146" y="1000"/>
			<point x="1146" y="1137" type="curve" smooth="yes"/>
			<point x="1146" y="1268"/>
			<point x="1034" y="1370"/>
			<point x="819" y="1370" type="curve" smooth="yes"/>
			<point x="505" y="1370"/>
			<point x="367" y="1216"/>
			<point x="367" y="1036" type="curve" smooth="yes"/>
			<point x="367" y="931"/>
			<point x="394" y="836"/>
			<point x="456" y="720" type="curve" smooth="yes"/>
			<point x="838" y="0" type="line"/>
			<point x="1303" y="0" type="line"/>
			<point x="1319" y="51" type="line"/>
			<point x="1163" y="104" type="line"/>
			<point x="757" y="865" type="line" smooth="yes"/>
			<point x="689" y="993"/>
			<point x="668" y="1056"/>
			<point x="668" y="1125" type="curve" smooth="yes"/>
			<point x="668" y="1199"/>
			<point x="711" y="1256"/>
			<point x="792" y="1256" type="curve" smooth="yes"/>
			<point x="850" y="1256"/>
			<point x="883" y="1223"/>
			<point x="883" y="1150" type="curve" smooth="yes"/>
			<point x="883" y="1052"/>
			<point x="832" y="934"/>
			<point x="726" y="848" type="curve"/>
			<point x="492" y="752" type="line"/>
			<point x="162" y="655"/>
			<point x="23" y="525"/>
			<point x="23" y="311" type="curve" smooth="yes"/>
			<point x="23" y="113"/>
			<point x="143" y="-30"/>
			<point x="431" y="-30" type="curve" smooth="yes"/>
			<point x="553" y="-30"/>
			<point x="688" y="8"/>
			<point x="862" y="127" type="curve"/>
		</contour>
	</outline>
</glyph>
<glyph name="quotesingle" format="2">
  <advance width="418"/>
  <unicode hex="0027"/>
  <outline>
    <contour>
      <point x="253.0" y="783.0" type="line"/>
      <point x="360.0" y="783.0" type="line"/>
      <point x="613.0" y="1282.0" type="line"/>
      <point x="631.0" y="1340.0" type="line"/>
      <point x="327.0" y="1340.0" type="line"/>
      <point x="309.0" y="1282.0" type="line"/>
    </contour>
  </outline>
</glyph>
<glyph name="parenleft" format="2">
	<unicode hex="0028"/>
	<advance width="574"/>
	<outline>
		<contour>
			<point x="822" y="1364" type="curve"/>
			<point x="762" y="1429" type="line"/>
			<point x="182" y="961"/>
			<point x="72" y="650"/>
			<point x="72" y="329" type="curve" smooth="yes"/>
			<point x="72" y="116"/>
			<point x="145" y="-87"/>
			<point x="249" y="-275" type="curve"/>
			<point x="330" y="-245" type="line"/>
			<point x="290" y="-92"/>
			<point x="274" y="35"/>
			<point x="274" y="153" type="curve" smooth="yes"/>
			<point x="274" y="513"/>
			<point x="371" y="917"/>
		</contour>
	</outline>
</glyph>
<glyph name="parenright" format="2">
	<unicode hex="0029"/>
	<advance width="574"/>
	<outline>
		<contour>
			<point x="-161" y="-210" type="curve"/>
			<point x="-101" y="-275" type="line"/>
			<point x="479" y="193"/>
			<point x="589" y="504"/>
			<point x="589" y="825" type="curve" smooth="yes"/>
			<point x="589" y="1038"/>
			<point x="516" y="1241"/>
			<point x="412" y="1429" type="curve"/>
			<point x="331" y="1399" type="line"/>
			<point x="371" y="1246"/>
			<point x="387" y="1119"/>
			<point x="387" y="1001" type="curve" smooth="yes"/>
			<point x="387" y="641"/>
			<point x="290" y="237"/>
		</contour>
	</outline>
</glyph>
<glyph name="asterisk" format="2">
	<unicode hex="002A"/>
	<advance width="845"/>
	<outline>
		<contour>
			<point x="765" y="721" type="line"/>
			<point x="696" y="960" type="line"/>
			<point x="941" y="1010" type="line"/>
			<point x="933" y="1091" type="line"/>
			<point x="685" y="1098" type="line"/>
			<point x="717" y="1346" type="line"/>
			<point x="639" y="1364" type="line"/>
			<point x="553" y="1131" type="line"/>
			<point x="327" y="1237" type="line"/>
			<point x="286" y="1168" type="line"/>
			<point x="480" y="1014" type="line"/>
			<point x="308" y="833" type="line"/>
			<point x="361" y="772" type="line"/>
			<point x="569" y="908" type="line"/>
			<point x="690" y="689" type="line"/>
		</contour>
	</outline>
</glyph>
<glyph name="plus" format="2">
	<unicode hex="002B"/>
	<advance width="1000"/>
	<outline>
		<contour>
			<point x="305" y="49" type="line"/>
			<point x="459" y="49" type="line"/>
			<point x="695" y="823" type="line"/>
			<point x="541" y="823" type="line"/>
		</contour>
		<contour>
			<point x="135" y="508" type="line"/>
			<point x="91" y="364" type="line"/>
			<point x="865" y="364" type="line"/>
			<point x="909" y="508" type="line"/>
		</contour>
	</outline>
</glyph>
<glyph name="comma" format="2">
	<unicode hex="002C"/>
	<advance width="508"/>
	<outline>
		<contour>
			<point x="-140" y="-309" type="curve"/>
			<point x="-88" y="-380" type="line"/>
			<point x="301" y="-105"/>
			<point x="369" y="35"/>
			<point x="369" y="180" type="curve" smooth="yes"/>
			<point x="369" y="287"/>
			<point x="310" y="349"/>
			<point x="206" y="349" type="curve" smooth="yes"/>
			<point x="100" y="349"/>
			<point x="2" y="262"/>
			<point x="2" y="160" type="curve" smooth="yes"/>
			<point x="2" y="108"/>
			<point x="98" y="73"/>
			<point x="98" y="-17" type="curve" smooth="yes"/>
			<point x="98" y="-84"/>
			<point x="46" y="-170"/>
		</contour>
	</outline>
</glyph>
<glyph name="hyphen" format="2">
  <advance width="687"/>
  <unicode hex="002D"/>
  <outline>
    <contour>
      <point x="134.0" y="545.0" type="line"/>
      <point x="74.0" y="348.0" type="line"/>
      <point x="559.0" y="348.0" type="line"/>
      <point x="619.0" y="545.0" type="line"/>
    </contour>
  </outline>
</glyph>
<glyph name="period" format="2">
	<unicode hex="002E"/>
	<advance width="499"/>
	<outline>
		<contour>
			<point x="213" y="349" type="curve" smooth="yes"/>
			<point x="94" y="349"/>
			<point x="0" y="258"/>
			<point x="0" y="133" type="curve" smooth="yes"/>
			<point x="0" y="44"/>
			<point x="54" y="-24"/>
			<point x="156" y="-24" type="curve" smooth="yes"/>
			<point x="275" y="-24"/>
			<point x="369" y="67"/>
			<point x="369" y="192" type="curve" smooth="yes"/>
			<point x="369" y="281"/>
			<point x="315" y="349"/>
		</contour>
	</outline>
</glyph>
<glyph name="slash" format="2">
	<unicode hex="002F"/>
	<advance width="798"/>
	<outline>
		<contour>
			<point x="-66" y="0" type="line"/>
			<point x="71" y="0" type="line"/>
			<point x="1008" y="1340" type="line"/>
			<point x="871" y="1340" type="line"/>
		</contour>
	</outline>
</glyph>
<glyph name="zero" format="2">
	<unicode hex="0030"/>
	<advance width="1300"/>
	<outline>
		<contour>
			<point x="430" y="270" type="curve" smooth="yes"/>
			<point x="430" y="577"/>
			<point x="676" y="1249"/>
			<point x="912" y="1249" type="curve" smooth="yes"/>
			<point x="981" y="1249"/>
			<point x="1013" y="1203"/>
			<point x="1013" y="1070" type="curve" smooth="yes"/>
			<point x="1013" y="763"/>
			<point x="767" y="91"/>
			<point x="531" y="91" type="curve" smooth="yes"/>
			<point x="462" y="91"/>
			<point x="430" y="137"/>
		</contour>
		<contour>
			<point x="913" y="1370" type="curve" smooth="yes"/>
			<point x="453" y="1370"/>
			<point x="124" y="868"/>
			<point x="124" y="422" type="curve" smooth="yes"/>
			<point x="124" y="134"/>
			<point x="272" y="-30"/>
			<point x="530" y="-30" type="curve" smooth="yes"/>
			<point x="990" y="-30"/>
			<point x="1319" y="472"/>
			<point x="1319" y="918" type="curve" smooth="yes"/>
			<point x="1319" y="1206"/>
			<point x="1171" y="1370"/>
		</contour>
	</outline>
</glyph>
<glyph name="one" format="2">
	<unicode hex="0031"/>
	<advance width="1300"/>
	<outline>
		<contour>
			<point x="446" y="103" type="line"/>
			<point x="151" y="43" type="line"/>
			<point x="136" y="2" type="line"/>
			<point x="1037" y="2" type="line"/>
			<point x="1054" y="43" type="line"/>
			<point x="806" y="101" type="line"/>
			<point x="1186" y="1340" type="line"/>
			<point x="981" y="1340" type="line"/>
			<point x="339" y="1046" type="line"/>
			<point x="370" y="967" type="line"/>
			<point x="831" y="1101" type="line"/>
			<point x="791" y="1229" type="line"/>
		</contour>
	</outline>
</glyph>
<glyph name="colon" format="2">
	<unicode hex="003A"/>
	<advance width="541"/>
	<outline>
		<contour>
			<point x="216" y="349" type="curve" smooth="yes"/>
			<point x="97" y="349"/>
			<point x="3" y="258"/>
			<point x="3" y="133" type="curve" smooth="yes"/>
			<point x="3" y="44"/>
			<point x="57" y="-24"/>
			<point x="159" y="-24" type="curve" smooth="yes"/>
			<point x="278" y="-24"/>
			<point x="372" y="67"/>
			<point x="372" y="192" type="curve" smooth="yes"/>
			<point x="372" y="281"/>
			<point x="318" y="349"/>
		</contour>
		<contour>
			<point x="383" y="896" type="curve" smooth="yes"/>
			<point x="264" y="896"/>
			<point x="170" y="805"/>
			<point x="170" y="680" type="curve" smooth="yes"/>
			<point x="170" y="591"/>
			<point x="224" y="523"/>
			<point x="326" y="523" type="curve" smooth="yes"/>
			<point x="445" y="523"/>
			<point x="539" y="614"/>
			<point x="539" y="739" type="curve" smooth="yes"/>
			<point x="539" y="828"/>
			<point x="485" y="896"/>
		</contour>
	</outline>
</glyph>
<glyph name="semicolon" format="2">
	<unicode hex="003B"/>
	<advance width="545"/>
	<outline>
		<contour>
			<point x="-139" y="-309" type="curve"/>
			<point x="-87" y="-380" type="line"/>
			<point x="302" y="-105"/>
			<point x="370" y="35"/>
			<point x="370" y="180" type="curve" smooth="yes"/>
			<point x="370" y="287"/>
			<point x="311" y="349"/>
			<point x="207" y="349" type="curve" smooth="yes"/>
			<point x="101" y="349"/>
			<point x="3" y="262"/>
			<point x="3" y="160" type="curve" smooth="yes"/>
			<point x="3" y="108"/>
			<point x="99" y="73"/>
			<point x="99" y="-17" type="curve" smooth="yes"/>
			<point x="99" y="-84"/>
			<point x="47" y="-170"/>
		</contour>
		<contour>
			<point x="382" y="896" type="curve" smooth="yes"/>
			<point x="263" y="896"/>
			<point x="169" y="805"/>
			<point x="169" y="680" type="curve" smooth="yes"/>
			<point x="169" y="591"/>
			<point x="223" y="523"/>
			<point x="325" y="523" type="curve" smooth="yes"/>
			<point x="444" y="523"/>
			<point x="538" y="614"/>
			<point x="538" y="739" type="curve" smooth="yes"/>
			<point x="538" y="828"/>
			<point x="484" y="896"/>
		</contour>
	</outline>
</glyph>
<glyph name="less" format="2">
	<unicode hex="003C"/>
	<advance width="1000"/>
	<outline>
		<contour>
			<point x="113" y="363" type="line"/>
			<point x="1029" y="720" type="line"/>
			<point x="1084" y="899" type="line"/>
			<point x="59" y="492" type="line"/>
			<point x="25" y="380" type="line"/>
			<point x="800" y="-27" type="line"/>
			<point x="845" y="118" type="line"/>
			<point x="147" y="475" type="line"/>
		</contour>
	</outline>
</glyph>
<glyph name="greater" format="2">
	<unicode hex="003E"/>
	<advance width="1000"/>
	<outline>
		<contour>
			<point x="887" y="509" type="line"/>
			<point x="-29" y="152" type="line"/>
			<point x="-84" y="-27" type="line"/>
			<point x="941" y="380" type="line"/>
			<point x="975" y="492" type="line"/>
			<point x="200" y="899" type="line"/>
			<point x="155" y="754" type="line"/>
			<point x="853" y="397" type="line"/>
		</contour>
	</outline>
</glyph>
<glyph name="question" format="2">
	<unicode hex="003F"/>
	<advance width="1002"/>
	<outline>
		<contour>
			<point x="399" y="349" type="curve" smooth="yes"/>
			<point x="280" y="349"/>
			<point x="186" y="258"/>
			<point x="186" y="133" type="curve" smooth="yes"/>
			<point x="186" y="44"/>
			<point x="240" y="-24"/>
			<point x="342" y="-24" type="curve" smooth="yes"/>
			<point x="461" y="-24"/>
			<point x="555" y="67"/>
			<point x="555" y="192" type="curve" smooth="yes"/>
			<point x="555" y="281"/>
			<point x="501" y="349"/>
		</contour>
		<contour>
			<point x="565" y="1370" type="curve" smooth="yes"/>
			<point x="373" y="1370"/>
			<point x="292" y="1296"/>
			<point x="292" y="1211" type="curve" smooth="yes"/>
			<point x="292" y="1144"/>
			<point x="347" y="1095"/>
			<point x="405" y="1095" type="curve" smooth="yes"/>
			<point x="540" y="1095"/>
			<point x="600" y="1228"/>
			<point x="722" y="1228" type="curve" smooth="yes"/>
			<point x="811" y="1228"/>
			<point x="888" y="1164"/>
			<point x="888" y="1081" type="curve" smooth="yes"/>
			<point x="888" y="950"/>
			<point x="801" y="877"/>
			<point x="513" y="892" type="curve"/>
			<point x="431" y="502" type="line"/>
			<point x="490" y="502" type="line"/>
			<point x="663" y="793" type="line"/>
			<point x="507" y="612" type="line"/>
			<point x="905" y="582"/>
			<point x="1048" y="713"/>
			<point x="1048" y="964" type="curve" smooth="yes"/>
			<point x="1048" y="1181"/>
			<point x="892" y="1370"/>
		</contour>
	</outline>
</glyph>
<glyph name="at" format="2">
	<unicode hex="0040"/>
	<advance width="1786"/>
	<outline>
		<contour>
			<point x="1381" y="284" type="curve" smooth="yes"/>
			<point x="1336" y="284"/>
			<point x="1312" y="297"/>
			<point x="1312" y="345" type="curve" smooth="yes"/>
			<point x="1312" y="367"/>
			<point x="1317" y="397"/>
			<point x="1328" y="438" type="curve" smooth="yes"/>
			<point x="1476" y="982" type="line"/>
			<point x="1223" y="982" type="line"/>
			<point x="1137" y="883" type="line"/>
			<point x="1027" y="600" type="line" smooth="yes"/>
			<point x="971" y="457"/>
			<point x="892" y="384"/>
			<point x="846" y="384" type="curve" smooth="yes"/>
			<point x="814" y="384"/>
			<point x="802" y="396"/>
			<point x="802" y="441" type="curve" smooth="yes"/>
			<point x="802" y="573"/>
			<point x="941" y="866"/>
			<point x="1052" y="866" type="curve" smooth="yes"/>
			<point x="1111" y="866"/>
			<point x="1124" y="833"/>
			<point x="1139" y="795" type="curve"/>
			<point x="1194" y="879" type="line"/>
			<point x="1126" y="974"/>
			<point x="1058" y="1005"/>
			<point x="963" y="1005" type="curve" smooth="yes"/>
			<point x="694" y="1005"/>
			<point x="470" y="654"/>
			<point x="470" y="392" type="curve" smooth="yes"/>
			<point x="470" y="277"/>
			<point x="525" y="181"/>
			<point x="675" y="181" type="curve" smooth="yes"/>
			<point x="804" y="181"/>
			<point x="912" y="242"/>
			<point x="1092" y="577" type="curve"/>
			<point x="1068" y="577" type="line"/>
			<point x="1028" y="439" type="line" smooth="yes"/>
			<point x="1020" y="411"/>
			<point x="1016" y="385"/>
			<point x="1016" y="360" type="curve" smooth="yes"/>
			<point x="1016" y="252"/>
			<point x="1092" y="172"/>
			<point x="1270" y="172" type="curve" smooth="yes"/>
			<point x="1643" y="172"/>
			<point x="1827" y="448"/>
			<point x="1827" y="790" type="curve" smooth="yes"/>
			<point x="1827" y="1119"/>
			<point x="1581" y="1370"/>
			<point x="1133" y="1370" type="curve" smooth="yes"/>
			<point x="548" y="1370"/>
			<point x="88" y="959"/>
			<point x="88" y="381" type="curve" smooth="yes"/>
			<point x="88" y="-35"/>
			<point x="345" y="-266"/>
			<point x="827" y="-266" type="curve" smooth="yes"/>
			<point x="1086" y="-266"/>
			<point x="1316" y="-196"/>
			<point x="1512" y="-78" type="curve"/>
			<point x="1467" y="10" type="line"/>
			<point x="1257" y="-104"/>
			<point x="1063" y="-142"/>
			<point x="874" y="-142" type="curve" smooth="yes"/>
			<point x="467" y="-142"/>
			<point x="268" y="56"/>
			<point x="268" y="401" type="curve" smooth="yes"/>
			<point x="268" y="878"/>
			<point x="605" y="1266"/>
			<point x="1114" y="1266" type="curve" smooth="yes"/>
			<point x="1495" y="1266"/>
			<point x="1666" y="1050"/>
			<point x="1666" y="764" type="curve" smooth="yes"/>
			<point x="1666" y="483"/>
			<point x="1532" y="284"/>
		</contour>
	</outline>
</glyph>
<glyph name="A" format="2">
	<unicode hex="0041"/>
	<advance width="1499"/>
	<outline>
		<contour>
			<point x="321" y="414" type="line"/>
			<point x="975" y="414" type="line"/>
			<point x="1016" y="538" type="line"/>
			<point x="362" y="538" type="line"/>
		</contour>
		<contour>
			<point x="1289" y="111" type="line"/>
			<point x="1144" y="1340" type="line"/>
			<point x="881" y="1340" type="line"/>
			<point x="23" y="102" type="line"/>
			<point x="-131" y="44" type="line"/>
			<point x="-145" y="0" type="line"/>
			<point x="292" y="0" type="line"/>
			<point x="306" y="44" type="line"/>
			<point x="172" y="102" type="line"/>
			<point x="885" y="1152" type="line"/>
			<point x="825" y="1144" type="line"/>
			<point x="931" y="107" type="line"/>
			<point x="766" y="44" type="line"/>
			<point x="751" y="0" type="line"/>
			<point x="1404" y="0" type="line"/>
			<point x="1418" y="44" type="line"/>
		</contour>
	</outline>
	<anchor name="UCtop" x="982" y="1340"/>
	<anchor name="bottom" x="573" y="0"/>
	<anchor name="right" x="1285" y="0"/>
</glyph>
<glyph name="B" format="2">
	<unicode hex="0042"/>
	<advance width="1383"/>
	<outline>
		<contour>
			<point x="621" y="1212" type="line"/>
			<point x="887" y="1212" type="line" smooth="yes"/>
			<point x="1001" y="1212"/>
			<point x="1054" y="1151"/>
			<point x="1054" y="1056" type="curve" smooth="yes"/>
			<point x="1054" y="893"/>
			<point x="950" y="775"/>
			<point x="809" y="775" type="curve" smooth="yes"/>
			<point x="498" y="775" type="line"/>
			<point x="452" y="647" type="line"/>
			<point x="746" y="647" type="line" smooth="yes"/>
			<point x="884" y="647"/>
			<point x="940" y="571"/>
			<point x="940" y="464" type="curve" smooth="yes"/>
			<point x="940" y="252"/>
			<point x="802" y="128"/>
			<point x="629" y="128" type="curve" smooth="yes"/>
			<point x="299" y="128" type="line"/>
			<point x="280" y="0" type="line"/>
			<point x="693" y="0" type="line" smooth="yes"/>
			<point x="1106" y="0"/>
			<point x="1314" y="181"/>
			<point x="1314" y="458" type="curve" smooth="yes"/>
			<point x="1314" y="609.8832116788"/>
			<point x="1207" y="717"/>
			<point x="976" y="730" type="curve"/>
			<point x="976" y="715" type="line"/>
			<point x="1242" y="737"/>
			<point x="1418" y="842"/>
			<point x="1418" y="1062" type="curve" smooth="yes"/>
			<point x="1418" y="1222"/>
			<point x="1305" y="1340"/>
			<point x="1028" y="1340" type="curve" smooth="yes"/>
			<point x="688" y="1340" type="line"/>
		</contour>
		<contour>
			<point x="440" y="1243" type="line"/>
			<point x="91" y="103" type="line"/>
			<point x="-57" y="44" type="line"/>
			<point x="-70" y="0" type="line"/>
			<point x="430" y="0" type="line"/>
			<point x="839" y="1340" type="line"/>
			<point x="336" y="1340" type="line"/>
			<point x="323" y="1296" type="line"/>
		</contour>
	</outline>
	<anchor name="UCtop" x="900" y="1340"/>
	<anchor name="bottom" x="599" y="0"/>
</glyph>
<glyph name="C" format="2">
	<unicode hex="0043"/>
	<advance width="1392"/>
	<outline>
		<contour>
			<point x="1048" y="142" type="line"/>
			<point x="978" y="121"/>
			<point x="920" y="113"/>
			<point x="875" y="113" type="curve" smooth="yes"/>
			<point x="658" y="113"/>
			<point x="502" y="261"/>
			<point x="502" y="525" type="curve" smooth="yes"/>
			<point x="502" y="949"/>
			<point x="764" y="1232"/>
			<point x="1094" y="1232" type="curve" smooth="yes"/>
			<point x="1193" y="1232"/>
			<point x="1258" y="1194"/>
			<point x="1326" y="1132" type="curve"/>
			<point x="1222" y="1276" type="line"/>
			<point x="1377" y="890" type="line"/>
			<point x="1444" y="890" type="line"/>
			<point x="1458" y="1418" type="line"/>
			<point x="1413" y="1418" type="line"/>
			<point x="1261" y="1302" type="line"/>
			<point x="1446" y="1314" type="line"/>
			<point x="1326" y="1359"/>
			<point x="1214" y="1370"/>
			<point x="1085" y="1370" type="curve" smooth="yes"/>
			<point x="534" y="1370"/>
			<point x="125" y="1018"/>
			<point x="125" y="511" type="curve" smooth="yes"/>
			<point x="125" y="184"/>
			<point x="362" y="-30"/>
			<point x="770" y="-30" type="curve" smooth="yes"/>
			<point x="910" y="-30"/>
			<point x="1070.4064431865" y="2.6016107966"/>
			<point x="1188" y="32" type="curve"/>
			<point x="1334" y="405" type="line"/>
			<point x="1260" y="405" type="line"/>
			<point x="966" y="81" type="line"/>
		</contour>
	</outline>
	<anchor name="UCtop" x="967" y="1340"/>
	<anchor name="bottom" x="728" y="0"/>
	<anchor name="right" x="1225" y="0"/>
</glyph>
<glyph name="D" format="2">
	<unicode hex="0044"/>
	<advance width="1517"/>
	<outline>
		<contour>
			<point x="575" y="128" type="curve" smooth="yes"/>
			<point x="309" y="128" type="line"/>
			<point x="229" y="0" type="line"/>
			<point x="559" y="0" type="line" smooth="yes"/>
			<point x="1158" y="0"/>
			<point x="1543" y="379"/>
			<point x="1543" y="854" type="curve" smooth="yes"/>
			<point x="1543" y="1130"/>
			<point x="1371" y="1340"/>
			<point x="932" y="1340" type="curve" smooth="yes"/>
			<point x="639" y="1340" type="line"/>
			<point x="634" y="1212" type="line"/>
			<point x="831" y="1212" type="line" smooth="yes"/>
			<point x="1056" y="1212"/>
			<point x="1176" y="1095.3311688312"/>
			<point x="1176" y="894" type="curve" smooth="yes"/>
			<point x="1176" y="456.2857142857"/>
			<point x="927" y="128"/>
		</contour>
		<contour>
			<point x="440" y="1243" type="line"/>
			<point x="91" y="103" type="line"/>
			<point x="-57" y="44" type="line"/>
			<point x="-70" y="0" type="line"/>
			<point x="430" y="0" type="line"/>
			<point x="839" y="1340" type="line"/>
			<point x="336" y="1340" type="line"/>
			<point x="323" y="1296" type="line"/>
		</contour>
	</outline>
	<anchor name="UCtop" x="943" y="1340"/>
	<anchor name="bottom" x="684" y="0"/>
</glyph>
<glyph name="E" format="2">
	<unicode hex="0045"/>
	<advance width="1319"/>
	<outline>
		<contour>
			<point x="440" y="1243" type="line"/>
			<point x="91" y="103" type="line"/>
			<point x="-57" y="44" type="line"/>
			<point x="-70" y="0" type="line"/>
			<point x="430" y="0" type="line"/>
			<point x="839" y="1340" type="line"/>
			<point x="336" y="1340" type="line"/>
			<point x="323" y="1296" type="line"/>
		</contour>
		<contour>
			<point x="1220" y="1262" type="line"/>
			<point x="1316" y="935" type="line"/>
			<point x="1381" y="935" type="line"/>
			<point x="1440" y="1416" type="line"/>
			<point x="1404" y="1416" type="line"/>
			<point x="1250" y="1340" type="line"/>
			<point x="658" y="1340" type="line"/>
			<point x="616" y="1212" type="line"/>
			<point x="1264" y="1212" type="line"/>
		</contour>
		<contour>
			<point x="997" y="-81" type="line"/>
			<point x="1038" y="-81" type="line"/>
			<point x="1290" y="430" type="line"/>
			<point x="1236" y="458" type="line"/>
			<point x="850" y="82" type="line"/>
			<point x="958" y="128" type="line"/>
			<point x="291" y="128" type="line"/>
			<point x="248" y="0" type="line"/>
			<point x="891" y="0" type="line"/>
		</contour>
		<contour>
			<point x="954" y="441" type="line"/>
			<point x="1034" y="703" type="line"/>
			<point x="1114" y="965" type="line"/>
			<point x="1009" y="965" type="line"/>
			<point x="927" y="767" type="line"/>
			<point x="482" y="767" type="line"/>
			<point x="444" y="639" type="line"/>
			<point x="889" y="639" type="line"/>
			<point x="849" y="441" type="line"/>
		</contour>
	</outline>
	<anchor name="UCtop" x="881" y="1340"/>
	<anchor name="right" x="1047" y="0"/>
	<anchor name="bottom" x="582" y="0"/>
</glyph>
<glyph name="F" format="2">
	<unicode hex="0046"/>
	<advance width="1213"/>
	<outline>
		<contour>
			<point x="1084" y="925" type="line"/>
			<point x="979" y="925" type="line"/>
			<point x="897" y="727" type="line"/>
			<point x="452" y="727" type="line"/>
			<point x="414" y="599" type="line"/>
			<point x="859" y="599" type="line"/>
			<point x="819" y="401" type="line"/>
			<point x="924" y="401" type="line"/>
			<point x="1004" y="663" type="line"/>
		</contour>
		<contour>
			<point x="1361" y="935" type="line"/>
			<point x="1420" y="1416" type="line"/>
			<point x="1384" y="1416" type="line"/>
			<point x="1230" y="1340" type="line"/>
			<point x="638" y="1340" type="line"/>
			<point x="596" y="1212" type="line"/>
			<point x="1244" y="1212" type="line"/>
			<point x="1200" y="1262" type="line"/>
			<point x="1296" y="935" type="line"/>
		</contour>
		<contour>
			<point x="459" y="97" type="line"/>
			<point x="840" y="1340" type="line"/>
			<point x="336" y="1340" type="line"/>
			<point x="323" y="1296" type="line"/>
			<point x="440" y="1243" type="line"/>
			<point x="91" y="103" type="line"/>
			<point x="-57" y="44" type="line"/>
			<point x="-70" y="0" type="line"/>
			<point x="563" y="0" type="line"/>
			<point x="576" y="44" type="line"/>
		</contour>
	</outline>
	<anchor name="UCtop" x="861" y="1340"/>
	<anchor name="bottom" x="245" y="0"/>
</glyph>
<glyph name="G" format="2">
	<unicode hex="0047"/>
	<advance width="1501"/>
	<outline>
		<contour>
			<point x="875" y="113" type="curve"/>
			<point x="658" y="113"/>
			<point x="502" y="261"/>
			<point x="502" y="525" type="curve" smooth="yes"/>
			<point x="502" y="949"/>
			<point x="771.5236486486" y="1232"/>
			<point x="1111" y="1232" type="curve" smooth="yes"/>
			<point x="1210" y="1232"/>
			<point x="1275" y="1194"/>
			<point x="1343" y="1132" type="curve"/>
			<point x="1239" y="1276" type="line"/>
			<point x="1394" y="890" type="line"/>
			<point x="1461" y="890" type="line"/>
			<point x="1475" y="1418" type="line"/>
			<point x="1430" y="1418" type="line"/>
			<point x="1278" y="1302" type="line"/>
			<point x="1463" y="1314" type="line"/>
			<point x="1343" y="1359"/>
			<point x="1231" y="1370"/>
			<point x="1102" y="1370" type="curve" smooth="yes"/>
			<point x="541.2427083333" y="1370"/>
			<point x="125" y="1018"/>
			<point x="125" y="511" type="curve" smooth="yes"/>
			<point x="125" y="184"/>
			<point x="362" y="-30"/>
			<point x="770" y="-30" type="curve" smooth="yes"/>
			<point x="994" y="-30"/>
			<point x="1169.8826867961" y="-6.705771068"/>
			<point x="1307" y="39" type="curve"/>
			<point x="1311" y="58" type="line"/>
			<point x="1287" y="145" type="line"/>
			<point x="1394" y="495" type="line"/>
			<point x="1522" y="554" type="line"/>
			<point x="1535" y="598" type="line"/>
			<point x="902" y="598" type="line"/>
			<point x="889" y="554" type="line"/>
			<point x="1026" y="501" type="line"/>
			<point x="893" y="68" type="line"/>
			<point x="986" y="121" type="line"/>
			<point x="950" y="115"/>
			<point x="912" y="113"/>
		</contour>
	</outline>
	<anchor name="UCtop" x="986" y="1340"/>
	<anchor name="bottom" x="757" y="0"/>
</glyph>
<glyph name="H" format="2">
	<unicode hex="0048"/>
	<advance width="1634"/>
	<outline>
		<contour>
			<point x="421" y="621" type="line"/>
			<point x="1326" y="621" type="line"/>
			<point x="1364" y="749" type="line"/>
			<point x="459" y="749" type="line"/>
		</contour>
		<contour>
			<point x="440" y="1243" type="line"/>
			<point x="91" y="103" type="line"/>
			<point x="-57" y="44" type="line"/>
			<point x="-70" y="0" type="line"/>
			<point x="563" y="0" type="line"/>
			<point x="576" y="44" type="line"/>
			<point x="459" y="97" type="line"/>
			<point x="808" y="1237" type="line"/>
			<point x="956" y="1296" type="line"/>
			<point x="969" y="1340" type="line"/>
			<point x="336" y="1340" type="line"/>
			<point x="323" y="1296" type="line"/>
		</contour>
		<contour>
			<point x="1319" y="1243" type="line"/>
			<point x="970" y="103" type="line"/>
			<point x="822" y="44" type="line"/>
			<point x="809" y="0" type="line"/>
			<point x="1442" y="0" type="line"/>
			<point x="1455" y="44" type="line"/>
			<point x="1338" y="97" type="line"/>
			<point x="1687" y="1237" type="line"/>
			<point x="1835" y="1296" type="line"/>
			<point x="1848" y="1340" type="line"/>
			<point x="1215" y="1340" type="line"/>
			<point x="1202" y="1296" type="line"/>
		</contour>
	</outline>
	<anchor name="UCtop" x="1075" y="1340"/>
	<anchor name="bottom" x="665" y="0"/>
</glyph>
<glyph name="I" format="2">
	<unicode hex="0049"/>
	<advance width="755"/>
	<outline>
		<contour>
			<point x="440" y="1243" type="line"/>
			<point x="91" y="103" type="line"/>
			<point x="-57" y="44" type="line"/>
			<point x="-70" y="0" type="line"/>
			<point x="563" y="0" type="line"/>
			<point x="576" y="44" type="line"/>
			<point x="459" y="97" type="line"/>
			<point x="808" y="1237" type="line"/>
			<point x="956" y="1296" type="line"/>
			<point x="969" y="1340" type="line"/>
			<point x="336" y="1340" type="line"/>
			<point x="323" y="1296" type="line"/>
		</contour>
	</outline>
	<anchor name="UCtop" x="654" y="1340"/>
	<anchor name="right" x="426" y="0"/>
	<anchor name="bottom" x="244" y="0"/>
</glyph>
<glyph name="J" format="2">
  <advance width="923"/>
  <unicode hex="004A"/>
  <anchor x="852.0" y="1340.0" name="UCtop"/>
  <anchor x="302.0" y="0" name="bottom"/>
  <outline>
    <contour>
      <point x="770.0" y="472.0" type="curve" smooth="yes"/>
      <point x="1005.0" y="1237.0" type="line"/>
      <point x="1153.0" y="1296.0" type="line"/>
      <point x="1166.0" y="1340.0" type="line"/>
      <point x="533.0" y="1340.0" type="line"/>
      <point x="520.0" y="1296.0" type="line"/>
      <point x="637.0" y="1243.0" type="line"/>
      <point x="332.0" y="250.0" type="line" smooth="yes"/>
      <point x="301.0" y="148.0"/>
      <point x="256.0" y="114.0"/>
      <point x="192.0" y="114.0" type="curve" smooth="yes"/>
      <point x="123.0" y="114.0"/>
      <point x="71.0" y="235.0"/>
      <point x="18.0" y="235.0" type="curve" smooth="yes"/>
      <point x="-47.0" y="235.0"/>
      <point x="-97.0" y="185.0"/>
      <point x="-97.0" y="110.0" type="curve" smooth="yes"/>
      <point x="-97.0" y="26.0"/>
      <point x="-33.0" y="-29.0"/>
      <point x="101.0" y="-29.0" type="curve" smooth="yes"/>
      <point x="410.0" y="-29.0"/>
      <point x="683.0" y="188.0"/>
    </contour>
  </outline>
</glyph>
<glyph name="K" format="2">
	<unicode hex="004B"/>
	<advance width="1528"/>
	<outline>
		<contour>
			<point x="1356" y="98" type="line"/>
			<point x="1018" y="857" type="line"/>
			<point x="938" y="732" type="line"/>
			<point x="1572" y="1246" type="line"/>
			<point x="1729" y="1296" type="line"/>
			<point x="1743" y="1340" type="line"/>
			<point x="1300" y="1340" type="line"/>
			<point x="1286" y="1296" type="line"/>
			<point x="1415" y="1246" type="line"/>
			<point x="805" y="758" type="line"/>
			<point x="533" y="758" type="line"/>
			<point x="491" y="632" type="line"/>
			<point x="716" y="632" type="line"/>
			<point x="934" y="92" type="line"/>
			<point x="800" y="44" type="line"/>
			<point x="786" y="0" type="line"/>
			<point x="1446" y="0" type="line"/>
			<point x="1460" y="44" type="line"/>
		</contour>
		<contour>
			<point x="440" y="1243" type="line"/>
			<point x="91" y="103" type="line"/>
			<point x="-57" y="44" type="line"/>
			<point x="-70" y="0" type="line"/>
			<point x="563" y="0" type="line"/>
			<point x="576" y="44" type="line"/>
			<point x="459" y="97" type="line"/>
			<point x="808" y="1237" type="line"/>
			<point x="956" y="1296" type="line"/>
			<point x="969" y="1340" type="line"/>
			<point x="336" y="1340" type="line"/>
			<point x="323" y="1296" type="line"/>
		</contour>
	</outline>
	<anchor name="UCtop" x="1043" y="1340"/>
	<anchor name="bottom" x="714" y="0"/>
</glyph>
<glyph name="L" format="2">
	<unicode hex="004C"/>
	<advance width="1255"/>
	<outline>
		<contour>
			<point x="807" y="1232" type="line"/>
			<point x="957" y="1294" type="line"/>
			<point x="972" y="1340" type="line"/>
			<point x="339" y="1340" type="line"/>
			<point x="325" y="1294" type="line"/>
			<point x="437" y="1232" type="line"/>
			<point x="93" y="108" type="line"/>
			<point x="-57" y="46" type="line"/>
			<point x="-71" y="0" type="line"/>
			<point x="431" y="0" type="line"/>
		</contour>
		<contour>
			<point x="800" y="82" type="line"/>
			<point x="908" y="128" type="line"/>
			<point x="241" y="128" type="line"/>
			<point x="198" y="0" type="line"/>
			<point x="841" y="0" type="line"/>
			<point x="942" y="-92" type="line"/>
			<point x="983" y="-92" type="line"/>
			<point x="1250" y="460" type="line"/>
			<point x="1196" y="488" type="line"/>
		</contour>
	</outline>
	<anchor name="UCtop" x="655" y="1340"/>
	<anchor name="right" x="1006" y="1340"/>
	<anchor name="bottom" x="526" y="0"/>
	<anchor name="mid" x="1105" y="702"/>
</glyph>
<glyph name="M" format="2">
	<unicode hex="004D"/>
	<advance width="2001"/>
	<outline>
		<contour>
			<point x="605" y="1223" type="line"/>
			<point x="552" y="1187" type="line"/>
			<point x="623" y="0" type="line"/>
			<point x="883" y="0" type="line"/>
			<point x="1739" y="1303" type="line"/>
			<point x="1750" y="1340" type="line"/>
			<point x="1625" y="1340" type="line"/>
			<point x="866" y="176" type="line"/>
			<point x="980" y="227" type="line"/>
			<point x="925" y="1340" type="line"/>
			<point x="363" y="1340" type="line"/>
			<point x="350" y="1296" type="line"/>
			<point x="480" y="1222" type="line"/>
			<point x="73" y="115" type="line"/>
			<point x="-98" y="46" type="line"/>
			<point x="-112" y="0" type="line"/>
			<point x="319" y="0" type="line"/>
			<point x="333" y="46" type="line"/>
			<point x="205" y="115" type="line"/>
		</contour>
		<contour>
			<point x="1648" y="1340" type="line"/>
			<point x="1373" y="103" type="line"/>
			<point x="1225" y="44" type="line"/>
			<point x="1212" y="0" type="line"/>
			<point x="1845" y="0" type="line"/>
			<point x="1858" y="44" type="line"/>
			<point x="1741" y="97" type="line"/>
			<point x="1995" y="1237" type="line"/>
			<point x="2143" y="1296" type="line"/>
			<point x="2156" y="1340" type="line"/>
		</contour>
	</outline>
	<anchor name="UCtop" x="1208" y="1340"/>
	<anchor name="bottom" x="779" y="0"/>
</glyph>
<glyph name="N" format="2">
	<unicode hex="004E"/>
	<advance width="1456"/>
	<outline>
		<contour>
			<point x="1177" y="257" type="line"/>
			<point x="803" y="1340" type="line"/>
			<point x="320" y="1340" type="line"/>
			<point x="309" y="1303" type="line"/>
			<point x="435" y="1211" type="line"/>
			<point x="95" y="99" type="line"/>
			<point x="-53" y="44" type="line"/>
			<point x="-66" y="0" type="line"/>
			<point x="329" y="0" type="line"/>
			<point x="342" y="44" type="line"/>
			<point x="212" y="99" type="line"/>
			<point x="558" y="1230" type="line"/>
			<point x="499" y="1194" type="line"/>
			<point x="891" y="0" type="line"/>
			<point x="1146" y="0" type="line"/>
			<point x="1526" y="1241" type="line"/>
			<point x="1674" y="1296" type="line"/>
			<point x="1687" y="1340" type="line"/>
			<point x="1292" y="1340" type="line"/>
			<point x="1279" y="1296" type="line"/>
			<point x="1409" y="1241" type="line"/>
			<point x="1075" y="148" type="line"/>
		</contour>
	</outline>
	<anchor name="UCtop" x="1006" y="1340"/>
	<anchor name="bottom" x="647" y="0"/>
</glyph>
<glyph name="O" format="2">
	<unicode hex="004F"/>
	<advance width="1532"/>
	<outline>
		<contour>
			<point x="474" y="377" type="curve" smooth="yes"/>
			<point x="474" y="762.4502923977"/>
			<point x="693" y="1233"/>
			<point x="998" y="1233" type="curve" smooth="yes"/>
			<point x="1125" y="1233"/>
			<point x="1201" y="1160"/>
			<point x="1201" y="963" type="curve" smooth="yes"/>
			<point x="1201" y="578"/>
			<point x="982" y="107"/>
			<point x="677" y="107" type="curve" smooth="yes"/>
			<point x="550" y="107"/>
			<point x="474" y="180.2713754647"/>
		</contour>
		<contour>
			<point x="1552" y="839" type="curve" smooth="yes"/>
			<point x="1552" y="1177"/>
			<point x="1355" y="1370"/>
			<point x="986" y="1370" type="curve" smooth="yes"/>
			<point x="483" y="1370"/>
			<point x="123" y="962"/>
			<point x="123" y="501" type="curve" smooth="yes"/>
			<point x="123" y="163"/>
			<point x="320" y="-30"/>
			<point x="689" y="-30" type="curve" smooth="yes"/>
			<point x="1192" y="-30"/>
			<point x="1552" y="378"/>
		</contour>
	</outline>
	<anchor name="UCtop" x="1044" y="1340"/>
	<anchor name="bottom" x="633" y="0"/>
	<anchor name="right" x="825" y="0"/>
	<anchor name="horn" x="1308" y="1340"/>
</glyph>
<glyph name="P" format="2">
  <advance width="1305"/>
  <unicode hex="0050"/>
  <anchor x="912.0" y="1340.0" name="UCtop"/>
  <anchor x="245.0" y="0" name="bottom"/>
  <outline>
    <contour>
      <point x="778.0" y="674.0" type="curve" smooth="yes"/>
      <point x="422.0" y="674.0" type="line"/>
      <point x="380.0" y="546.0" type="line"/>
      <point x="802.0" y="546.0" type="line" smooth="yes"/>
      <point x="1245.0" y="546.0"/>
      <point x="1442.0" y="755.0"/>
      <point x="1442.0" y="1020.0" type="curve" smooth="yes"/>
      <point x="1442.0" y="1194.0"/>
      <point x="1325.0" y="1340.0"/>
      <point x="974.0" y="1340.0" type="curve" smooth="yes"/>
      <point x="624.0" y="1340.0" type="line"/>
      <point x="582.0" y="1212.0" type="line"/>
      <point x="879.0" y="1212.0" type="line" smooth="yes"/>
      <point x="1025.0" y="1212.0"/>
      <point x="1085.0" y="1142.0"/>
      <point x="1085.0" y="1032.0" type="curve" smooth="yes"/>
      <point x="1085.0" y="829.0"/>
      <point x="995.0" y="674.0"/>
    </contour>
    <contour>
      <point x="459.0" y="97.0" type="line"/>
      <point x="840.0" y="1340.0" type="line"/>
      <point x="336.0" y="1340.0" type="line"/>
      <point x="323.0" y="1296.0" type="line"/>
      <point x="440.0" y="1243.0" type="line"/>
      <point x="91.0" y="103.0" type="line"/>
      <point x="-57.0" y="44.0" type="line"/>
      <point x="-70.0" y="0.0" type="line"/>
      <point x="563.0" y="0.0" type="line"/>
      <point x="576.0" y="44.0" type="line"/>
    </contour>
  </outline>
</glyph>
<glyph name="Q" format="2">
	<unicode hex="0051"/>
	<advance width="1520"/>
	<outline>
		<contour>
			<point x="587" y="-194" type="line" smooth="yes"/>
			<point x="738" y="-337"/>
			<point x="838" y="-400"/>
			<point x="1084" y="-400" type="curve" smooth="yes"/>
			<point x="1226" y="-400"/>
			<point x="1317" y="-382"/>
			<point x="1404" y="-359" type="curve"/>
			<point x="1431" y="-272" type="line"/>
			<point x="1270" y="-282"/>
			<point x="1220" y="-234"/>
			<point x="1050" y="-134" type="curve" smooth="yes"/>
			<point x="685" y="80" type="line"/>
			<point x="735" y="4" type="line"/>
			<point x="1159" y="-32"/>
			<point x="1543" y="377"/>
			<point x="1543" y="845" type="curve" smooth="yes"/>
			<point x="1543" y="1173"/>
			<point x="1339" y="1370"/>
			<point x="973" y="1370" type="curve" smooth="yes"/>
			<point x="495" y="1370"/>
			<point x="122" y="963"/>
			<point x="122" y="495" type="curve" smooth="yes"/>
			<point x="122" y="323"/>
			<point x="179" y="192"/>
			<point x="280" y="96" type="curve" smooth="yes"/>
		</contour>
		<contour>
			<point x="490" y="413" type="curve" smooth="yes"/>
			<point x="490" y="805.7960444994"/>
			<point x="689" y="1232"/>
			<point x="972" y="1232" type="curve" smooth="yes"/>
			<point x="1093" y="1232"/>
			<point x="1175" y="1139.9830508475"/>
			<point x="1175" y="927" type="curve" smooth="yes"/>
			<point x="1175" y="534.2039555006"/>
			<point x="976" y="108"/>
			<point x="693" y="108" type="curve" smooth="yes"/>
			<point x="572" y="108"/>
			<point x="490" y="200.0169491525"/>
		</contour>
	</outline>
	<anchor name="bottom" x="487" y="-128"/>
	<anchor name="UCtop" x="1039" y="1340"/>
</glyph>
<glyph name="R" format="2">
	<unicode hex="0052"/>
	<advance width="1420"/>
	<outline>
		<contour>
			<point x="818" y="734" type="curve" smooth="yes"/>
			<point x="344" y="734" type="line"/>
			<point x="384" y="606" type="line"/>
			<point x="707" y="606" type="line" smooth="yes"/>
			<point x="793" y="606"/>
			<point x="817" y="585"/>
			<point x="842" y="438" type="curve" smooth="yes"/>
			<point x="883" y="200" type="line" smooth="yes"/>
			<point x="914" y="18"/>
			<point x="964" y="-33"/>
			<point x="1342" y="0" type="curve"/>
			<point x="1361" y="86" type="line"/>
			<point x="1303" y="85"/>
			<point x="1271" y="84"/>
			<point x="1242" y="228" type="curve" smooth="yes"/>
			<point x="1202" y="425" type="line" smooth="yes"/>
			<point x="1173" y="570"/>
			<point x="1123" y="661"/>
			<point x="954" y="676" type="curve"/>
			<point x="954" y="672" type="line"/>
			<point x="1288" y="675"/>
			<point x="1456" y="832"/>
			<point x="1456" y="1052" type="curve" smooth="yes"/>
			<point x="1456" y="1214"/>
			<point x="1335" y="1340"/>
			<point x="1022" y="1340" type="curve" smooth="yes"/>
			<point x="624" y="1340" type="line"/>
			<point x="502" y="1212" type="line"/>
			<point x="909" y="1212" type="line" smooth="yes"/>
			<point x="1039" y="1212"/>
			<point x="1095" y="1157"/>
			<point x="1095" y="1058" type="curve" smooth="yes"/>
			<point x="1095" y="890"/>
			<point x="1003" y="734"/>
		</contour>
		<contour>
			<point x="459" y="97" type="line"/>
			<point x="840" y="1340" type="line"/>
			<point x="336" y="1340" type="line"/>
			<point x="323" y="1296" type="line"/>
			<point x="440" y="1243" type="line"/>
			<point x="91" y="103" type="line"/>
			<point x="-57" y="44" type="line"/>
			<point x="-70" y="0" type="line"/>
			<point x="563" y="0" type="line"/>
			<point x="576" y="44" type="line"/>
		</contour>
	</outline>
	<anchor name="UCtop" x="919" y="1340"/>
	<anchor name="bottom" x="690" y="0"/>
</glyph>
<glyph name="T" format="2">
	<unicode hex="0054"/>
	<advance width="1351"/>
	<outline>
		<contour>
			<point x="1382" y="1202" type="line"/>
			<point x="1332" y="1245" type="line"/>
			<point x="1411" y="916" type="line"/>
			<point x="1472" y="916" type="line"/>
			<point x="1575" y="1415" type="line"/>
			<point x="1530" y="1415" type="line"/>
			<point x="1327" y="1312" type="line"/>
			<point x="1453" y="1340" type="line"/>
			<point x="442" y="1340" type="line"/>
			<point x="549" y="1312" type="line"/>
			<point x="411" y="1415" type="line"/>
			<point x="368" y="1415" type="line"/>
			<point x="177" y="929" type="line"/>
			<point x="236" y="906" type="line"/>
			<point x="533" y="1241" type="line"/>
			<point x="377" y="1202" type="line"/>
		</contour>
		<contour>
			<point x="737" y="1243" type="line"/>
			<point x="388" y="103" type="line"/>
			<point x="240" y="44" type="line"/>
			<point x="227" y="0" type="line"/>
			<point x="860" y="0" type="line"/>
			<point x="873" y="44" type="line"/>
			<point x="756" y="97" type="line"/>
			<point x="1107" y="1243" type="line"/>
		</contour>
	</outline>
	<anchor name="UCtop" x="942" y="1340"/>
	<anchor name="bottom" x="554" y="0"/>
</glyph>
<glyph name="U" format="2">
	<unicode hex="0055"/>
	<advance width="1502"/>
	<outline>
		<contour>
			<point x="570" y="551" type="curve" smooth="yes"/>
			<point x="779" y="1237" type="line"/>
			<point x="927" y="1296" type="line"/>
			<point x="940" y="1340" type="line"/>
			<point x="307" y="1340" type="line"/>
			<point x="294" y="1296" type="line"/>
			<point x="411" y="1243" type="line"/>
			<point x="187" y="511" type="line" smooth="yes"/>
			<point x="88" y="187"/>
			<point x="300" y="-30"/>
			<point x="694" y="-30" type="curve" smooth="yes"/>
			<point x="1031" y="-30"/>
			<point x="1246" y="142"/>
			<point x="1349" y="477" type="curve" smooth="yes"/>
			<point x="1583" y="1241" type="line"/>
			<point x="1731" y="1296" type="line"/>
			<point x="1744" y="1340" type="line"/>
			<point x="1349" y="1340" type="line"/>
			<point x="1336" y="1296" type="line"/>
			<point x="1466" y="1241" type="line"/>
			<point x="1256" y="555" type="line" smooth="yes"/>
			<point x="1179" y="302"/>
			<point x="1049" y="197"/>
			<point x="833" y="197" type="curve" smooth="yes"/>
			<point x="594" y="197"/>
			<point x="495" y="304"/>
		</contour>
	</outline>
	<anchor name="UCtop" x="1049" y="1340"/>
	<anchor name="right" x="941" y="0"/>
	<anchor name="bottom" x="690" y="0"/>
	<anchor name="horn" x="1490" y="1340"/>
</glyph>
<glyph name="V" format="2">
	<unicode hex="0056"/>
	<advance width="1433"/>
	<outline>
		<contour>
			<point x="355" y="1229" type="line"/>
			<point x="462" y="0" type="line"/>
			<point x="725" y="0" type="line"/>
			<point x="1553" y="1238" type="line"/>
			<point x="1707" y="1296" type="line"/>
			<point x="1721" y="1340" type="line"/>
			<point x="1284" y="1340" type="line"/>
			<point x="1270" y="1296" type="line"/>
			<point x="1404" y="1238" type="line"/>
			<point x="721" y="188" type="line"/>
			<point x="787" y="196" type="line"/>
			<point x="719" y="1233" type="line"/>
			<point x="884" y="1296" type="line"/>
			<point x="899" y="1340" type="line"/>
			<point x="240" y="1340" type="line"/>
			<point x="226" y="1296" type="line"/>
		</contour>
	</outline>
	<anchor name="UCtop" x="1029" y="1340"/>
	<anchor name="bottom" x="630" y="0"/>
</glyph>
<glyph name="W" format="2">
  <advance width="2052"/>
  <unicode hex="0057"/>
  <guideline x="1095.0" y="425" angle="180.0" identifier="zJUFDIH6wm"/>
  <guideline x="723.0" y="1233" angle="178.66742555342077" identifier="tyWcYoL9l7"/>
  <anchor x="1379.0" y="1340.0" name="UCtop"/>
  <anchor x="980.0" y="0" name="bottom"/>
  <outline>
    <contour>
      <point x="2018.0" y="1238.0" type="line"/>
      <point x="1514.0" y="284.0" type="line"/>
      <point x="1562.0" y="286.0" type="line"/>
      <point x="1563.0" y="1340.0" type="line"/>
      <point x="1296.0" y="1340.0" type="line"/>
      <point x="648.0" y="284.0" type="line"/>
      <point x="692.0" y="282.0" type="line"/>
      <point x="719.0" y="1233.0" type="line"/>
      <point x="884.0" y="1296.0" type="line"/>
      <point x="899.0" y="1340.0" type="line"/>
      <point x="244.0" y="1340.0" type="line"/>
      <point x="230.0" y="1296.0" type="line"/>
      <point x="359.0" y="1229.0" type="line"/>
      <point x="334.0" y="0.0" type="line"/>
      <point x="597.0" y="0.0" type="line"/>
      <point x="1238.0" y="1020.0" type="line"/>
      <point x="1187.0" y="1024.0" type="line"/>
      <point x="1208.0" y="0.0" type="line"/>
      <point x="1471.0" y="0.0" type="line"/>
      <point x="2167.0" y="1238.0" type="line"/>
      <point x="2321.0" y="1296.0" type="line"/>
      <point x="2335.0" y="1340.0" type="line"/>
      <point x="1898.0" y="1340.0" type="line"/>
      <point x="1884.0" y="1296.0" type="line"/>
    </contour>
  </outline>
</glyph>
<glyph name="X" format="2">
	<unicode hex="0058"/>
	<advance width="1470"/>
	<outline>
		<contour>
			<point x="769" y="609" type="line"/>
			<point x="895" y="695" type="line"/>
			<point x="1499" y="1233" type="line"/>
			<point x="1663" y="1296" type="line"/>
			<point x="1677" y="1340" type="line"/>
			<point x="1241" y="1340" type="line"/>
			<point x="1227" y="1296" type="line"/>
			<point x="1339" y="1233" type="line"/>
			<point x="848" y="784" type="line"/>
			<point x="722" y="705" type="line"/>
			<point x="40" y="107" type="line"/>
			<point x="-124" y="44" type="line"/>
			<point x="-138" y="0" type="line"/>
			<point x="307" y="0" type="line"/>
			<point x="321" y="44" type="line"/>
			<point x="210" y="107" type="line"/>
		</contour>
		<contour>
			<point x="864" y="107" type="line"/>
			<point x="692" y="44" type="line"/>
			<point x="678" y="0" type="line"/>
			<point x="1385" y="0" type="line"/>
			<point x="1400" y="44" type="line"/>
			<point x="1279" y="109" type="line"/>
			<point x="975" y="816" type="line"/>
			<point x="959" y="853" type="line"/>
			<point x="796" y="1233" type="line"/>
			<point x="968" y="1296" type="line"/>
			<point x="982" y="1340" type="line"/>
			<point x="275" y="1340" type="line"/>
			<point x="261" y="1296" type="line"/>
			<point x="382" y="1231" type="line"/>
			<point x="651" y="605" type="line"/>
			<point x="670" y="560" type="line"/>
		</contour>
	</outline>
	<anchor name="UCtop" x="1016" y="1340"/>
	<anchor name="bottom" x="607" y="0"/>
</glyph>
<glyph name="Y" format="2">
	<unicode hex="0059"/>
	<advance width="1430"/>
	<outline>
		<contour>
			<point x="1384" y="1238" type="line"/>
			<point x="875" y="645" type="line"/>
			<point x="928" y="646" type="line"/>
			<point x="723" y="1233" type="line"/>
			<point x="888" y="1296" type="line"/>
			<point x="903" y="1340" type="line"/>
			<point x="244" y="1340" type="line"/>
			<point x="230" y="1296" type="line"/>
			<point x="359" y="1229" type="line"/>
			<point x="604" y="595" type="line"/>
			<point x="453" y="103" type="line"/>
			<point x="305" y="44" type="line"/>
			<point x="292" y="0" type="line"/>
			<point x="925" y="0" type="line"/>
			<point x="938" y="44" type="line"/>
			<point x="821" y="97" type="line"/>
			<point x="974" y="596" type="line"/>
			<point x="1525" y="1238" type="line"/>
			<point x="1679" y="1296" type="line"/>
			<point x="1693" y="1340" type="line"/>
			<point x="1264" y="1340" type="line"/>
			<point x="1250" y="1296" type="line"/>
		</contour>
	</outline>
	<anchor name="UCtop" x="967" y="1340"/>
	<anchor name="bottom" x="616" y="0"/>
</glyph>
<glyph name="Z" format="2">
	<unicode hex="005A"/>
	<advance width="1294"/>
	<outline>
		<contour>
			<point x="1457" y="1340" type="line"/>
			<point x="583" y="1340" type="line"/>
			<point x="446" y="1414" type="line"/>
			<point x="411" y="1414" type="line"/>
			<point x="193" y="941" type="line"/>
			<point x="244" y="909" type="line"/>
			<point x="557" y="1212" type="line"/>
			<point x="1242" y="1212" type="line"/>
			<point x="1011" y="1271" type="line"/>
			<point x="-5" y="64" type="line"/>
			<point x="-24" y="0" type="line"/>
			<point x="898" y="0" type="line"/>
			<point x="1022" y="-72" type="line"/>
			<point x="1056" y="-72" type="line"/>
			<point x="1259" y="402" type="line"/>
			<point x="1209" y="419" type="line"/>
			<point x="925" y="128" type="line"/>
			<point x="225" y="128" type="line"/>
			<point x="416" y="69" type="line"/>
			<point x="1437" y="1276" type="line"/>
		</contour>
	</outline>
	<anchor name="UCtop" x="902" y="1340"/>
	<anchor name="bottom" x="583" y="0"/>
</glyph>
<glyph name="bracketleft" format="2">
	<unicode hex="005B"/>
	<advance width="588"/>
	<outline>
		<contour>
			<point x="-52" y="-250" type="line"/>
			<point x="347" y="-250" type="line"/>
			<point x="377" y="-150" type="line"/>
			<point x="191" y="-150" type="line"/>
			<point x="634" y="1299" type="line"/>
			<point x="820" y="1299" type="line"/>
			<point x="851" y="1399" type="line"/>
			<point x="452" y="1399" type="line"/>
		</contour>
	</outline>
</glyph>
<glyph name="bracketright" format="2">
	<unicode hex="005D"/>
	<advance width="588"/>
	<outline>
		<contour>
			<point x="726" y="1399" type="line"/>
			<point x="327" y="1399" type="line"/>
			<point x="296" y="1299" type="line"/>
			<point x="483" y="1299" type="line"/>
			<point x="40" y="-150" type="line"/>
			<point x="-147" y="-150" type="line"/>
			<point x="-177" y="-250" type="line"/>
			<point x="222" y="-250" type="line"/>
		</contour>
	</outline>
</glyph>
<glyph name="asciicircum" format="2">
	<unicode hex="005E"/>
	<advance width="1000"/>
	<outline>
		<contour>
			<point x="713" y="1246" type="line"/>
			<point x="809" y="592" type="line"/>
			<point x="952" y="592" type="line"/>
			<point x="840" y="1340" type="line"/>
			<point x="716" y="1340" type="line"/>
			<point x="150" y="592" type="line"/>
			<point x="317" y="592" type="line"/>
			<point x="811" y="1246" type="line"/>
		</contour>
	</outline>
</glyph>
<glyph name="a" format="2">
	<unicode hex="0061"/>
	<advance width="1172"/>
	<outline>
		<contour>
			<point x="577" y="93" type="line" smooth="yes"/>
			<point x="547" y="3"/>
			<point x="590" y="-30"/>
			<point x="715" y="-30" type="curve" smooth="yes"/>
			<point x="862" y="-30"/>
			<point x="1015" y="75"/>
			<point x="1160" y="288" type="curve"/>
			<point x="1114" y="328" type="line"/>
			<point x="1006" y="212"/>
			<point x="925" y="169"/>
			<point x="834" y="162" type="curve"/>
			<point x="885" y="72" type="line"/>
			<point x="1144" y="872" type="line"/>
			<point x="882" y="872" type="line"/>
			<point x="780" y="761" type="line"/>
			<point x="640" y="442" type="line" smooth="yes"/>
			<point x="568" y="278"/>
			<point x="461" y="184"/>
			<point x="390" y="184" type="curve" smooth="yes"/>
			<point x="353" y="184"/>
			<point x="344" y="196"/>
			<point x="344" y="239" type="curve" smooth="yes"/>
			<point x="344" y="400"/>
			<point x="527" y="757"/>
			<point x="670" y="757" type="curve" smooth="yes"/>
			<point x="737" y="757"/>
			<point x="772" y="720"/>
			<point x="786" y="677" type="curve"/>
			<point x="844" y="756" type="line"/>
			<point x="774" y="862"/>
			<point x="693" y="898"/>
			<point x="591" y="898" type="curve" smooth="yes"/>
			<point x="279" y="898"/>
			<point x="1" y="481"/>
			<point x="1" y="183" type="curve" smooth="yes"/>
			<point x="1" y="45"/>
			<point x="94" y="-30"/>
			<point x="220" y="-30" type="curve" smooth="yes"/>
			<point x="365" y="-30"/>
			<point x="490" y="38"/>
			<point x="712" y="416" type="curve"/>
			<point x="685" y="416" type="line"/>
		</contour>
	</outline>
	<anchor name="top" x="733" y="872"/>
	<anchor name="right" x="1017" y="0"/>
	<anchor name="bottom" x="447" y="0"/>
</glyph>
<glyph name="b" format="2">
  <advance width="1078"/>
  <unicode hex="0062"/>
  <anchor x="881.0" y="1341.0" name="UCtop"/>
  <anchor x="373.0" y="0" name="bottom"/>
  <outline>
    <contour>
      <point x="363" y="313" type="curve" smooth="yes"/>
      <point x="376" y="354" type="line" smooth="yes"/>
      <point x="430" y="526"/>
      <point x="554.0" y="673.0"/>
      <point x="640" y="673" type="curve" smooth="yes"/>
      <point x="682" y="673"/>
      <point x="703" y="647"/>
      <point x="703" y="583" type="curve" smooth="yes"/>
      <point x="703" y="335"/>
      <point x="540" y="72"/>
      <point x="426" y="72" type="curve" smooth="yes"/>
      <point x="371" y="72"/>
      <point x="338" y="105"/>
      <point x="338" y="178" type="curve" smooth="yes"/>
      <point x="338" y="213"/>
      <point x="346" y="258"/>
    </contour>
    <contour>
      <point x="316" y="1174" type="curve"/>
      <point x="89" y="424" type="line" smooth="yes"/>
      <point x="74" y="376"/>
      <point x="68" y="330"/>
      <point x="68" y="288" type="curve" smooth="yes"/>
      <point x="68" y="97"/>
      <point x="207" y="-30"/>
      <point x="413" y="-30" type="curve" smooth="yes"/>
      <point x="791" y="-30"/>
      <point x="1064" y="316"/>
      <point x="1064" y="652" type="curve" smooth="yes"/>
      <point x="1064.0" y="801.0"/>
      <point x="973.0" y="902.0"/>
      <point x="833" y="902" type="curve" smooth="yes"/>
      <point x="706" y="902"/>
      <point x="557" y="810"/>
      <point x="404" y="546" type="curve"/>
      <point x="430" y="552" type="line"/>
      <point x="733" y="1429" type="line"/>
      <point x="694" y="1429" type="line"/>
      <point x="205" y="1354" type="line"/>
      <point x="188" y="1297" type="line"/>
      <point x="243" y="1255"/>
      <point x="281" y="1221"/>
    </contour>
  </outline>
</glyph>
<glyph name="e" format="2">
	<unicode hex="0065"/>
	<advance width="922"/>
	<outline>
		<contour>
			<point x="591" y="795" type="curve" smooth="yes"/>
			<point x="626" y="795"/>
			<point x="643" y="771"/>
			<point x="643" y="724" type="curve" smooth="yes"/>
			<point x="643" y="617"/>
			<point x="589" y="568"/>
			<point x="288" y="460" type="curve"/>
			<point x="285" y="369" type="line"/>
			<point x="483" y="408"/>
			<point x="697" y="468"/>
			<point x="850" y="532" type="curve"/>
			<point x="891" y="579"/>
			<point x="918" y="643"/>
			<point x="918" y="709" type="curve" smooth="yes"/>
			<point x="918" y="820"/>
			<point x="840" y="902"/>
			<point x="635" y="902" type="curve" smooth="yes"/>
			<point x="329" y="902"/>
			<point x="39" y="666"/>
			<point x="39" y="315" type="curve" smooth="yes"/>
			<point x="39" y="103"/>
			<point x="164" y="-30"/>
			<point x="399" y="-30" type="curve" smooth="yes"/>
			<point x="604" y="-30"/>
			<point x="740" y="50"/>
			<point x="861" y="349" type="curve"/>
			<point x="795" y="349" type="line"/>
			<point x="715" y="223"/>
			<point x="642" y="183"/>
			<point x="535" y="183" type="curve" smooth="yes"/>
			<point x="439" y="183"/>
			<point x="378" y="234"/>
			<point x="378" y="365" type="curve" smooth="yes"/>
			<point x="378" y="594"/>
			<point x="490" y="795"/>
		</contour>
	</outline>
	<anchor name="top" x="582" y="872"/>
	<anchor name="right" x="785" y="0"/>
	<anchor name="bottom" x="394" y="0"/>
</glyph>
<glyph name="f" format="2">
  <advance width="762"/>
  <unicode hex="0066"/>
  <anchor x="887.0" y="1340.0" name="UCtop"/>
  <anchor x="15.0" y="-500" name="bottom"/>
  <outline>
    <contour>
      <point x="87.0" y="763.0" type="line"/>
      <point x="877.0" y="763.0" type="line"/>
      <point x="898.0" y="872.0" type="line"/>
      <point x="107.0" y="872.0" type="line"/>
    </contour>
    <contour>
      <point x="527" y="342" type="curve" smooth="yes"/>
      <point x="702" y="1074" type="line" smooth="yes"/>
      <point x="746" y="1257"/>
      <point x="789" y="1297"/>
      <point x="871" y="1297" type="curve" smooth="yes"/>
      <point x="927.0" y="1297.0"/>
      <point x="983" y="1262"/>
      <point x="1033" y="1204" type="curve" smooth="yes"/>
      <point x="1083.0" y="1146.0"/>
      <point x="1113" y="1114.0"/>
      <point x="1130" y="1114" type="curve" smooth="yes"/>
      <point x="1192" y="1114"/>
      <point x="1261" y="1169"/>
      <point x="1261" y="1253" type="curve" smooth="yes"/>
      <point x="1261.0" y="1349.0"/>
      <point x="1183" y="1429"/>
      <point x="1001" y="1429" type="curve" smooth="yes"/>
      <point x="695.0" y="1429.0"/>
      <point x="384" y="1212"/>
      <point x="290" y="768" type="curve" smooth="yes"/>
      <point x="76" y="-242" type="line" smooth="yes"/>
      <point x="48" y="-374"/>
      <point x="4" y="-412"/>
      <point x="-63" y="-412" type="curve" smooth="yes"/>
      <point x="-99.0" y="-412.0"/>
      <point x="-133" y="-392"/>
      <point x="-183" y="-323" type="curve" smooth="yes"/>
      <point x="-233.0" y="-254.0"/>
      <point x="-258.0" y="-231.0"/>
      <point x="-281" y="-231" type="curve" smooth="yes"/>
      <point x="-341" y="-231"/>
      <point x="-393" y="-279"/>
      <point x="-393" y="-357" type="curve" smooth="yes"/>
      <point x="-393" y="-456"/>
      <point x="-319" y="-530"/>
      <point x="-154" y="-530" type="curve" smooth="yes"/>
      <point x="124.0" y="-530.0"/>
      <point x="368" y="-325"/>
    </contour>
  </outline>
</glyph>
<glyph name="g" format="2">
	<unicode hex="0067"/>
	<advance width="999"/>
	<outline>
		<contour>
			<point x="1025" y="712" type="curve" smooth="yes"/>
			<point x="1107" y="712"/>
			<point x="1163" y="785"/>
			<point x="1163" y="862" type="curve" smooth="yes"/>
			<point x="1163" y="899"/>
			<point x="1137" y="916"/>
			<point x="1103" y="916" type="curve" smooth="yes"/>
			<point x="1020" y="916"/>
			<point x="932" y="859"/>
			<point x="684" y="888" type="curve"/>
			<point x="678" y="827" type="line"/>
			<point x="918" y="894"/>
			<point x="916" y="712"/>
		</contour>
		<contour>
			<point x="426" y="323" type="curve" smooth="yes"/>
			<point x="398" y="323"/>
			<point x="383" y="347"/>
			<point x="383" y="410" type="curve" smooth="yes"/>
			<point x="383" y="541"/>
			<point x="457" y="823"/>
			<point x="561" y="823" type="curve" smooth="yes"/>
			<point x="589" y="823"/>
			<point x="604" y="799"/>
			<point x="604" y="736" type="curve" smooth="yes"/>
			<point x="604" y="605"/>
			<point x="530" y="323"/>
		</contour>
		<contour>
			<point x="565" y="902" type="curve" smooth="yes"/>
			<point x="294" y="902"/>
			<point x="95" y="744"/>
			<point x="95" y="518" type="curve" smooth="yes"/>
			<point x="95" y="355"/>
			<point x="205" y="244"/>
			<point x="422" y="244" type="curve" smooth="yes"/>
			<point x="693" y="244"/>
			<point x="892" y="402"/>
			<point x="892" y="628" type="curve" smooth="yes"/>
			<point x="892" y="791"/>
			<point x="782" y="902"/>
		</contour>
		<contour>
			<point x="239" y="-530" type="curve" smooth="yes"/>
			<point x="619.3049541389" y="-530"/>
			<point x="833" y="-381.244950978"/>
			<point x="833" y="-173" type="curve" smooth="yes"/>
			<point x="833" y="-58"/>
			<point x="748" y="44"/>
			<point x="473" y="96" type="curve" smooth="yes"/>
			<point x="257" y="137"/>
			<point x="219" y="162"/>
			<point x="219" y="195" type="curve" smooth="yes"/>
			<point x="219" y="234.0525951809"/>
			<point x="255" y="272"/>
			<point x="344" y="272" type="curve"/>
			<point x="317" y="298" type="line"/>
			<point x="93" y="289"/>
			<point x="-27" y="188"/>
			<point x="-27" y="45" type="curve" smooth="yes"/>
			<point x="-27" y="-64"/>
			<point x="42" y="-141"/>
			<point x="269" y="-189" type="curve" smooth="yes"/>
			<point x="508" y="-240"/>
			<point x="556" y="-271"/>
			<point x="556" y="-314" type="curve" smooth="yes"/>
			<point x="556" y="-387"/>
			<point x="475" y="-438"/>
			<point x="319" y="-438" type="curve" smooth="yes"/>
			<point x="118" y="-438"/>
			<point x="36" y="-366"/>
			<point x="36" y="-301" type="curve" smooth="yes"/>
			<point x="36" y="-193"/>
			<point x="145" y="-131"/>
			<point x="355" y="-118" type="curve"/>
			<point x="363" y="-109" type="line"/>
			<point x="259" y="-109" type="line"/>
			<point x="-113" y="-145"/>
			<point x="-184" y="-244"/>
			<point x="-184" y="-337" type="curve" smooth="yes"/>
			<point x="-184" y="-444"/>
			<point x="-68" y="-530"/>
		</contour>
	</outline>
	<anchor name="top" x="582" y="872"/>
	<anchor name="bottom" x="264" y="-500"/>
</glyph>
<glyph name="h" format="2">
  <advance width="1166"/>
  <unicode hex="0068"/>
  <guideline x="166.0" y="792" angle="180.0" identifier="CYhnAoeZTO"/>
  <anchor x="772.0" y="1340.0" name="UCtop"/>
  <anchor x="467.0" y="0" name="bottom"/>
  <anchor x="504.0" y="1078" name="center"/>
  <outline>
    <contour>
      <point x="371.0" y="185.0" type="line" smooth="yes"/>
      <point x="482.0" y="550.0"/>
      <point x="609.0" y="674.0"/>
      <point x="688.0" y="674.0" type="curve" smooth="yes"/>
      <point x="718.0" y="674.0"/>
      <point x="732.0" y="656.0"/>
      <point x="732.0" y="629.0" type="curve" smooth="yes"/>
      <point x="732.0" y="608.0"/>
      <point x="724.0" y="581.0"/>
      <point x="701.0" y="521.0" type="curve" smooth="yes"/>
      <point x="543.0" y="113.0" type="line" smooth="yes"/>
      <point x="505.0" y="15.0"/>
      <point x="547.0" y="-30.0"/>
      <point x="675.0" y="-30.0" type="curve" smooth="yes"/>
      <point x="837.0" y="-30.0"/>
      <point x="993.0" y="65.0"/>
      <point x="1154.0" y="283.0" type="curve"/>
      <point x="1110.0" y="325.0" type="line"/>
      <point x="993.0" y="211.0"/>
      <point x="917.0" y="163.0"/>
      <point x="813.0" y="161.0" type="curve"/>
      <point x="866.0" y="73.0" type="line"/>
      <point x="1042.0" y="533.0" type="line" smooth="yes"/>
      <point x="1072.0" y="612.0"/>
      <point x="1085.0" y="680.0"/>
      <point x="1085.0" y="731.0" type="curve" smooth="yes"/>
      <point x="1085.0" y="831.0"/>
      <point x="1026.0" y="902.0"/>
      <point x="878.0" y="902.0" type="curve" smooth="yes"/>
      <point x="718.0" y="902.0"/>
      <point x="554.0" y="794.0"/>
      <point x="372.0" y="375.0" type="curve"/>
      <point x="385.0" y="346.0" type="line"/>
      <point x="760.0" y="1429.0" type="line"/>
      <point x="721.0" y="1429.0" type="line"/>
      <point x="232.0" y="1354.0" type="line"/>
      <point x="215.0" y="1297.0" type="line"/>
      <point x="270.0" y="1255.0"/>
      <point x="308.0" y="1221.0"/>
      <point x="343.0" y="1174.0" type="curve"/>
      <point x="-13.0" y="0.0" type="line"/>
      <point x="315.0" y="0.0" type="line"/>
    </contour>
  </outline>
</glyph>
<glyph name="i" format="2">
	<unicode hex="0069"/>
	<advance width="687"/>
	<outline>
		<contour>
			<point x="63" y="113" type="line" smooth="yes"/>
			<point x="26" y="15"/>
			<point x="67" y="-30"/>
			<point x="195" y="-30" type="curve" smooth="yes"/>
			<point x="354" y="-30"/>
			<point x="511" y="61"/>
			<point x="667" y="261" type="curve"/>
			<point x="623" y="304" type="line"/>
			<point x="512" y="198"/>
			<point x="440" y="154"/>
			<point x="325" y="157" type="curve"/>
			<point x="390" y="73" type="line"/>
			<point x="641" y="759" type="line" smooth="yes"/>
			<point x="677" y="857"/>
			<point x="637" y="902"/>
			<point x="509" y="902" type="curve" smooth="yes"/>
			<point x="348" y="902"/>
			<point x="181" y="812"/>
			<point x="35" y="596" type="curve"/>
			<point x="81" y="556" type="line"/>
			<point x="190" y="673"/>
			<point x="264" y="718"/>
			<point x="381" y="715" type="curve"/>
			<point x="314" y="779" type="line"/>
		</contour>
		<contour>
			<point x="434" y="1242" type="curve" smooth="yes"/>
			<point x="434" y="1134"/>
			<point x="513" y="1058"/>
			<point x="615" y="1058" type="curve" smooth="yes"/>
			<point x="718" y="1058"/>
			<point x="797" y="1134"/>
			<point x="797" y="1242" type="curve" smooth="yes"/>
			<point x="797" y="1352"/>
			<point x="718" y="1426"/>
			<point x="615" y="1426" type="curve" smooth="yes"/>
			<point x="513" y="1426"/>
			<point x="434" y="1352"/>
		</contour>
	</outline>
	<anchor name="top" x="619" y="1340"/>
	<anchor name="bottom" x="243" y="0"/>
	<anchor name="right" x="524" y="0"/>
</glyph>
<glyph name="j" format="2">
	<unicode hex="006A"/>
	<advance width="649"/>
	<outline>
		<contour>
			<point x="423" y="1242" type="curve" smooth="yes"/>
			<point x="423" y="1134"/>
			<point x="502" y="1058"/>
			<point x="604" y="1058" type="curve" smooth="yes"/>
			<point x="707" y="1058"/>
			<point x="786" y="1134"/>
			<point x="786" y="1242" type="curve" smooth="yes"/>
			<point x="786" y="1352"/>
			<point x="707" y="1426"/>
			<point x="604" y="1426" type="curve" smooth="yes"/>
			<point x="502" y="1426"/>
			<point x="423" y="1352"/>
		</contour>
		<contour>
			<point x="415" y="29" type="curve" smooth="yes"/>
			<point x="630" y="759" type="line" smooth="yes"/>
			<point x="660" y="860"/>
			<point x="626" y="902"/>
			<point x="498" y="902" type="curve" smooth="yes"/>
			<point x="337" y="902"/>
			<point x="170" y="812"/>
			<point x="24" y="596" type="curve"/>
			<point x="70" y="556" type="line"/>
			<point x="179" y="673"/>
			<point x="253" y="718"/>
			<point x="370" y="715" type="curve"/>
			<point x="303" y="779" type="line"/>
			<point x="8" y="-181" type="line" smooth="yes"/>
			<point x="-45" y="-355"/>
			<point x="-92" y="-417"/>
			<point x="-164" y="-417" type="curve" smooth="yes"/>
			<point x="-191" y="-417"/>
			<point x="-224" y="-395"/>
			<point x="-262" y="-332" type="curve" smooth="yes"/>
			<point x="-300" y="-269"/>
			<point x="-319" y="-250"/>
			<point x="-336" y="-250" type="curve" smooth="yes"/>
			<point x="-415" y="-250"/>
			<point x="-459" y="-298"/>
			<point x="-459" y="-365" type="curve" smooth="yes"/>
			<point x="-459" y="-463"/>
			<point x="-388" y="-530"/>
			<point x="-221" y="-530" type="curve" smooth="yes"/>
			<point x="49" y="-530"/>
			<point x="302" y="-354"/>
		</contour>
	</outline>
	<anchor name="top" x="598" y="1340"/>
	<anchor name="bottom" x="-3" y="-500"/>
</glyph>
<glyph name="k" format="2">
	<unicode hex="006B"/>
	<advance width="1168"/>
	<outline>
		<contour>
			<point x="750" y="1429" type="line"/>
			<point x="711" y="1429" type="line"/>
			<point x="232" y="1354" type="line"/>
			<point x="215" y="1297" type="line"/>
			<point x="270" y="1255"/>
			<point x="308" y="1221"/>
			<point x="343" y="1174" type="curve"/>
			<point x="-13" y="0" type="line"/>
			<point x="315" y="0" type="line"/>
		</contour>
		<contour>
			<point x="440" y="468" type="line"/>
			<point x="578" y="53"/>
			<point x="650" y="-30"/>
			<point x="732" y="-30" type="curve" smooth="yes"/>
			<point x="863" y="-30"/>
			<point x="998" y="70"/>
			<point x="1126" y="269" type="curve"/>
			<point x="1081" y="307" type="line"/>
			<point x="990" y="202"/>
			<point x="952" y="182"/>
			<point x="918" y="182" type="curve" smooth="yes"/>
			<point x="875" y="182"/>
			<point x="831" y="234"/>
			<point x="678" y="658" type="curve"/>
			<point x="562" y="503" type="line"/>
			<point x="682" y="636"/>
			<point x="813" y="717"/>
			<point x="892" y="717" type="curve" smooth="yes"/>
			<point x="923" y="717"/>
			<point x="944" y="697"/>
			<point x="968" y="648" type="curve" smooth="yes"/>
			<point x="992" y="599"/>
			<point x="1010" y="584"/>
			<point x="1033" y="584" type="curve" smooth="yes"/>
			<point x="1127" y="584"/>
			<point x="1208" y="646"/>
			<point x="1208" y="752" type="curve" smooth="yes"/>
			<point x="1208" y="832"/>
			<point x="1150" y="902"/>
			<point x="1048" y="902" type="curve" smooth="yes"/>
			<point x="919" y="902"/>
			<point x="786" y="839"/>
			<point x="467" y="517" type="curve"/>
		</contour>
	</outline>
	<anchor name="UCtop" x="821" y="1340"/>
	<anchor name="bottom" x="495" y="0"/>
</glyph>
<glyph name="l" format="2">
	<unicode hex="006C"/>
	<advance width="656"/>
	<outline>
		<contour>
			<point x="369" y="1180" type="curve"/>
			<point x="19" y="113" type="line" smooth="yes"/>
			<point x="-14" y="13"/>
			<point x="23" y="-30"/>
			<point x="151" y="-30" type="curve" smooth="yes"/>
			<point x="319" y="-30"/>
			<point x="494" y="51"/>
			<point x="653" y="261" type="curve"/>
			<point x="609" y="303" type="line"/>
			<point x="492" y="190"/>
			<point x="410" y="152"/>
			<point x="289" y="161" type="curve"/>
			<point x="346" y="73" type="line"/>
			<point x="791" y="1429" type="line"/>
			<point x="752" y="1429" type="line"/>
			<point x="263" y="1354" type="line"/>
			<point x="246" y="1297" type="line"/>
			<point x="299" y="1257"/>
			<point x="336" y="1225"/>
		</contour>
	</outline>
	<anchor name="UCtop" x="558" y="1340"/>
	<anchor name="right" x="781" y="1399"/>
	<anchor name="bottom" x="186" y="0"/>
	<anchor name="mid" x="761" y="546"/>
</glyph>
<glyph name="m" format="2">
	<unicode hex="006D"/>
	<advance width="1759"/>
	<outline>
		<contour>
			<point x="1459" y="73" type="line"/>
			<point x="1635" y="533" type="line" smooth="yes"/>
			<point x="1665" y="612"/>
			<point x="1678" y="680"/>
			<point x="1678" y="731" type="curve" smooth="yes"/>
			<point x="1678" y="831"/>
			<point x="1621" y="902"/>
			<point x="1478" y="902" type="curve" smooth="yes"/>
			<point x="1305" y="902"/>
			<point x="1148" y="782"/>
			<point x="975" y="335" type="curve"/>
			<point x="1000" y="335" type="line"/>
			<point x="1089" y="653" type="line" smooth="yes"/>
			<point x="1099" y="688"/>
			<point x="1104" y="720"/>
			<point x="1104" y="748" type="curve" smooth="yes"/>
			<point x="1104" y="845"/>
			<point x="1047" y="902"/>
			<point x="937" y="902" type="curve" smooth="yes"/>
			<point x="787" y="902"/>
			<point x="627" y="795"/>
			<point x="463" y="378" type="curve"/>
			<point x="471" y="350" type="line"/>
			<point x="620" y="880" type="line"/>
			<point x="541" y="895"/>
			<point x="496" y="901"/>
			<point x="417" y="901" type="curve" smooth="yes"/>
			<point x="245" y="901"/>
			<point x="115" y="817"/>
			<point x="25" y="540" type="curve"/>
			<point x="84" y="517" type="line"/>
			<point x="162" y="675"/>
			<point x="196" y="694"/>
			<point x="277" y="694" type="curve" smooth="yes"/>
			<point x="282" y="694"/>
			<point x="287" y="694"/>
			<point x="292" y="694" type="curve"/>
			<point x="82" y="0" type="line"/>
			<point x="410" y="0" type="line"/>
			<point x="467" y="185" type="line" smooth="yes"/>
			<point x="578" y="546"/>
			<point x="682" y="673"/>
			<point x="749" y="673" type="curve" smooth="yes"/>
			<point x="774" y="673"/>
			<point x="790" y="663"/>
			<point x="790" y="636" type="curve" smooth="yes"/>
			<point x="790" y="622"/>
			<point x="785" y="596"/>
			<point x="766" y="538" type="curve" smooth="yes"/>
			<point x="590" y="0" type="line"/>
			<point x="929" y="0" type="line"/>
			<point x="987" y="185" type="line" smooth="yes"/>
			<point x="1110" y="576"/>
			<point x="1225" y="674"/>
			<point x="1286" y="674" type="curve" smooth="yes"/>
			<point x="1314" y="674"/>
			<point x="1325" y="655"/>
			<point x="1325" y="629" type="curve" smooth="yes"/>
			<point x="1325" y="608"/>
			<point x="1317" y="581"/>
			<point x="1294" y="521" type="curve" smooth="yes"/>
			<point x="1136" y="113" type="line" smooth="yes"/>
			<point x="1098" y="15"/>
			<point x="1140" y="-30"/>
			<point x="1268" y="-30" type="curve" smooth="yes"/>
			<point x="1430" y="-30"/>
			<point x="1586" y="65"/>
			<point x="1747" y="283" type="curve"/>
			<point x="1703" y="325" type="line"/>
			<point x="1586" y="211"/>
			<point x="1510" y="163"/>
			<point x="1406" y="161" type="curve"/>
		</contour>
	</outline>
	<anchor name="top" x="1029" y="872"/>
	<anchor name="bottom" x="783" y="0"/>
</glyph>
<glyph name="n" format="2">
	<unicode hex="006E"/>
	<advance width="1262"/>
	<outline>
		<contour>
			<point x="84" y="517" type="line"/>
			<point x="162" y="675"/>
			<point x="196" y="694"/>
			<point x="277" y="694" type="curve" smooth="yes"/>
			<point x="282" y="694"/>
			<point x="287" y="694"/>
			<point x="292" y="694" type="curve"/>
			<point x="82" y="0" type="line"/>
			<point x="410" y="0" type="line"/>
			<point x="467" y="185" type="line" smooth="yes"/>
			<point x="579" y="550"/>
			<point x="705" y="674"/>
			<point x="784" y="674" type="curve" smooth="yes"/>
			<point x="814" y="674"/>
			<point x="828" y="656"/>
			<point x="828" y="629" type="curve" smooth="yes"/>
			<point x="828" y="608"/>
			<point x="820" y="581"/>
			<point x="797" y="521" type="curve" smooth="yes"/>
			<point x="639" y="113" type="line" smooth="yes"/>
			<point x="601" y="15"/>
			<point x="643" y="-30"/>
			<point x="771" y="-30" type="curve" smooth="yes"/>
			<point x="933" y="-30"/>
			<point x="1089" y="65"/>
			<point x="1250" y="283" type="curve"/>
			<point x="1206" y="325" type="line"/>
			<point x="1089" y="211"/>
			<point x="1013" y="163"/>
			<point x="909" y="161" type="curve"/>
			<point x="962" y="73" type="line"/>
			<point x="1138" y="533" type="line" smooth="yes"/>
			<point x="1168" y="612"/>
			<point x="1181" y="680"/>
			<point x="1181" y="731" type="curve" smooth="yes"/>
			<point x="1181" y="831"/>
			<point x="1122" y="902"/>
			<point x="974" y="902" type="curve" smooth="yes"/>
			<point x="814" y="902"/>
			<point x="650" y="794"/>
			<point x="468" y="375" type="curve"/>
			<point x="476" y="350" type="line"/>
			<point x="625" y="880" type="line"/>
			<point x="544" y="895"/>
			<point x="498" y="901"/>
			<point x="417" y="901" type="curve" smooth="yes"/>
			<point x="245" y="901"/>
			<point x="115" y="817"/>
			<point x="25" y="540" type="curve"/>
		</contour>
	</outline>
	<anchor name="top" x="740" y="872"/>
	<anchor name="bottom" x="584" y="0"/>
</glyph>
<glyph name="o" format="2">
	<unicode hex="006F"/>
	<advance width="1040"/>
	<outline>
		<contour>
			<point x="617" y="902" type="curve" smooth="yes"/>
			<point x="303" y="902"/>
			<point x="43" y="660"/>
			<point x="43" y="332" type="curve" smooth="yes"/>
			<point x="43" y="116"/>
			<point x="171" y="-30"/>
			<point x="423" y="-30" type="curve" smooth="yes"/>
			<point x="737" y="-30"/>
			<point x="997" y="212"/>
			<point x="997" y="540" type="curve" smooth="yes"/>
			<point x="997" y="756"/>
			<point x="869" y="902"/>
		</contour>
		<contour>
			<point x="420" y="77" type="curve" smooth="yes"/>
			<point x="381" y="77"/>
			<point x="360" y="100"/>
			<point x="360" y="188" type="curve" smooth="yes"/>
			<point x="360" y="458"/>
			<point x="513" y="795"/>
			<point x="620" y="795" type="curve" smooth="yes"/>
			<point x="659" y="795"/>
			<point x="680" y="772"/>
			<point x="680" y="684" type="curve" smooth="yes"/>
			<point x="680" y="414"/>
			<point x="527" y="77"/>
		</contour>
	</outline>
	<anchor name="top" x="653" y="872"/>
	<anchor name="bottom" x="387" y="0"/>
	<anchor name="horn" x="780" y="872"/>
	<anchor name="right" x="564" y="0"/>
</glyph>
<glyph name="p" format="2">
	<unicode hex="0070"/>
	<advance width="1198"/>
	<outline>
		<contour>
			<point x="484" y="314" type="curve" smooth="yes"/>
			<point x="494" y="355" type="line" smooth="yes"/>
			<point x="530" y="502"/>
			<point x="651" y="672"/>
			<point x="730" y="672" type="curve" smooth="yes"/>
			<point x="786" y="672"/>
			<point x="802" y="631"/>
			<point x="802" y="557" type="curve" smooth="yes"/>
			<point x="802" y="317"/>
			<point x="652" y="75"/>
			<point x="548" y="75" type="curve" smooth="yes"/>
			<point x="495" y="75"/>
			<point x="464" y="109"/>
			<point x="464" y="184" type="curve" smooth="yes"/>
			<point x="464" y="219"/>
			<point x="471" y="262"/>
		</contour>
		<contour>
			<point x="293" y="89" type="line"/>
			<point x="334" y="10"/>
			<point x="441" y="-30"/>
			<point x="600" y="-30" type="curve" smooth="yes"/>
			<point x="942" y="-30"/>
			<point x="1172" y="302"/>
			<point x="1172" y="618" type="curve" smooth="yes"/>
			<point x="1172" y="795"/>
			<point x="1057" y="902"/>
			<point x="918" y="902" type="curve" smooth="yes"/>
			<point x="754" y="902"/>
			<point x="623" y="777"/>
			<point x="485" y="484" type="curve"/>
			<point x="516" y="493" type="line"/>
			<point x="625" y="880" type="line"/>
			<point x="544" y="895"/>
			<point x="498" y="901"/>
			<point x="417" y="901" type="curve" smooth="yes"/>
			<point x="245" y="901"/>
			<point x="115" y="817"/>
			<point x="25" y="540" type="curve"/>
			<point x="84" y="517" type="line"/>
			<point x="162" y="675"/>
			<point x="196" y="694"/>
			<point x="277" y="694" type="curve" smooth="yes"/>
			<point x="282" y="694"/>
			<point x="287" y="694"/>
			<point x="292" y="694" type="curve"/>
			<point x="-39" y="-404" type="line"/>
			<point x="-162" y="-459" type="line"/>
			<point x="-175" y="-500" type="line"/>
			<point x="406" y="-500" type="line"/>
			<point x="420" y="-458" type="line"/>
			<point x="303" y="-405" type="line"/>
			<point x="448" y="89" type="line"/>
		</contour>
	</outline>
	<anchor name="top" x="730" y="872"/>
	<anchor name="bottom" x="103" y="-500"/>
</glyph>
<glyph name="q" format="2">
	<unicode hex="0071"/>
	<advance width="1105"/>
	<outline>
		<contour>
			<point x="409" y="-405" type="line"/>
			<point x="258" y="-458" type="line"/>
			<point x="244" y="-500" type="line"/>
			<point x="824" y="-500" type="line"/>
			<point x="838" y="-459" type="line"/>
			<point x="751" y="-404" type="line"/>
			<point x="1129" y="872" type="line"/>
			<point x="867" y="872" type="line"/>
			<point x="765" y="761" type="line"/>
			<point x="645" y="455" type="line" smooth="yes"/>
			<point x="575" y="275"/>
			<point x="461" y="184"/>
			<point x="390" y="184" type="curve" smooth="yes"/>
			<point x="353" y="184"/>
			<point x="344" y="196"/>
			<point x="344" y="239" type="curve" smooth="yes"/>
			<point x="344" y="400"/>
			<point x="527" y="757"/>
			<point x="670" y="757" type="curve" smooth="yes"/>
			<point x="737" y="757"/>
			<point x="772" y="720"/>
			<point x="786" y="677" type="curve"/>
			<point x="844" y="756" type="line"/>
			<point x="774" y="862"/>
			<point x="693" y="898"/>
			<point x="591" y="898" type="curve" smooth="yes"/>
			<point x="279" y="898"/>
			<point x="1" y="481"/>
			<point x="1" y="183" type="curve" smooth="yes"/>
			<point x="1" y="45"/>
			<point x="94" y="-30"/>
			<point x="220" y="-30" type="curve" smooth="yes"/>
			<point x="365" y="-30"/>
			<point x="488" y="45"/>
			<point x="710" y="423" type="curve"/>
			<point x="660" y="423" type="line"/>
		</contour>
	</outline>
	<anchor name="top" x="698" y="872"/>
	<anchor name="bottom" x="551" y="-500"/>
</glyph>
<glyph name="r" format="2">
	<unicode hex="0072"/>
	<advance width="997"/>
	<outline>
		<contour>
			<point x="292" y="694" type="curve"/>
			<point x="82" y="0" type="line"/>
			<point x="412" y="0" type="line"/>
			<point x="460" y="162" type="line" smooth="yes"/>
			<point x="566" y="520"/>
			<point x="685" y="665"/>
			<point x="766" y="665" type="curve" smooth="yes"/>
			<point x="795" y="665"/>
			<point x="817" y="652"/>
			<point x="841" y="617" type="curve" smooth="yes"/>
			<point x="865" y="582"/>
			<point x="878" y="568"/>
			<point x="899" y="568" type="curve" smooth="yes"/>
			<point x="998" y="568"/>
			<point x="1082" y="644"/>
			<point x="1082" y="747" type="curve" smooth="yes"/>
			<point x="1082" y="840"/>
			<point x="1027" y="902"/>
			<point x="922" y="902" type="curve" smooth="yes"/>
			<point x="790" y="902"/>
			<point x="629" y="774"/>
			<point x="463" y="378" type="curve"/>
			<point x="476" y="350" type="line"/>
			<point x="625" y="880" type="line"/>
			<point x="544" y="895"/>
			<point x="498" y="901"/>
			<point x="417" y="901" type="curve" smooth="yes"/>
			<point x="245" y="901"/>
			<point x="115" y="817"/>
			<point x="25" y="540" type="curve"/>
			<point x="84" y="517" type="line"/>
			<point x="162" y="675"/>
			<point x="196" y="694"/>
			<point x="277" y="694" type="curve" smooth="yes"/>
			<point x="282" y="694"/>
			<point x="287" y="694"/>
		</contour>
	</outline>
	<anchor name="top" x="633" y="872"/>
	<anchor name="bottom" x="247" y="0"/>
</glyph>
<glyph name="s" format="2">
	<unicode hex="0073"/>
	<advance width="780"/>
	<outline>
		<contour>
			<point x="107" y="235" type="curve" smooth="yes"/>
			<point x="36" y="235"/>
			<point x="-20" y="187"/>
			<point x="-20" y="118" type="curve" smooth="yes"/>
			<point x="-20" y="36"/>
			<point x="62" y="-30"/>
			<point x="264" y="-30" type="curve" smooth="yes"/>
			<point x="509" y="-30"/>
			<point x="685" y="128"/>
			<point x="685" y="297" type="curve" smooth="yes"/>
			<point x="685" y="381"/>
			<point x="651" y="458"/>
			<point x="535" y="555" type="curve" smooth="yes"/>
			<point x="419" y="652"/>
			<point x="396" y="688"/>
			<point x="396" y="732" type="curve" smooth="yes"/>
			<point x="396" y="775"/>
			<point x="421" y="805"/>
			<point x="470" y="805" type="curve" smooth="yes"/>
			<point x="512" y="805"/>
			<point x="560" y="766"/>
			<point x="599" y="707" type="curve" smooth="yes"/>
			<point x="638" y="648"/>
			<point x="656" y="632"/>
			<point x="667" y="632" type="curve" smooth="yes"/>
			<point x="739" y="632"/>
			<point x="791" y="674"/>
			<point x="791" y="744" type="curve" smooth="yes"/>
			<point x="791" y="832"/>
			<point x="717" y="902"/>
			<point x="524" y="902" type="curve" smooth="yes"/>
			<point x="286" y="902"/>
			<point x="135" y="758"/>
			<point x="135" y="584" type="curve" smooth="yes"/>
			<point x="135" y="474"/>
			<point x="182" y="395"/>
			<point x="293" y="314" type="curve" smooth="yes"/>
			<point x="404" y="233"/>
			<point x="427" y="194"/>
			<point x="427" y="146" type="curve" smooth="yes"/>
			<point x="427" y="95"/>
			<point x="385" y="66"/>
			<point x="326" y="66" type="curve" smooth="yes"/>
			<point x="280" y="66"/>
			<point x="235" y="90"/>
			<point x="185" y="157" type="curve" smooth="yes"/>
			<point x="135" y="224"/>
			<point x="119" y="235"/>
		</contour>
	</outline>
	<anchor name="top" x="478" y="872"/>
	<anchor name="bottom" x="332" y="0"/>
</glyph>
<glyph name="t" format="2">
	<unicode hex="0074"/>
	<advance width="769"/>
	<outline>
		<contour>
			<point x="97" y="763" type="line"/>
			<point x="840" y="763" type="line"/>
			<point x="861" y="872" type="line"/>
			<point x="117" y="872" type="line"/>
		</contour>
		<contour>
			<point x="511" y="427" type="curve" smooth="yes"/>
			<point x="735" y="1110" type="line"/>
			<point x="396" y="1110" type="line"/>
			<point x="169" y="404" type="line" smooth="yes"/>
			<point x="134" y="294"/>
			<point x="117" y="204"/>
			<point x="117" y="151" type="curve" smooth="yes"/>
			<point x="117" y="12"/>
			<point x="179" y="-30"/>
			<point x="272" y="-30" type="curve" smooth="yes"/>
			<point x="409" y="-30"/>
			<point x="564" y="40"/>
			<point x="736" y="317" type="curve"/>
			<point x="682" y="359" type="line"/>
			<point x="586" y="240"/>
			<point x="535" y="201"/>
			<point x="499" y="201" type="curve" smooth="yes"/>
			<point x="478" y="201"/>
			<point x="465" y="210"/>
			<point x="465" y="238" type="curve" smooth="yes"/>
			<point x="465" y="263"/>
			<point x="468" y="297"/>
		</contour>
	</outline>
	<anchor name="right" x="807" y="1399"/>
	<anchor name="bottom" x="346" y="0"/>
</glyph>
<glyph name="u" format="2">
	<unicode hex="0075"/>
	<advance width="1194"/>
	<outline>
		<contour>
			<point x="641" y="93" type="line" smooth="yes"/>
			<point x="616" y="2"/>
			<point x="651" y="-30"/>
			<point x="756" y="-30" type="curve" smooth="yes"/>
			<point x="883" y="-30"/>
			<point x="1052" y="80"/>
			<point x="1188" y="288" type="curve"/>
			<point x="1142" y="328" type="line"/>
			<point x="1034" y="212"/>
			<point x="953" y="169"/>
			<point x="862" y="162" type="curve"/>
			<point x="913" y="73" type="line"/>
			<point x="1155" y="872" type="line"/>
			<point x="827" y="872" type="line"/>
			<point x="714" y="506" type="line" smooth="yes"/>
			<point x="650" y="297"/>
			<point x="567" y="198"/>
			<point x="500" y="198" type="curve" smooth="yes"/>
			<point x="469" y="198"/>
			<point x="449" y="217"/>
			<point x="449" y="243" type="curve" smooth="yes"/>
			<point x="449" y="264"/>
			<point x="459" y="290"/>
			<point x="480" y="351" type="curve" smooth="yes"/>
			<point x="623" y="759" type="line" smooth="yes"/>
			<point x="658" y="858"/>
			<point x="619" y="902"/>
			<point x="491" y="902" type="curve" smooth="yes"/>
			<point x="331" y="902"/>
			<point x="166" y="812"/>
			<point x="21" y="597" type="curve"/>
			<point x="67" y="557" type="line"/>
			<point x="176" y="674"/>
			<point x="252" y="718"/>
			<point x="370" y="715" type="curve"/>
			<point x="307" y="799" type="line"/>
			<point x="146" y="339" type="line" smooth="yes"/>
			<point x="118" y="259"/>
			<point x="103" y="192"/>
			<point x="103" y="141" type="curve" smooth="yes"/>
			<point x="103" y="41"/>
			<point x="160" y="-30"/>
			<point x="303" y="-30" type="curve" smooth="yes"/>
			<point x="506" y="-30"/>
			<point x="648" y="146"/>
			<point x="793" y="494" type="curve"/>
			<point x="761" y="522" type="line"/>
		</contour>
	</outline>
	<anchor name="top" x="698" y="872"/>
	<anchor name="right" x="1115" y="0"/>
	<anchor name="bottom" x="472" y="0"/>
	<anchor name="horn" x="1031" y="872"/>
</glyph>
<glyph name="v" format="2">
	<unicode hex="0076"/>
	<advance width="1090"/>
	<outline>
		<contour>
			<point x="1074" y="712" type="curve" smooth="yes"/>
			<point x="1074" y="841"/>
			<point x="1006" y="902"/>
			<point x="916" y="902" type="curve" smooth="yes"/>
			<point x="831" y="902"/>
			<point x="765" y="829"/>
			<point x="765" y="741" type="curve" smooth="yes"/>
			<point x="765" y="675"/>
			<point x="889" y="667"/>
			<point x="889" y="543" type="curve" smooth="yes"/>
			<point x="889" y="317"/>
			<point x="708" y="154"/>
			<point x="590" y="154" type="curve" smooth="yes"/>
			<point x="535" y="154"/>
			<point x="502" y="188"/>
			<point x="502" y="254" type="curve" smooth="yes"/>
			<point x="502" y="282"/>
			<point x="508" y="315"/>
			<point x="520" y="353" type="curve" smooth="yes"/>
			<point x="685" y="880" type="line"/>
			<point x="634" y="891"/>
			<point x="569" y="899"/>
			<point x="474" y="899" type="curve" smooth="yes"/>
			<point x="247" y="899"/>
			<point x="131" y="809"/>
			<point x="27" y="546" type="curve"/>
			<point x="89" y="517" type="line"/>
			<point x="167" y="667"/>
			<point x="196" y="694"/>
			<point x="272" y="694" type="curve" smooth="yes"/>
			<point x="277" y="694"/>
			<point x="282" y="694"/>
			<point x="287" y="694" type="curve"/>
			<point x="167" y="307" type="line" smooth="yes"/>
			<point x="152" y="259"/>
			<point x="145" y="215"/>
			<point x="145" y="176" type="curve" smooth="yes"/>
			<point x="145" y="46"/>
			<point x="226" y="-30"/>
			<point x="381" y="-30" type="curve" smooth="yes"/>
			<point x="722" y="-30"/>
			<point x="1074" y="312"/>
		</contour>
	</outline>
	<anchor name="top" x="664" y="872"/>
	<anchor name="bottom" x="488" y="0"/>
</glyph>
<glyph name="w" format="2">
  <advance width="1597"/>
  <unicode hex="0077"/>
  <anchor x="1009.0" y="872.0" name="top"/>
  <anchor x="743.0" y="0" name="bottom"/>
  <outline>
    <contour>
      <point x="877" y="872" type="line"/>
      <point x="757" y="476" type="line" smooth="yes"/>
      <point x="690" y="256"/>
      <point x="608" y="163"/>
      <point x="543" y="163" type="curve" smooth="yes"/>
      <point x="511" y="163"/>
      <point x="493" y="177"/>
      <point x="493" y="221" type="curve" smooth="yes"/>
      <point x="493" y="250"/>
      <point x="501" y="293"/>
      <point x="520" y="353" type="curve" smooth="yes"/>
      <point x="685" y="880" type="line"/>
      <point x="644" y="890"/>
      <point x="579" y="899"/>
      <point x="474" y="899" type="curve" smooth="yes"/>
      <point x="247" y="899"/>
      <point x="131" y="809"/>
      <point x="27" y="546" type="curve"/>
      <point x="89" y="517" type="line"/>
      <point x="167" y="667"/>
      <point x="196" y="694"/>
      <point x="272" y="694" type="curve" smooth="yes"/>
      <point x="277" y="694"/>
      <point x="282" y="694"/>
      <point x="287" y="694" type="curve"/>
      <point x="167" y="307" type="line" smooth="yes"/>
      <point x="152" y="258"/>
      <point x="144" y="214"/>
      <point x="144" y="175" type="curve" smooth="yes"/>
      <point x="144" y="46"/>
      <point x="224" y="-30"/>
      <point x="369" y="-30" type="curve" smooth="yes"/>
      <point x="532" y="-30"/>
      <point x="708" y="81"/>
      <point x="840" y="490" type="curve"/>
      <point x="810" y="503" type="line"/>
      <point x="738" y="263" type="line" smooth="yes"/>
      <point x="721" y="204"/>
      <point x="712" y="156"/>
      <point x="712" y="118" type="curve" smooth="yes"/>
      <point x="712" y="6"/>
      <point x="783" y="-30"/>
      <point x="912" y="-30" type="curve" smooth="yes"/>
      <point x="1238" y="-30"/>
      <point x="1579" y="312"/>
      <point x="1579" y="712" type="curve" smooth="yes"/>
      <point x="1579" y="841"/>
      <point x="1510" y="902"/>
      <point x="1424" y="902" type="curve" smooth="yes"/>
      <point x="1342" y="902"/>
      <point x="1270" y="829"/>
      <point x="1270" y="741" type="curve" smooth="yes"/>
      <point x="1270" y="675"/>
      <point x="1398" y="667"/>
      <point x="1398" y="543" type="curve" smooth="yes"/>
      <point x="1398" y="317"/>
      <point x="1224" y="154"/>
      <point x="1116" y="154" type="curve" smooth="yes"/>
      <point x="1067" y="154"/>
      <point x="1039" y="183"/>
      <point x="1039" y="246" type="curve" smooth="yes"/>
      <point x="1039" y="274"/>
      <point x="1045" y="310"/>
      <point x="1057" y="353" type="curve" smooth="yes"/>
      <point x="1205" y="872" type="line"/>
    </contour>
  </outline>
</glyph>
<glyph name="x" format="2">
	<unicode hex="0078"/>
	<advance width="1088"/>
	<outline>
		<contour>
			<point x="592" y="382" type="line"/>
			<point x="705" y="536" type="line" smooth="yes"/>
			<point x="782" y="641"/>
			<point x="858" y="691"/>
			<point x="907" y="691" type="curve" smooth="yes"/>
			<point x="938" y="691"/>
			<point x="957" y="680"/>
			<point x="979" y="648" type="curve" smooth="yes"/>
			<point x="1001" y="616"/>
			<point x="1016" y="609"/>
			<point x="1036" y="609" type="curve" smooth="yes"/>
			<point x="1112" y="609"/>
			<point x="1177" y="671"/>
			<point x="1177" y="762" type="curve" smooth="yes"/>
			<point x="1177" y="839"/>
			<point x="1122" y="902"/>
			<point x="1023" y="902" type="curve" smooth="yes"/>
			<point x="929" y="902"/>
			<point x="838" y="844"/>
			<point x="719" y="684" type="curve" smooth="yes"/>
			<point x="569" y="482" type="line"/>
			<point x="497" y="505" type="line"/>
			<point x="377" y="339" type="line" smooth="yes"/>
			<point x="291" y="219"/>
			<point x="232" y="181"/>
			<point x="191" y="181" type="curve" smooth="yes"/>
			<point x="162" y="181"/>
			<point x="142" y="192"/>
			<point x="120" y="222" type="curve" smooth="yes"/>
			<point x="98" y="252"/>
			<point x="86" y="263"/>
			<point x="62" y="263" type="curve" smooth="yes"/>
			<point x="-12" y="263"/>
			<point x="-79" y="203"/>
			<point x="-79" y="110" type="curve" smooth="yes"/>
			<point x="-79" y="33"/>
			<point x="-24" y="-30"/>
			<point x="75" y="-30" type="curve" smooth="yes"/>
			<point x="169" y="-30"/>
			<point x="253" y="17"/>
			<point x="367" y="180" type="curve" smooth="yes"/>
			<point x="529" y="410" type="line"/>
		</contour>
		<contour>
			<point x="1047" y="349" type="curve"/>
			<point x="973" y="349" type="line"/>
			<point x="904" y="212"/>
			<point x="846" y="166"/>
			<point x="782" y="166" type="curve" smooth="yes"/>
			<point x="771" y="166"/>
			<point x="769" y="168"/>
			<point x="760" y="211" type="curve" smooth="yes"/>
			<point x="640" y="777" type="line" smooth="yes"/>
			<point x="622" y="863"/>
			<point x="583" y="902"/>
			<point x="487" y="902" type="curve" smooth="yes"/>
			<point x="307" y="902"/>
			<point x="172" y="807"/>
			<point x="90" y="523" type="curve"/>
			<point x="172" y="523" type="line"/>
			<point x="217" y="654"/>
			<point x="267" y="694"/>
			<point x="313" y="694" type="curve" smooth="yes"/>
			<point x="325" y="694"/>
			<point x="328" y="691"/>
			<point x="337" y="651" type="curve" smooth="yes"/>
			<point x="457" y="95" type="line" smooth="yes"/>
			<point x="476" y="9"/>
			<point x="514" y="-30"/>
			<point x="610" y="-30" type="curve" smooth="yes"/>
			<point x="814" y="-30"/>
			<point x="950" y="62"/>
		</contour>
	</outline>
	<anchor name="top" x="652" y="872"/>
	<anchor name="bottom" x="436" y="0"/>
</glyph>
<glyph name="y" format="2">
	<unicode hex="0079"/>
	<advance width="1052"/>
	<outline>
		<contour>
			<point x="98" y="463" type="line"/>
			<point x="133" y="619"/>
			<point x="180" y="672"/>
			<point x="220" y="672" type="curve" smooth="yes"/>
			<point x="239" y="672"/>
			<point x="249" y="657"/>
			<point x="291" y="482" type="curve" smooth="yes"/>
			<point x="333" y="306"/>
			<point x="379" y="86"/>
			<point x="443" y="-299" type="curve"/>
			<point x="677" y="46" type="line"/>
			<point x="628" y="376"/>
			<point x="582" y="595"/>
			<point x="538" y="726" type="curve" smooth="yes"/>
			<point x="494" y="857"/>
			<point x="455" y="902"/>
			<point x="375" y="902" type="curve" smooth="yes"/>
			<point x="190" y="902"/>
			<point x="86" y="765"/>
			<point x="20" y="463" type="curve"/>
		</contour>
		<contour>
			<point x="542" y="-36" type="line"/>
			<point x="431" y="-246"/>
			<point x="299" y="-351"/>
			<point x="208" y="-351" type="curve" smooth="yes"/>
			<point x="177" y="-351"/>
			<point x="142" y="-332"/>
			<point x="108" y="-287" type="curve" smooth="yes"/>
			<point x="74" y="-242"/>
			<point x="54" y="-226"/>
			<point x="37" y="-226" type="curve" smooth="yes"/>
			<point x="-38" y="-226"/>
			<point x="-105" y="-285"/>
			<point x="-105" y="-371" type="curve" smooth="yes"/>
			<point x="-105" y="-463"/>
			<point x="-48" y="-530"/>
			<point x="89" y="-530" type="curve" smooth="yes"/>
			<point x="279" y="-530"/>
			<point x="484" y="-369"/>
			<point x="719" y="-15" type="curve" smooth="yes"/>
			<point x="954" y="339"/>
			<point x="1066" y="675"/>
			<point x="1066" y="844" type="curve" smooth="yes"/>
			<point x="1066" y="878"/>
			<point x="1048" y="892"/>
			<point x="1012" y="892" type="curve" smooth="yes"/>
			<point x="951" y="892"/>
			<point x="868" y="883"/>
			<point x="825" y="873" type="curve"/>
			<point x="830" y="494"/>
			<point x="760" y="226"/>
			<point x="583" y="-47" type="curve"/>
		</contour>
	</outline>
	<anchor name="top" x="614" y="872"/>
	<anchor name="bottom" x="888" y="-128"/>
</glyph>
<glyph name="z" format="2">
	<unicode hex="007A"/>
	<advance width="915"/>
	<outline>
		<contour>
			<point x="-23" y="53" type="line"/>
			<point x="45" y="-20" type="line"/>
			<point x="970" y="838" type="line"/>
			<point x="902" y="913" type="line"/>
		</contour>
		<contour>
			<point x="100" y="512" type="line"/>
			<point x="172" y="610"/>
			<point x="218" y="630"/>
			<point x="356" y="592" type="curve" smooth="yes"/>
			<point x="568" y="534" type="line"/>
			<point x="824" y="779" type="line"/>
			<point x="459" y="879" type="line" smooth="yes"/>
			<point x="280" y="927"/>
			<point x="175" y="828"/>
			<point x="54" y="535" type="curve"/>
		</contour>
		<contour>
			<point x="455" y="9" type="line" smooth="yes"/>
			<point x="595" y="-57"/>
			<point x="679" y="-42"/>
			<point x="908" y="338" type="curve"/>
			<point x="864" y="371" type="line"/>
			<point x="748" y="241"/>
			<point x="693" y="228"/>
			<point x="590" y="277" type="curve" smooth="yes"/>
			<point x="389" y="372" type="line"/>
			<point x="151" y="153" type="line"/>
		</contour>
	</outline>
	<anchor name="top" x="547" y="872"/>
	<anchor name="bottom" x="391" y="0"/>
</glyph>
<glyph name="braceleft" format="2">
	<unicode hex="007B"/>
	<advance width="585"/>
	<outline>
		<contour>
			<point x="66" y="529" type="line"/>
			<point x="116" y="526" type="line" smooth="yes"/>
			<point x="173" y="523"/>
			<point x="198" y="500"/>
			<point x="198" y="454" type="curve" smooth="yes"/>
			<point x="198" y="326"/>
			<point x="25" y="109.625227316"/>
			<point x="25" y="-46" type="curve" smooth="yes"/>
			<point x="25" y="-154"/>
			<point x="90" y="-253"/>
			<point x="225" y="-270" type="curve" smooth="yes"/>
			<point x="312" y="-281" type="line"/>
			<point x="347" y="-199" type="line"/>
			<point x="303" y="-192" type="line" smooth="yes"/>
			<point x="253" y="-184"/>
			<point x="232" y="-153"/>
			<point x="232" y="-95" type="curve" smooth="yes"/>
			<point x="232" y="53"/>
			<point x="367" y="284"/>
			<point x="367" y="432" type="curve" smooth="yes"/>
			<point x="367" y="508"/>
			<point x="335" y="561"/>
			<point x="248" y="580" type="curve"/>
			<point x="244" y="568" type="line"/>
			<point x="372" y="588"/>
			<point x="449" y="650"/>
			<point x="491" y="785" type="curve" smooth="yes"/>
			<point x="532" y="920"/>
			<point x="560" y="1070"/>
			<point x="591" y="1173" type="curve" smooth="yes"/>
			<point x="623" y="1276"/>
			<point x="676" y="1329"/>
			<point x="770" y="1335" type="curve" smooth="yes"/>
			<point x="817" y="1338" type="line"/>
			<point x="835" y="1429" type="line"/>
			<point x="742" y="1422" type="line" smooth="yes"/>
			<point x="503" y="1404"/>
			<point x="390" y="1306"/>
			<point x="351" y="1176" type="curve" smooth="yes"/>
			<point x="311" y="1046"/>
			<point x="317" y="834"/>
			<point x="291" y="748" type="curve" smooth="yes"/>
			<point x="264" y="662"/>
			<point x="231" y="627"/>
			<point x="145" y="622" type="curve" smooth="yes"/>
			<point x="93" y="619" type="line"/>
		</contour>
	</outline>
</glyph>
<glyph name="bar" format="2">
	<unicode hex="007C"/>
	<advance width="443"/>
	<outline>
		<contour>
			<point x="-126" y="-530" type="line"/>
			<point x="3" y="-530" type="line"/>
			<point x="591" y="1470" type="line"/>
			<point x="462" y="1470" type="line"/>
		</contour>
	</outline>
</glyph>
<glyph name="braceright" format="2">
	<unicode hex="007D"/>
	<advance width="585"/>
	<outline>
		<contour>
			<point x="604" y="619" type="line"/>
			<point x="554" y="622" type="line" smooth="yes"/>
			<point x="497" y="625"/>
			<point x="472" y="648"/>
			<point x="472" y="694" type="curve" smooth="yes"/>
			<point x="472" y="822"/>
			<point x="645" y="1038"/>
			<point x="645" y="1194" type="curve" smooth="yes"/>
			<point x="645" y="1302"/>
			<point x="580" y="1401"/>
			<point x="445" y="1418" type="curve" smooth="yes"/>
			<point x="358" y="1429" type="line"/>
			<point x="323" y="1347" type="line"/>
			<point x="367" y="1340" type="line" smooth="yes"/>
			<point x="417" y="1332"/>
			<point x="438" y="1301"/>
			<point x="438" y="1243" type="curve" smooth="yes"/>
			<point x="438" y="1095"/>
			<point x="303" y="864"/>
			<point x="303" y="716" type="curve" smooth="yes"/>
			<point x="303" y="640"/>
			<point x="335" y="587"/>
			<point x="422" y="568" type="curve"/>
			<point x="426" y="580" type="line"/>
			<point x="298" y="560"/>
			<point x="221" y="498"/>
			<point x="179" y="363" type="curve" smooth="yes"/>
			<point x="138" y="228"/>
			<point x="110" y="78"/>
			<point x="79" y="-25" type="curve" smooth="yes"/>
			<point x="47" y="-128"/>
			<point x="-6" y="-181"/>
			<point x="-100" y="-187" type="curve" smooth="yes"/>
			<point x="-147" y="-190" type="line"/>
			<point x="-165" y="-281" type="line"/>
			<point x="-72" y="-274" type="line" smooth="yes"/>
			<point x="167" y="-256"/>
			<point x="280" y="-158"/>
			<point x="319" y="-28" type="curve" smooth="yes"/>
			<point x="359" y="102"/>
			<point x="353" y="314"/>
			<point x="379" y="400" type="curve" smooth="yes"/>
			<point x="406" y="486"/>
			<point x="439" y="521"/>
			<point x="525" y="526" type="curve" smooth="yes"/>
			<point x="577" y="529" type="line"/>
		</contour>
	</outline>
</glyph>
<glyph name="asciitilde" format="2">
  <advance width="1000"/>
  <unicode hex="007E"/>
  <outline>
    <contour>
      <point x="929.0" y="567.0" type="curve"/>
      <point x="783.0" y="567.0" type="line"/>
      <point x="749.0" y="466.0"/>
      <point x="717.0" y="441.0"/>
      <point x="659.0" y="441.0" type="curve" smooth="yes"/>
      <point x="568.0" y="441.0"/>
      <point x="494.0" y="574.0"/>
      <point x="349.0" y="574.0" type="curve" smooth="yes"/>
      <point x="208.0" y="574.0"/>
      <point x="128.0" y="493.0"/>
      <point x="71.0" y="305.0" type="curve"/>
      <point x="217.0" y="305.0" type="line"/>
      <point x="251.0" y="406.0"/>
      <point x="283.0" y="431.0"/>
      <point x="341.0" y="431.0" type="curve" smooth="yes"/>
      <point x="432.0" y="431.0"/>
      <point x="506.0" y="298.0"/>
      <point x="655.0" y="298.0" type="curve" smooth="yes"/>
      <point x="792.0" y="298.0"/>
      <point x="872.0" y="379.0"/>
    </contour>
  </outline>
</glyph>
<glyph name="exclamdown" format="2">
	<unicode hex="00A1"/>
	<advance width="540"/>
	<outline>
		<contour>
			<point x="-181" y="-359" type="line" smooth="yes"/>
			<point x="-212" y="-459"/>
			<point x="-112" y="-508"/>
			<point x="-8" y="-508" type="curve" smooth="yes"/>
			<point x="97" y="-508"/>
			<point x="206" y="-459"/>
			<point x="237" y="-359" type="curve" smooth="yes"/>
			<point x="241" y="-344" type="line" smooth="yes"/>
			<point x="265" y="-267"/>
			<point x="249" y="-138"/>
			<point x="282" y="360" type="curve"/>
			<point x="213" y="360" type="line"/>
			<point x="-59" y="-138"/>
			<point x="-153" y="-267"/>
			<point x="-177" y="-344" type="curve" smooth="yes"/>
		</contour>
		<contour>
			<point x="320" y="513" type="curve" smooth="yes"/>
			<point x="439" y="513"/>
			<point x="533" y="604"/>
			<point x="533" y="729" type="curve" smooth="yes"/>
			<point x="533" y="818"/>
			<point x="479" y="886"/>
			<point x="377" y="886" type="curve" smooth="yes"/>
			<point x="258" y="886"/>
			<point x="164" y="795"/>
			<point x="164" y="670" type="curve" smooth="yes"/>
			<point x="164" y="581"/>
			<point x="218" y="513"/>
		</contour>
	</outline>
</glyph>
<glyph name="currency" format="2">
	<unicode hex="00A4"/>
	<advance width="910"/>
	<outline>
		<contour>
			<point x="176" y="713" type="line"/>
			<point x="280" y="554" type="line"/>
			<point x="408" y="650" type="line"/>
			<point x="300" y="806" type="line"/>
		</contour>
		<contour>
			<point x="794" y="773" type="line"/>
			<point x="638" y="653" type="line"/>
			<point x="710" y="547" type="line"/>
			<point x="869" y="664" type="line"/>
		</contour>
		<contour>
			<point x="736" y="159" type="line"/>
			<point x="632" y="318" type="line"/>
			<point x="504" y="222" type="line"/>
			<point x="612" y="66" type="line"/>
		</contour>
		<contour>
			<point x="43" y="208" type="line"/>
			<point x="118" y="99" type="line"/>
			<point x="274" y="219" type="line"/>
			<point x="202" y="325" type="line"/>
		</contour>
		<contour>
			<point x="503" y="733" type="curve" smooth="yes"/>
			<point x="273" y="733"/>
			<point x="145" y="573"/>
			<point x="145" y="396" type="curve" smooth="yes"/>
			<point x="145" y="254"/>
			<point x="260" y="139"/>
			<point x="409" y="139" type="curve" smooth="yes"/>
			<point x="639" y="139"/>
			<point x="767" y="299"/>
			<point x="767" y="476" type="curve" smooth="yes"/>
			<point x="767" y="618"/>
			<point x="652" y="733"/>
		</contour>
		<contour>
			<point x="425" y="269" type="curve" smooth="yes"/>
			<point x="341" y="269"/>
			<point x="287" y="328"/>
			<point x="287" y="411" type="curve" smooth="yes"/>
			<point x="287" y="509"/>
			<point x="349" y="603"/>
			<point x="487" y="603" type="curve" smooth="yes"/>
			<point x="571" y="603"/>
			<point x="625" y="544"/>
			<point x="625" y="461" type="curve" smooth="yes"/>
			<point x="625" y="363"/>
			<point x="563" y="269"/>
		</contour>
	</outline>
</glyph>
<glyph name="brokenbar" format="2">
	<unicode hex="00A6"/>
	<advance width="443"/>
	<outline>
		<contour>
			<point x="372" y="725" type="line"/>
			<point x="591" y="1470" type="line"/>
			<point x="462" y="1470" type="line"/>
			<point x="243" y="725" type="line"/>
		</contour>
		<contour>
			<point x="-126" y="-530" type="line"/>
			<point x="3" y="-530" type="line"/>
			<point x="260" y="345" type="line"/>
			<point x="131" y="345" type="line"/>
		</contour>
	</outline>
</glyph>
<glyph name="section" format="2">
	<unicode hex="00A7"/>
	<advance width="1180"/>
	<outline>
		<contour>
			<point x="539" y="731" type="curve"/>
			<point x="484" y="788" type="line"/>
			<point x="193" y="726"/>
			<point x="86" y="584"/>
			<point x="86" y="417" type="curve" smooth="yes"/>
			<point x="86" y="77"/>
			<point x="590" y="168"/>
			<point x="590" y="-42" type="curve" smooth="yes"/>
			<point x="590" y="-108"/>
			<point x="541" y="-174"/>
			<point x="429" y="-174" type="curve" smooth="yes"/>
			<point x="248" y="-174"/>
			<point x="267" y="6"/>
			<point x="131" y="6" type="curve" smooth="yes"/>
			<point x="66" y="6"/>
			<point x="22" y="-41"/>
			<point x="22" y="-111" type="curve" smooth="yes"/>
			<point x="22" y="-206"/>
			<point x="131" y="-285"/>
			<point x="365" y="-285" type="curve" smooth="yes"/>
			<point x="732" y="-285"/>
			<point x="891" y="-85"/>
			<point x="891" y="123" type="curve" smooth="yes"/>
			<point x="891" y="458"/>
			<point x="405" y="398"/>
			<point x="405" y="588" type="curve" smooth="yes"/>
			<point x="405" y="648"/>
			<point x="443" y="698"/>
		</contour>
		<contour>
			<point x="841" y="497" type="curve" smooth="yes"/>
			<point x="841" y="437"/>
			<point x="803" y="387"/>
			<point x="707" y="354" type="curve"/>
			<point x="762" y="297" type="line"/>
			<point x="1053" y="359"/>
			<point x="1160" y="501"/>
			<point x="1160" y="668" type="curve" smooth="yes"/>
			<point x="1160" y="1008"/>
			<point x="656" y="917"/>
			<point x="656" y="1127" type="curve" smooth="yes"/>
			<point x="656" y="1193"/>
			<point x="705" y="1259"/>
			<point x="817" y="1259" type="curve" smooth="yes"/>
			<point x="998" y="1259"/>
			<point x="979" y="1079"/>
			<point x="1115" y="1079" type="curve" smooth="yes"/>
			<point x="1180" y="1079"/>
			<point x="1224" y="1126"/>
			<point x="1224" y="1196" type="curve" smooth="yes"/>
			<point x="1224" y="1291"/>
			<point x="1115" y="1370"/>
			<point x="881" y="1370" type="curve" smooth="yes"/>
			<point x="514" y="1370"/>
			<point x="355" y="1170"/>
			<point x="355" y="962" type="curve" smooth="yes"/>
			<point x="355" y="627"/>
			<point x="841" y="687"/>
		</contour>
	</outline>
</glyph>
<glyph name="copyright" format="2">
  <advance width="1662"/>
  <unicode hex="00A9"/>
  <outline>
    <contour>
      <point x="924.0" y="363.0" type="curve" smooth="yes"/>
      <point x="846.0" y="363.0"/>
      <point x="798.0" y="427.0"/>
      <point x="798.0" y="546.0" type="curve" smooth="yes"/>
      <point x="798.0" y="776.0"/>
      <point x="910.0" y="987.0"/>
      <point x="1057.0" y="987.0" type="curve" smooth="yes"/>
      <point x="1100.0" y="987.0"/>
      <point x="1140.0" y="972.0"/>
      <point x="1167.0" y="939.0" type="curve"/>
      <point x="1125.0" y="1001.0" type="line"/>
      <point x="1190.0" y="776.0" type="line"/>
      <point x="1241.0" y="789.0" type="line"/>
      <point x="1293.0" y="1091.0" type="line"/>
      <point x="1256.0" y="1091.0" type="line"/>
      <point x="1159.0" y="1027.0" type="line"/>
      <point x="1220.0" y="1042.0" type="line"/>
      <point x="1155.0" y="1059.0"/>
      <point x="1119.0" y="1065.0"/>
      <point x="1065.0" y="1065.0" type="curve" smooth="yes"/>
      <point x="683.0" y="1065.0"/>
      <point x="500.0" y="848.0"/>
      <point x="500.0" y="596.0" type="curve" smooth="yes"/>
      <point x="500.0" y="411.0"/>
      <point x="628.0" y="285.0"/>
      <point x="857.0" y="285.0" type="curve" smooth="yes"/>
      <point x="948.0" y="285.0"/>
      <point x="1008.0" y="294.0"/>
      <point x="1079.0" y="311.0" type="curve"/>
      <point x="1188.0" y="531.0" type="line"/>
      <point x="1142.0" y="531.0" type="line"/>
      <point x="939.0" y="335.0" type="line"/>
      <point x="1032.0" y="395.0" type="line"/>
      <point x="993.0" y="373.0"/>
      <point x="961.0" y="363.0"/>
    </contour>
    <contour>
      <point x="825.0" y="76.0" type="curve" smooth="yes"/>
      <point x="489.0" y="76.0"/>
      <point x="299.0" y="289.0"/>
      <point x="299.0" y="584.0" type="curve" smooth="yes"/>
      <point x="299.0" y="982.0"/>
      <point x="592.0" y="1264.0"/>
      <point x="981.0" y="1264.0" type="curve" smooth="yes"/>
      <point x="1317.0" y="1264.0"/>
      <point x="1507.0" y="1051.0"/>
      <point x="1507.0" y="756.0" type="curve" smooth="yes"/>
      <point x="1507.0" y="357.0"/>
      <point x="1214.0" y="76.0"/>
    </contour>
    <contour>
      <point x="991.0" y="1370.0" type="curve" smooth="yes"/>
      <point x="524.0" y="1370.0"/>
      <point x="179.0" y="1031.0"/>
      <point x="179.0" y="568.0" type="curve" smooth="yes"/>
      <point x="179.0" y="215.0"/>
      <point x="418.0" y="-30.0"/>
      <point x="815.0" y="-30.0" type="curve" smooth="yes"/>
      <point x="1282.0" y="-30.0"/>
      <point x="1627.0" y="308.0"/>
      <point x="1627.0" y="772.0" type="curve" smooth="yes"/>
      <point x="1627.0" y="1125.0"/>
      <point x="1388.0" y="1370.0"/>
    </contour>
  </outline>
</glyph>
<glyph name="ordfeminine" format="2">
	<unicode hex="00AA"/>
	<advance width="987"/>
	<outline>
		<contour>
			<point x="143" y="443" type="line"/>
			<point x="846" y="443" type="line"/>
			<point x="887" y="575" type="line"/>
			<point x="183" y="575" type="line"/>
		</contour>
		<contour>
			<point x="646" y="762" type="line" smooth="yes"/>
			<point x="624" y="695"/>
			<point x="656" y="670"/>
			<point x="748" y="670" type="curve" smooth="yes"/>
			<point x="851.915451895" y="670"/>
			<point x="942" y="723"/>
			<point x="1075" y="841" type="curve"/>
			<point x="1049" y="887" type="line"/>
			<point x="957" y="840"/>
			<point x="897" y="828"/>
			<point x="835" y="823" type="curve"/>
			<point x="884" y="747" type="line"/>
			<point x="1074" y="1340" type="line"/>
			<point x="870" y="1340" type="line"/>
			<point x="785" y="1257" type="line"/>
			<point x="683" y="1024" type="line" smooth="yes"/>
			<point x="631.9671237448" y="907.4249003189"/>
			<point x="567.9714285714" y="841"/>
			<point x="518" y="841" type="curve" smooth="yes"/>
			<point x="491" y="841"/>
			<point x="484" y="850"/>
			<point x="484" y="882" type="curve" smooth="yes"/>
			<point x="484" y="999.832460733"/>
			<point x="612.4166666667" y="1254"/>
			<point x="714" y="1254" type="curve" smooth="yes"/>
			<point x="763" y="1254"/>
			<point x="789" y="1227"/>
			<point x="799" y="1194" type="curve"/>
			<point x="842" y="1254" type="line"/>
			<point x="791" y="1333"/>
			<point x="731" y="1360"/>
			<point x="656" y="1360" type="curve" smooth="yes"/>
			<point x="412" y="1360"/>
			<point x="221" y="1059"/>
			<point x="221" y="830" type="curve" smooth="yes"/>
			<point x="221" y="726"/>
			<point x="290" y="670"/>
			<point x="383" y="670" type="curve" smooth="yes"/>
			<point x="490" y="670"/>
			<point x="582" y="721"/>
			<point x="746" y="1005" type="curve"/>
			<point x="726" y="1005" type="line"/>
		</contour>
	</outline>
</glyph>
<glyph name="guillemotleft" format="2">
	<unicode hex="00AB"/>
	<advance width="997"/>
	<outline>
		<contour>
			<point x="309" y="467" type="line"/>
			<point x="273" y="349" type="line"/>
			<point x="630" y="820" type="line"/>
			<point x="574" y="872" type="line"/>
			<point x="59" y="484" type="line"/>
			<point x="30" y="388" type="line"/>
			<point x="318" y="0" type="line"/>
			<point x="388" y="34" type="line"/>
		</contour>
		<contour>
			<point x="737" y="467" type="line"/>
			<point x="701" y="349" type="line"/>
			<point x="1058" y="820" type="line"/>
			<point x="1002" y="872" type="line"/>
			<point x="487" y="484" type="line"/>
			<point x="458" y="388" type="line"/>
			<point x="746" y="0" type="line"/>
			<point x="816" y="34" type="line"/>
		</contour>
	</outline>
</glyph>
<glyph name="logicalnot" format="2">
	<unicode hex="00AC"/>
	<advance width="1000"/>
	<outline>
		<contour>
			<point x="177" y="678" type="line"/>
			<point x="133" y="534" type="line"/>
			<point x="753" y="534" type="line"/>
			<point x="649" y="194" type="line"/>
			<point x="803" y="194" type="line"/>
			<point x="951" y="678" type="line"/>
		</contour>
	</outline>
</glyph>
<glyph name="registered" format="2">
	<unicode hex="00AE"/>
	<advance width="1110"/>
	<outline>
		<contour>
			<point x="897" y="751" type="line"/>
			<point x="868" y="751"/>
			<point x="865" y="756"/>
			<point x="868" y="795" type="curve" smooth="yes"/>
			<point x="873" y="858" type="line" smooth="yes"/>
			<point x="878" y="922"/>
			<point x="856" y="950"/>
			<point x="785" y="953" type="curve"/>
			<point x="793" y="948" type="line"/>
			<point x="911" y="949"/>
			<point x="967" y="1001"/>
			<point x="967" y="1076" type="curve" smooth="yes"/>
			<point x="967" y="1123"/>
			<point x="936" y="1166"/>
			<point x="844" y="1166" type="curve" smooth="yes"/>
			<point x="700" y="1166" type="line"/>
			<point x="700" y="1106" type="line"/>
			<point x="783" y="1106" type="line" smooth="yes"/>
			<point x="810" y="1106"/>
			<point x="823" y="1092"/>
			<point x="823" y="1065" type="curve" smooth="yes"/>
			<point x="823" y="1012"/>
			<point x="791" y="967"/>
			<point x="741" y="967" type="curve" smooth="yes"/>
			<point x="639" y="967" type="line"/>
			<point x="622" y="904" type="line"/>
			<point x="695" y="904" type="line" smooth="yes"/>
			<point x="737" y="904"/>
			<point x="741" y="888"/>
			<point x="738" y="862" type="curve" smooth="yes"/>
			<point x="733" y="812" type="line" smooth="yes"/>
			<point x="724" y="718"/>
			<point x="735" y="701"/>
			<point x="887" y="718" type="curve"/>
		</contour>
		<contour>
			<point x="749" y="1166" type="line"/>
			<point x="558" y="1166" type="line"/>
			<point x="548" y="1134" type="line"/>
			<point x="587" y="1114" type="line"/>
			<point x="482" y="771" type="line"/>
			<point x="431" y="751" type="line"/>
			<point x="421" y="717" type="line"/>
			<point x="656" y="717" type="line"/>
			<point x="666" y="751" type="line"/>
			<point x="628" y="771" type="line"/>
		</contour>
		<contour>
			<point x="662" y="584" type="curve" smooth="yes"/>
			<point x="466" y="584"/>
			<point x="346" y="695"/>
			<point x="346" y="883" type="curve" smooth="yes"/>
			<point x="346" y="1106"/>
			<point x="504" y="1282"/>
			<point x="745" y="1282" type="curve" smooth="yes"/>
			<point x="941" y="1282"/>
			<point x="1061" y="1171"/>
			<point x="1061" y="983" type="curve" smooth="yes"/>
			<point x="1061" y="760"/>
			<point x="903" y="584"/>
		</contour>
		<contour>
			<point x="756" y="1370" type="curve" smooth="yes"/>
			<point x="454" y="1370"/>
			<point x="248" y="1154"/>
			<point x="248" y="870" type="curve" smooth="yes"/>
			<point x="248" y="646"/>
			<point x="407" y="496"/>
			<point x="651" y="496" type="curve" smooth="yes"/>
			<point x="953" y="496"/>
			<point x="1159" y="713"/>
			<point x="1159" y="996" type="curve" smooth="yes"/>
			<point x="1159" y="1220"/>
			<point x="1000" y="1370"/>
		</contour>
	</outline>
</glyph>
<glyph name="degree" format="2">
	<unicode hex="00B0"/>
	<advance width="740"/>
	<outline>
		<contour>
			<point x="591" y="1360" type="curve" smooth="yes"/>
			<point x="377" y="1360"/>
			<point x="236" y="1195"/>
			<point x="236" y="1001" type="curve" smooth="yes"/>
			<point x="236" y="840"/>
			<point x="342" y="740"/>
			<point x="514" y="740" type="curve" smooth="yes"/>
			<point x="728" y="740"/>
			<point x="869" y="905"/>
			<point x="869" y="1099" type="curve" smooth="yes"/>
			<point x="869" y="1260"/>
			<point x="763" y="1360"/>
		</contour>
		<contour>
			<point x="525" y="839" type="curve" smooth="yes"/>
			<point x="406" y="839"/>
			<point x="342" y="897"/>
			<point x="342" y="1010" type="curve" smooth="yes"/>
			<point x="342" y="1139"/>
			<point x="424" y="1260"/>
			<point x="582" y="1260" type="curve" smooth="yes"/>
			<point x="699" y="1260"/>
			<point x="763" y="1203"/>
			<point x="763" y="1090" type="curve" smooth="yes"/>
			<point x="763" y="961"/>
			<point x="681" y="840"/>
		</contour>
	</outline>
</glyph>
<glyph name="plusminus" format="2">
	<unicode hex="00B1"/>
	<advance width="1000"/>
	<outline>
		<contour>
			<point x="555" y="872" type="line"/>
			<point x="319" y="98" type="line"/>
			<point x="473" y="98" type="line"/>
			<point x="709" y="872" type="line"/>
		</contour>
		<contour>
			<point x="149" y="557" type="line"/>
			<point x="105" y="413" type="line"/>
			<point x="879" y="413" type="line"/>
			<point x="923" y="557" type="line"/>
		</contour>
		<contour>
			<point x="24" y="144" type="line"/>
			<point x="-20" y="0" type="line"/>
			<point x="754" y="0" type="line"/>
			<point x="798" y="144" type="line"/>
		</contour>
	</outline>
</glyph>
<glyph name="uni00B2" format="2">
  <advance width="735"/>
  <unicode hex="00B2"/>
  <outline>
    <contour>
      <point x="554.0" y="688.0" type="line"/>
      <point x="780.0" y="799.0" type="line"/>
      <point x="369.0" y="799.0" type="line"/>
      <point x="336.0" y="748.0" type="line"/>
      <point x="461.0" y="813.0" type="line" smooth="yes"/>
      <point x="741.0" y="959.0"/>
      <point x="819.0" y="1050.0"/>
      <point x="819.0" y="1171.0" type="curve" smooth="yes"/>
      <point x="819.0" y="1288.0"/>
      <point x="735.0" y="1360.0"/>
      <point x="588.0" y="1360.0" type="curve" smooth="yes"/>
      <point x="403.0" y="1360.0"/>
      <point x="293.0" y="1259.0"/>
      <point x="226.0" y="1059.0" type="curve"/>
      <point x="292.0" y="1034.0" type="line"/>
      <point x="336.0" y="1132.0"/>
      <point x="390.0" y="1169.0"/>
      <point x="458.0" y="1169.0" type="curve" smooth="yes"/>
      <point x="521.0" y="1169.0"/>
      <point x="555.0" y="1135.0"/>
      <point x="555.0" y="1083.0" type="curve" smooth="yes"/>
      <point x="555.0" y="1020.0"/>
      <point x="508.0" y="939.0"/>
      <point x="367.0" y="829.0" type="curve" smooth="yes"/>
      <point x="150.0" y="659.0" type="line"/>
      <point x="130.0" y="592.0" type="line"/>
      <point x="595.0" y="592.0" type="line"/>
      <point x="663.0" y="559.0" type="line"/>
      <point x="686.0" y="559.0" type="line"/>
      <point x="850.0" y="907.0" type="line"/>
      <point x="813.0" y="907.0" type="line"/>
    </contour>
  </outline>
</glyph>
<glyph name="uni00B3" format="2">
	<unicode hex="00B3"/>
	<advance width="680"/>
	<outline>
		<contour>
			<point x="359" y="921" type="line"/>
			<point x="396" y="927" type="line" smooth="yes"/>
			<point x="495.0714285714" y="942.6428571429"/>
			<point x="529" y="920"/>
			<point x="529" y="862" type="curve" smooth="yes"/>
			<point x="529" y="742"/>
			<point x="460" y="661"/>
			<point x="362" y="661" type="curve" smooth="yes"/>
			<point x="270" y="661"/>
			<point x="266" y="766"/>
			<point x="189" y="766" type="curve" smooth="yes"/>
			<point x="137" y="766"/>
			<point x="112" y="730"/>
			<point x="112" y="688" type="curve" smooth="yes"/>
			<point x="112" y="630"/>
			<point x="166" y="572"/>
			<point x="352" y="572" type="curve" smooth="yes"/>
			<point x="602" y="572"/>
			<point x="771" y="706"/>
			<point x="771" y="869" type="curve" smooth="yes"/>
			<point x="771" y="972"/>
			<point x="688" y="1044"/>
			<point x="563" y="1036" type="curve"/>
			<point x="564" y="1032" type="line"/>
			<point x="710" y="1049"/>
			<point x="780" y="1128"/>
			<point x="780" y="1218" type="curve" smooth="yes"/>
			<point x="780" y="1296"/>
			<point x="721" y="1367"/>
			<point x="596" y="1367" type="curve" smooth="yes"/>
			<point x="427" y="1367"/>
			<point x="331" y="1288"/>
			<point x="272" y="1122" type="curve"/>
			<point x="332" y="1097" type="line"/>
			<point x="369" y="1176"/>
			<point x="409" y="1207"/>
			<point x="477" y="1207" type="curve" smooth="yes"/>
			<point x="526" y="1207"/>
			<point x="560" y="1181"/>
			<point x="560" y="1135" type="curve" smooth="yes"/>
			<point x="560" y="1071"/>
			<point x="521" y="1025"/>
			<point x="348" y="988" type="curve"/>
		</contour>
	</outline>
</glyph>
<glyph name="uni00B5" format="2">
  <advance width="1236"/>
  <unicode hex="00B5"/>
  <outline>
    <contour>
      <point x="687.0" y="506.0" type="line" smooth="yes"/>
      <point x="623.0" y="297.0"/>
      <point x="540.0" y="198.0"/>
      <point x="473.0" y="198.0" type="curve" smooth="yes"/>
      <point x="442.0" y="198.0"/>
      <point x="422.0" y="217.0"/>
      <point x="422.0" y="243.0" type="curve" smooth="yes"/>
      <point x="422.0" y="264.0"/>
      <point x="429.0" y="299.0"/>
      <point x="449.0" y="361.0" type="curve" smooth="yes"/>
      <point x="617.0" y="872.0" type="line"/>
      <point x="288.0" y="872.0" type="line"/>
      <point x="-137.0" y="-520.0" type="line"/>
      <point x="-81.0" y="-520.0" type="line"/>
      <point x="116.0" y="-487.0" type="line"/>
      <point x="132.0" y="143.0" type="line"/>
      <point x="76.0" y="141.0" type="line"/>
      <point x="76.0" y="41.0"/>
      <point x="133.0" y="-30.0"/>
      <point x="276.0" y="-30.0" type="curve" smooth="yes"/>
      <point x="479.0" y="-30.0"/>
      <point x="621.0" y="146.0"/>
      <point x="766.0" y="494.0" type="curve"/>
      <point x="734.0" y="522.0" type="line"/>
      <point x="614.0" y="93.0" type="line" smooth="yes"/>
      <point x="589.0" y="2.0"/>
      <point x="624.0" y="-30.0"/>
      <point x="729.0" y="-30.0" type="curve" smooth="yes"/>
      <point x="856.0" y="-30.0"/>
      <point x="1025.0" y="80.0"/>
      <point x="1161.0" y="288.0" type="curve"/>
      <point x="1115.0" y="328.0" type="line"/>
      <point x="1007.0" y="212.0"/>
      <point x="926.0" y="169.0"/>
      <point x="835.0" y="162.0" type="curve"/>
      <point x="886.0" y="73.0" type="line"/>
      <point x="1128.0" y="872.0" type="line"/>
      <point x="800.0" y="872.0" type="line"/>
    </contour>
  </outline>
</glyph>
<glyph name="paragraph" format="2">
	<unicode hex="00B6"/>
	<advance width="1267"/>
	<outline>
		<contour>
			<point x="545" y="-250" type="line"/>
			<point x="994" y="1221" type="line"/>
			<point x="1166" y="1221" type="line"/>
			<point x="1203" y="1340" type="line"/>
			<point x="902" y="1340" type="line"/>
			<point x="415" y="-250" type="line"/>
		</contour>
		<contour>
			<point x="823" y="-250" type="line"/>
			<point x="1276" y="1230" type="line"/>
			<point x="1462" y="1286" type="line"/>
			<point x="1478" y="1340" type="line"/>
			<point x="1180" y="1340" type="line"/>
			<point x="694" y="-250" type="line"/>
		</contour>
		<contour>
			<point x="960" y="1340" type="line"/>
			<point x="729" y="1340" type="line" smooth="yes"/>
			<point x="360" y="1340"/>
			<point x="200" y="1093.9008986838"/>
			<point x="200" y="853" type="curve" smooth="yes"/>
			<point x="200" y="707"/>
			<point x="285" y="597"/>
			<point x="518" y="597" type="curve" smooth="yes"/>
			<point x="733" y="597" type="line"/>
		</contour>
	</outline>
</glyph>
<glyph name="uni00B9" format="2">
	<unicode hex="00B9"/>
	<advance width="557"/>
	<outline>
		<contour>
			<point x="267" y="667" type="line"/>
			<point x="146" y="633" type="line"/>
			<point x="133" y="592" type="line"/>
			<point x="582" y="592" type="line"/>
			<point x="594" y="633" type="line"/>
			<point x="501" y="667" type="line"/>
			<point x="707" y="1340" type="line"/>
			<point x="563" y="1340" type="line"/>
			<point x="237" y="1186" type="line"/>
			<point x="254" y="1130" type="line"/>
			<point x="498" y="1198" type="line"/>
			<point x="454" y="1278" type="line"/>
		</contour>
	</outline>
</glyph>
<glyph name="ordmasculine" format="2">
	<unicode hex="00BA"/>
	<advance width="939"/>
	<outline>
		<contour>
			<point x="122" y="443" type="line"/>
			<point x="825" y="443" type="line"/>
			<point x="866" y="575" type="line"/>
			<point x="162" y="575" type="line"/>
		</contour>
		<contour>
			<point x="728" y="1360" type="curve" smooth="yes"/>
			<point x="470" y="1360"/>
			<point x="257" y="1181"/>
			<point x="257" y="938" type="curve" smooth="yes"/>
			<point x="257" y="778"/>
			<point x="362" y="670"/>
			<point x="569" y="670" type="curve" smooth="yes"/>
			<point x="826" y="670"/>
			<point x="1039" y="849"/>
			<point x="1039" y="1092" type="curve" smooth="yes"/>
			<point x="1039" y="1252"/>
			<point x="934" y="1360"/>
		</contour>
		<contour>
			<point x="573" y="770" type="curve" smooth="yes"/>
			<point x="536" y="770"/>
			<point x="513" y="788"/>
			<point x="513" y="856" type="curve" smooth="yes"/>
			<point x="513" y="1036"/>
			<point x="623" y="1261"/>
			<point x="723" y="1261" type="curve" smooth="yes"/>
			<point x="760" y="1261"/>
			<point x="783" y="1243"/>
			<point x="783" y="1175" type="curve" smooth="yes"/>
			<point x="783" y="995"/>
			<point x="673" y="770"/>
		</contour>
	</outline>
</glyph>
<glyph name="guillemotright" format="2">
	<unicode hex="00BB"/>
	<advance width="1043"/>
	<outline>
		<contour>
			<point x="277" y="405" type="line"/>
			<point x="313" y="523" type="line"/>
			<point x="-44" y="52" type="line"/>
			<point x="12" y="0" type="line"/>
			<point x="527" y="388" type="line"/>
			<point x="556" y="484" type="line"/>
			<point x="268" y="872" type="line"/>
			<point x="198" y="838" type="line"/>
		</contour>
		<contour>
			<point x="705" y="405" type="line"/>
			<point x="741" y="523" type="line"/>
			<point x="384" y="52" type="line"/>
			<point x="440" y="0" type="line"/>
			<point x="955" y="388" type="line"/>
			<point x="984" y="484" type="line"/>
			<point x="696" y="872" type="line"/>
			<point x="626" y="838" type="line"/>
		</contour>
	</outline>
</glyph>
<glyph name="questiondown" format="2">
	<unicode hex="00BF"/>
	<advance width="1024"/>
	<outline>
		<contour>
			<point x="644" y="513" type="curve" smooth="yes"/>
			<point x="763" y="513"/>
			<point x="857" y="604"/>
			<point x="857" y="729" type="curve" smooth="yes"/>
			<point x="857" y="818"/>
			<point x="803" y="886"/>
			<point x="701" y="886" type="curve" smooth="yes"/>
			<point x="582" y="886"/>
			<point x="488" y="795"/>
			<point x="488" y="670" type="curve" smooth="yes"/>
			<point x="488" y="581"/>
			<point x="542" y="513"/>
		</contour>
		<contour>
			<point x="478" y="-508" type="curve" smooth="yes"/>
			<point x="670" y="-508"/>
			<point x="751" y="-434"/>
			<point x="751" y="-349" type="curve" smooth="yes"/>
			<point x="751" y="-282"/>
			<point x="696" y="-233"/>
			<point x="638" y="-233" type="curve" smooth="yes"/>
			<point x="503" y="-233"/>
			<point x="443" y="-366"/>
			<point x="321" y="-366" type="curve" smooth="yes"/>
			<point x="232" y="-366"/>
			<point x="155" y="-302"/>
			<point x="155" y="-219" type="curve" smooth="yes"/>
			<point x="155" y="-88"/>
			<point x="242" y="-15"/>
			<point x="530" y="-30" type="curve"/>
			<point x="612" y="360" type="line"/>
			<point x="553" y="360" type="line"/>
			<point x="380" y="69" type="line"/>
			<point x="536" y="250" type="line"/>
			<point x="138" y="280"/>
			<point x="-5" y="149"/>
			<point x="-5" y="-102" type="curve" smooth="yes"/>
			<point x="-5" y="-319"/>
			<point x="151" y="-508"/>
		</contour>
	</outline>
</glyph>
<glyph name="AE" format="2">
	<unicode hex="00C6"/>
	<advance width="2026"/>
	<outline>
		<contour>
			<point x="152" y="102" type="line"/>
			<point x="1160" y="1241" type="line"/>
			<point x="1149" y="1248" type="line"/>
			<point x="798" y="103" type="line"/>
			<point x="650" y="44" type="line"/>
			<point x="637" y="0" type="line"/>
			<point x="1137" y="0" type="line"/>
			<point x="1546" y="1340" type="line"/>
			<point x="829" y="1340" type="line"/>
			<point x="816" y="1296" type="line"/>
			<point x="998" y="1219" type="line"/>
			<point x="9" y="102" type="line"/>
			<point x="-145" y="44" type="line"/>
			<point x="-159" y="0" type="line"/>
			<point x="272" y="0" type="line"/>
			<point x="286" y="44" type="line"/>
		</contour>
		<contour>
			<point x="1704" y="-81" type="line"/>
			<point x="1745" y="-81" type="line"/>
			<point x="1997" y="430" type="line"/>
			<point x="1943" y="458" type="line"/>
			<point x="1557" y="82" type="line"/>
			<point x="1665" y="128" type="line"/>
			<point x="998" y="128" type="line"/>
			<point x="955" y="0" type="line"/>
			<point x="1598" y="0" type="line"/>
		</contour>
		<contour>
			<point x="391" y="419" type="line"/>
			<point x="955" y="419" type="line"/>
			<point x="996" y="543" type="line"/>
			<point x="432" y="543" type="line"/>
		</contour>
		<contour>
			<point x="1556" y="441" type="line"/>
			<point x="1661" y="441" type="line"/>
			<point x="1741" y="703" type="line"/>
			<point x="1821" y="965" type="line"/>
			<point x="1716" y="965" type="line"/>
			<point x="1634" y="767" type="line"/>
			<point x="1189" y="767" type="line"/>
			<point x="1151" y="639" type="line"/>
			<point x="1596" y="639" type="line"/>
		</contour>
		<contour>
			<point x="2023" y="935" type="line"/>
			<point x="2088" y="935" type="line"/>
			<point x="2147" y="1416" type="line"/>
			<point x="2111" y="1416" type="line"/>
			<point x="1957" y="1340" type="line"/>
			<point x="1365" y="1340" type="line"/>
			<point x="1323" y="1212" type="line"/>
			<point x="1971" y="1212" type="line"/>
			<point x="1927" y="1262" type="line"/>
		</contour>
	</outline>
	<anchor name="UCtop" x="1350" y="1340"/>
	<anchor name="bottom" x="977" y="0"/>
</glyph>
<glyph name="Ccedilla" format="2">
	<unicode hex="00C7"/>
	<advance width="1392"/>
	<outline>
		<contour>
			<point x="1048" y="142" type="line"/>
			<point x="978" y="121"/>
			<point x="920" y="113"/>
			<point x="875" y="113" type="curve" smooth="yes"/>
			<point x="658" y="113"/>
			<point x="502" y="261"/>
			<point x="502" y="525" type="curve" smooth="yes"/>
			<point x="502" y="949"/>
			<point x="764" y="1232"/>
			<point x="1094" y="1232" type="curve" smooth="yes"/>
			<point x="1193" y="1232"/>
			<point x="1258" y="1194"/>
			<point x="1326" y="1132" type="curve"/>
			<point x="1222" y="1276" type="line"/>
			<point x="1377" y="890" type="line"/>
			<point x="1444" y="890" type="line"/>
			<point x="1458" y="1418" type="line"/>
			<point x="1413" y="1418" type="line"/>
			<point x="1261" y="1302" type="line"/>
			<point x="1446" y="1314" type="line"/>
			<point x="1326" y="1359"/>
			<point x="1214" y="1370"/>
			<point x="1085" y="1370" type="curve" smooth="yes"/>
			<point x="534" y="1370"/>
			<point x="125" y="1018"/>
			<point x="125" y="511" type="curve" smooth="yes"/>
			<point x="125" y="184"/>
			<point x="362" y="-30"/>
			<point x="770" y="-30" type="curve" smooth="yes"/>
			<point x="910" y="-30"/>
			<point x="1070" y="3"/>
			<point x="1188" y="32" type="curve"/>
			<point x="1334" y="405" type="line"/>
			<point x="1260" y="405" type="line"/>
			<point x="966" y="81" type="line"/>
		</contour>
		<contour>
			<point x="580" y="-444" type="curve" smooth="yes"/>
			<point x="504" y="-444"/>
			<point x="490" y="-369"/>
			<point x="436" y="-369" type="curve" smooth="yes"/>
			<point x="393" y="-369"/>
			<point x="369" y="-401"/>
			<point x="369" y="-435" type="curve" smooth="yes"/>
			<point x="369" y="-488"/>
			<point x="426" y="-530"/>
			<point x="527" y="-530" type="curve" smooth="yes"/>
			<point x="709" y="-530"/>
			<point x="824" y="-405"/>
			<point x="824" y="-282" type="curve" smooth="yes"/>
			<point x="824" y="-204"/>
			<point x="769" y="-136"/>
			<point x="606" y="-94" type="curve"/>
			<point x="576" y="-225" type="line"/>
			<point x="820" y="49" type="line"/>
			<point x="726" y="49" type="line"/>
			<point x="465" y="-239" type="line"/>
			<point x="462" y="-250" type="line"/>
			<point x="631" y="-288"/>
			<point x="667" y="-325"/>
			<point x="667" y="-365" type="curve" smooth="yes"/>
			<point x="667" y="-410"/>
			<point x="634" y="-444"/>
		</contour>
	</outline>
</glyph>
<glyph name="multiply" format="2">
  <advance width="1000"/>
  <unicode hex="00D7"/>
  <outline>
    <contour>
      <point x="66.0" y="190.0" type="line"/>
      <point x="140.0" y="82.0" type="line"/>
      <point x="936.0" y="682.0" type="line"/>
      <point x="862.0" y="790.0" type="line"/>
    </contour>
    <contour>
      <point x="228.0" y="693.0" type="line"/>
      <point x="646.0" y="82.0" type="line"/>
      <point x="774.0" y="179.0" type="line"/>
      <point x="356.0" y="790.0" type="line"/>
    </contour>
  </outline>
</glyph>
<glyph name="Oslash" format="2">
	<unicode hex="00D8"/>
	<advance width="1545"/>
	<outline>
		<contour>
			<point x="1752" y="1340" type="line"/>
			<point x="1560" y="1340" type="line"/>
			<point x="1356" y="1172" type="line"/>
			<point x="1252" y="1095" type="line"/>
			<point x="371" y="343" type="line"/>
			<point x="262" y="267" type="line"/>
			<point x="-63" y="0" type="line"/>
			<point x="129" y="0" type="line"/>
			<point x="333" y="168" type="line"/>
			<point x="435" y="243" type="line"/>
			<point x="1316" y="995" type="line"/>
			<point x="1427" y="1073" type="line"/>
		</contour>
		<contour>
			<point x="481" y="377" type="curve" smooth="yes"/>
			<point x="481" y="762"/>
			<point x="700" y="1233"/>
			<point x="1005" y="1233" type="curve" smooth="yes"/>
			<point x="1132" y="1233"/>
			<point x="1208" y="1160"/>
			<point x="1208" y="963" type="curve" smooth="yes"/>
			<point x="1208" y="578"/>
			<point x="989" y="107"/>
			<point x="684" y="107" type="curve" smooth="yes"/>
			<point x="557" y="107"/>
			<point x="481" y="180"/>
		</contour>
		<contour>
			<point x="1559" y="839" type="curve" smooth="yes"/>
			<point x="1559" y="1177"/>
			<point x="1362" y="1370"/>
			<point x="993" y="1370" type="curve" smooth="yes"/>
			<point x="490" y="1370"/>
			<point x="130" y="962"/>
			<point x="130" y="501" type="curve" smooth="yes"/>
			<point x="130" y="163"/>
			<point x="327" y="-30"/>
			<point x="696" y="-30" type="curve" smooth="yes"/>
			<point x="1199" y="-30"/>
			<point x="1559" y="378"/>
		</contour>
	</outline>
	<anchor name="UCtop" x="1051" y="1340"/>
	<anchor name="bottom" x="640" y="0"/>
</glyph>
<glyph name="Thorn" format="2">
	<unicode hex="00DE"/>
	<advance width="1339"/>
	<outline>
		<contour>
			<point x="707" y="421" type="curve" smooth="yes"/>
			<point x="351" y="421" type="line"/>
			<point x="309" y="293" type="line"/>
			<point x="731" y="293" type="line" smooth="yes"/>
			<point x="1174" y="293"/>
			<point x="1371" y="502"/>
			<point x="1371" y="767" type="curve" smooth="yes"/>
			<point x="1371" y="941"/>
			<point x="1254" y="1087"/>
			<point x="903" y="1087" type="curve" smooth="yes"/>
			<point x="553" y="1087" type="line"/>
			<point x="511" y="959" type="line"/>
			<point x="808" y="959" type="line" smooth="yes"/>
			<point x="954" y="959"/>
			<point x="1014" y="889"/>
			<point x="1014" y="779" type="curve" smooth="yes"/>
			<point x="1014" y="576"/>
			<point x="924" y="421"/>
		</contour>
		<contour>
			<point x="440" y="1243" type="line"/>
			<point x="91" y="103" type="line"/>
			<point x="-57" y="44" type="line"/>
			<point x="-70" y="0" type="line"/>
			<point x="563" y="0" type="line"/>
			<point x="576" y="44" type="line"/>
			<point x="459" y="97" type="line"/>
			<point x="808" y="1237" type="line"/>
			<point x="956" y="1296" type="line"/>
			<point x="969" y="1340" type="line"/>
			<point x="336" y="1340" type="line"/>
			<point x="323" y="1296" type="line"/>
		</contour>
	</outline>
</glyph>
<glyph name="ae" format="2">
	<unicode hex="00E6"/>
	<advance width="1558"/>
	<outline>
		<contour>
			<point x="1074" y="757" type="line"/>
			<point x="1109" y="872" type="line"/>
			<point x="882" y="872" type="line"/>
			<point x="780" y="761" type="line"/>
			<point x="640" y="442" type="line" smooth="yes"/>
			<point x="568" y="278"/>
			<point x="461" y="184"/>
			<point x="390" y="184" type="curve" smooth="yes"/>
			<point x="353" y="184"/>
			<point x="344" y="196"/>
			<point x="344" y="239" type="curve" smooth="yes"/>
			<point x="344" y="400"/>
			<point x="527" y="757"/>
			<point x="670" y="757" type="curve" smooth="yes"/>
			<point x="737" y="757"/>
			<point x="772" y="720"/>
			<point x="786" y="677" type="curve"/>
			<point x="844" y="756" type="line"/>
			<point x="774" y="862"/>
			<point x="693" y="898"/>
			<point x="591" y="898" type="curve" smooth="yes"/>
			<point x="279" y="898"/>
			<point x="1" y="481"/>
			<point x="1" y="183" type="curve" smooth="yes"/>
			<point x="1" y="45"/>
			<point x="94" y="-30"/>
			<point x="220" y="-30" type="curve" smooth="yes"/>
			<point x="378" y="-30"/>
			<point x="498" y="52"/>
			<point x="712" y="416" type="curve"/>
			<point x="681" y="416" type="line"/>
			<point x="662" y="122"/>
			<point x="789" y="-30"/>
			<point x="1035" y="-30" type="curve" smooth="yes"/>
			<point x="1233" y="-30"/>
			<point x="1374" y="45"/>
			<point x="1497" y="349" type="curve"/>
			<point x="1431" y="349" type="line"/>
			<point x="1351" y="223"/>
			<point x="1278" y="183"/>
			<point x="1171" y="183" type="curve" smooth="yes"/>
			<point x="1075" y="183"/>
			<point x="1014" y="234"/>
			<point x="1014" y="365" type="curve" smooth="yes"/>
			<point x="1014" y="569"/>
			<point x="1114" y="795"/>
			<point x="1227" y="795" type="curve" smooth="yes"/>
			<point x="1262" y="795"/>
			<point x="1279" y="771"/>
			<point x="1279" y="724" type="curve" smooth="yes"/>
			<point x="1279" y="617"/>
			<point x="1225" y="568"/>
			<point x="924" y="460" type="curve"/>
			<point x="921" y="369" type="line"/>
			<point x="1108" y="407"/>
			<point x="1323" y="464"/>
			<point x="1486" y="532" type="curve"/>
			<point x="1518" y="566"/>
			<point x="1554" y="632"/>
			<point x="1554" y="709" type="curve" smooth="yes"/>
			<point x="1554" y="819"/>
			<point x="1493" y="902"/>
			<point x="1343" y="902" type="curve" smooth="yes"/>
			<point x="1227" y="902"/>
			<point x="1105" y="851"/>
			<point x="1055" y="757" type="curve"/>
		</contour>
	</outline>
	<anchor name="top" x="908" y="872"/>
	<anchor name="bottom" x="642" y="0"/>
</glyph>
<glyph name="ccedilla" format="2">
	<unicode hex="00E7"/>
	<advance width="878"/>
	<outline>
		<contour>
			<point x="214" y="-530" type="curve" smooth="yes"/>
			<point x="396" y="-530"/>
			<point x="511" y="-405"/>
			<point x="511" y="-282" type="curve" smooth="yes"/>
			<point x="511" y="-204"/>
			<point x="456" y="-136"/>
			<point x="293" y="-94" type="curve"/>
			<point x="263" y="-225" type="line"/>
			<point x="507" y="49" type="line"/>
			<point x="413" y="49" type="line"/>
			<point x="152" y="-239" type="line"/>
			<point x="149" y="-250" type="line"/>
			<point x="318" y="-288"/>
			<point x="354" y="-325"/>
			<point x="354" y="-365" type="curve" smooth="yes"/>
			<point x="354" y="-410"/>
			<point x="321" y="-444"/>
			<point x="267" y="-444" type="curve" smooth="yes"/>
			<point x="191" y="-444"/>
			<point x="177" y="-369"/>
			<point x="123" y="-369" type="curve" smooth="yes"/>
			<point x="80" y="-369"/>
			<point x="56" y="-401"/>
			<point x="56" y="-435" type="curve" smooth="yes"/>
			<point x="56" y="-488"/>
			<point x="113" y="-530"/>
		</contour>
		<contour>
			<point x="569" y="792" type="curve" smooth="yes"/>
			<point x="608" y="792"/>
			<point x="644" y="763"/>
			<point x="684" y="695" type="curve" smooth="yes"/>
			<point x="724" y="627"/>
			<point x="738" y="611"/>
			<point x="753" y="611" type="curve" smooth="yes"/>
			<point x="845" y="611"/>
			<point x="905" y="658"/>
			<point x="905" y="735" type="curve" smooth="yes"/>
			<point x="905" y="829"/>
			<point x="827" y="902"/>
			<point x="635" y="902" type="curve" smooth="yes"/>
			<point x="329" y="902"/>
			<point x="39" y="666"/>
			<point x="39" y="315" type="curve" smooth="yes"/>
			<point x="39" y="103"/>
			<point x="158" y="-30"/>
			<point x="383" y="-30" type="curve" smooth="yes"/>
			<point x="581" y="-30"/>
			<point x="710" y="54"/>
			<point x="824" y="349" type="curve"/>
			<point x="758" y="349" type="line"/>
			<point x="682" y="223"/>
			<point x="614" y="183"/>
			<point x="526" y="183" type="curve" smooth="yes"/>
			<point x="421" y="183"/>
			<point x="378" y="234"/>
			<point x="378" y="365" type="curve" smooth="yes"/>
			<point x="378" y="606"/>
			<point x="475" y="792"/>
		</contour>
	</outline>
</glyph>
<glyph name="eth" format="2">
  <advance width="1047"/>
  <unicode hex="00F0"/>
  <outline>
    <contour>
      <point x="776.0" y="736.0" type="line"/>
      <point x="770.0" y="842.0"/>
      <point x="710.0" y="902.0"/>
      <point x="592.0" y="902.0" type="curve" smooth="yes"/>
      <point x="304.0" y="902.0"/>
      <point x="44.0" y="660.0"/>
      <point x="44.0" y="332.0" type="curve" smooth="yes"/>
      <point x="44.0" y="116.0"/>
      <point x="172.0" y="-30.0"/>
      <point x="424.0" y="-30.0" type="curve" smooth="yes"/>
      <point x="702.0" y="-30.0"/>
      <point x="936.0" y="161.0"/>
      <point x="1004.0" y="517.0" type="curve" smooth="yes"/>
      <point x="1078.0" y="905.0"/>
      <point x="990.0" y="1321.0"/>
      <point x="394.0" y="1429.0" type="curve"/>
      <point x="367.0" y="1335.0" type="line"/>
      <point x="668.0" y="1251.0"/>
      <point x="756.0" y="1062.0"/>
      <point x="734.0" y="736.0" type="curve"/>
    </contour>
    <contour>
      <point x="421.0" y="77.0" type="curve" smooth="yes"/>
      <point x="382.0" y="77.0"/>
      <point x="361.0" y="100.0"/>
      <point x="361.0" y="188.0" type="curve" smooth="yes"/>
      <point x="361.0" y="458.0"/>
      <point x="514.0" y="795.0"/>
      <point x="621.0" y="795.0" type="curve" smooth="yes"/>
      <point x="660.0" y="795.0"/>
      <point x="681.0" y="772.0"/>
      <point x="681.0" y="684.0" type="curve" smooth="yes"/>
      <point x="681.0" y="414.0"/>
      <point x="528.0" y="77.0"/>
    </contour>
    <contour>
      <point x="398.0" y="959.0" type="line"/>
      <point x="1067.0" y="1342.0" type="line"/>
      <point x="1024.0" y="1429.0" type="line"/>
      <point x="354.0" y="1046.0" type="line"/>
    </contour>
  </outline>
</glyph>
<glyph name="divide" format="2">
	<unicode hex="00F7"/>
	<advance width="1000"/>
	<outline>
		<contour>
			<point x="135" y="508" type="line"/>
			<point x="91" y="364" type="line"/>
			<point x="865" y="364" type="line"/>
			<point x="909" y="508" type="line"/>
		</contour>
		<contour>
			<point x="595" y="886" type="curve" smooth="yes"/>
			<point x="513" y="886"/>
			<point x="455" y="823"/>
			<point x="455" y="747" type="curve" smooth="yes"/>
			<point x="455" y="671"/>
			<point x="513" y="608"/>
			<point x="595" y="608" type="curve" smooth="yes"/>
			<point x="677" y="608"/>
			<point x="735" y="671"/>
			<point x="735" y="747" type="curve" smooth="yes"/>
			<point x="735" y="823"/>
			<point x="677" y="886"/>
		</contour>
		<contour>
			<point x="405" y="264" type="curve" smooth="yes"/>
			<point x="323" y="264"/>
			<point x="265" y="201"/>
			<point x="265" y="125" type="curve" smooth="yes"/>
			<point x="265" y="49"/>
			<point x="323" y="-14"/>
			<point x="405" y="-14" type="curve" smooth="yes"/>
			<point x="487" y="-14"/>
			<point x="545" y="49"/>
			<point x="545" y="125" type="curve" smooth="yes"/>
			<point x="545" y="201"/>
			<point x="487" y="264"/>
		</contour>
	</outline>
</glyph>
<glyph name="oslash" format="2">
	<unicode hex="00F8"/>
	<advance width="1070"/>
	<outline>
		<contour>
			<point x="632" y="902" type="curve" smooth="yes"/>
			<point x="318" y="902"/>
			<point x="58" y="660"/>
			<point x="58" y="332" type="curve" smooth="yes"/>
			<point x="58" y="116"/>
			<point x="186" y="-30"/>
			<point x="438" y="-30" type="curve" smooth="yes"/>
			<point x="752" y="-30"/>
			<point x="1012" y="212"/>
			<point x="1012" y="540" type="curve" smooth="yes"/>
			<point x="1012" y="756"/>
			<point x="884" y="902"/>
		</contour>
		<contour>
			<point x="435" y="77" type="curve" smooth="yes"/>
			<point x="396" y="77"/>
			<point x="375" y="100"/>
			<point x="375" y="188" type="curve" smooth="yes"/>
			<point x="375" y="458"/>
			<point x="528" y="795"/>
			<point x="635" y="795" type="curve" smooth="yes"/>
			<point x="674" y="795"/>
			<point x="695" y="772"/>
			<point x="695" y="684" type="curve" smooth="yes"/>
			<point x="695" y="414"/>
			<point x="542" y="77"/>
		</contour>
		<contour>
			<point x="981" y="872" type="line"/>
			<point x="832" y="751" type="line"/>
			<point x="734" y="691" type="line"/>
			<point x="263" y="261" type="line"/>
			<point x="169" y="214" type="line"/>
			<point x="-95" y="0" type="line"/>
			<point x="89" y="0" type="line"/>
			<point x="238" y="121" type="line"/>
			<point x="336" y="181" type="line"/>
			<point x="807" y="611" type="line"/>
			<point x="901" y="658" type="line"/>
			<point x="1165" y="872" type="line"/>
		</contour>
	</outline>
	<anchor name="top" x="668" y="872"/>
	<anchor name="bottom" x="402" y="0"/>
</glyph>
<glyph name="thorn" format="2">
	<unicode hex="00FE"/>
	<advance width="1103"/>
	<outline>
		<contour>
			<point x="389" y="314" type="curve" smooth="yes"/>
			<point x="399" y="355" type="line" smooth="yes"/>
			<point x="435" y="502"/>
			<point x="556" y="672"/>
			<point x="635" y="672" type="curve" smooth="yes"/>
			<point x="691" y="672"/>
			<point x="707" y="631"/>
			<point x="707" y="557" type="curve" smooth="yes"/>
			<point x="707" y="317"/>
			<point x="557" y="75"/>
			<point x="453" y="75" type="curve" smooth="yes"/>
			<point x="400" y="75"/>
			<point x="369" y="109"/>
			<point x="369" y="184" type="curve" smooth="yes"/>
			<point x="369" y="219"/>
			<point x="376" y="262"/>
		</contour>
		<contour>
			<point x="421" y="493" type="line"/>
			<point x="745" y="1429" type="line"/>
			<point x="706" y="1429" type="line"/>
			<point x="237" y="1354" type="line"/>
			<point x="220" y="1297" type="line"/>
			<point x="273" y="1257"/>
			<point x="310" y="1225"/>
			<point x="343" y="1180" type="curve"/>
			<point x="-134" y="-404" type="line"/>
			<point x="-257" y="-459" type="line"/>
			<point x="-270" y="-500" type="line"/>
			<point x="311" y="-500" type="line"/>
			<point x="325" y="-458" type="line"/>
			<point x="208" y="-405" type="line"/>
			<point x="353" y="89" type="line"/>
			<point x="198" y="89" type="line"/>
			<point x="239" y="10"/>
			<point x="346" y="-30"/>
			<point x="505" y="-30" type="curve" smooth="yes"/>
			<point x="847" y="-30"/>
			<point x="1077" y="302"/>
			<point x="1077" y="618" type="curve" smooth="yes"/>
			<point x="1077" y="795"/>
			<point x="962" y="902"/>
			<point x="823" y="902" type="curve" smooth="yes"/>
			<point x="659" y="902"/>
			<point x="528" y="777"/>
			<point x="390" y="484" type="curve"/>
		</contour>
	</outline>
</glyph>
<glyph name="Aogonek" format="2">
	<unicode hex="0104"/>
	<advance width="1499"/>
	<outline>
		<contour>
			<point x="321" y="414" type="line"/>
			<point x="975" y="414" type="line"/>
			<point x="1016" y="538" type="line"/>
			<point x="362" y="538" type="line"/>
		</contour>
		<contour>
			<point x="1289" y="111" type="line"/>
			<point x="1144" y="1340" type="line"/>
			<point x="881" y="1340" type="line"/>
			<point x="23" y="102" type="line"/>
			<point x="-131" y="44" type="line"/>
			<point x="-145" y="0" type="line"/>
			<point x="292" y="0" type="line"/>
			<point x="306" y="44" type="line"/>
			<point x="172" y="102" type="line"/>
			<point x="885" y="1152" type="line"/>
			<point x="825" y="1144" type="line"/>
			<point x="931" y="107" type="line"/>
			<point x="766" y="44" type="line"/>
			<point x="751" y="0" type="line"/>
			<point x="1404" y="0" type="line"/>
			<point x="1418" y="44" type="line"/>
		</contour>
		<contour>
			<point x="961" y="-307" type="curve" smooth="yes"/>
			<point x="961" y="-245"/>
			<point x="986" y="-179"/>
			<point x="1130" y="-29" type="curve" smooth="yes"/>
			<point x="1202" y="46" type="line"/>
			<point x="1122" y="46" type="line"/>
			<point x="987" y="-76" type="line" smooth="yes"/>
			<point x="796" y="-249"/>
			<point x="781" y="-317"/>
			<point x="781" y="-380" type="curve" smooth="yes"/>
			<point x="781" y="-461"/>
			<point x="833" y="-530"/>
			<point x="927" y="-530" type="curve" smooth="yes"/>
			<point x="1020" y="-530"/>
			<point x="1082" y="-497"/>
			<point x="1201" y="-388" type="curve"/>
			<point x="1170" y="-338" type="line"/>
			<point x="1114" y="-374"/>
			<point x="1081" y="-388"/>
			<point x="1040" y="-388" type="curve" smooth="yes"/>
			<point x="986" y="-388"/>
			<point x="961" y="-354"/>
		</contour>
	</outline>
</glyph>
<glyph name="aogonek" format="2">
  <advance width="1176"/>
  <unicode hex="0105"/>
  <outline>
    <contour>
      <point x="1160.0" y="288.0" type="curve"/>
      <point x="1114.0" y="328.0" type="line"/>
      <point x="1006.0" y="212.0"/>
      <point x="925.0" y="169.0"/>
      <point x="834.0" y="162.0" type="curve"/>
      <point x="885.0" y="72.0" type="line"/>
      <point x="1144.0" y="872.0" type="line"/>
      <point x="882.0" y="872.0" type="line"/>
      <point x="780.0" y="761.0" type="line"/>
      <point x="640.0" y="442.0" type="line" smooth="yes"/>
      <point x="568.0" y="278.0"/>
      <point x="461.0" y="184.0"/>
      <point x="390.0" y="184.0" type="curve" smooth="yes"/>
      <point x="353.0" y="184.0"/>
      <point x="344.0" y="196.0"/>
      <point x="344.0" y="239.0" type="curve" smooth="yes"/>
      <point x="344.0" y="400.0"/>
      <point x="527.0" y="757.0"/>
      <point x="670.0" y="757.0" type="curve" smooth="yes"/>
      <point x="737.0" y="757.0"/>
      <point x="772.0" y="720.0"/>
      <point x="786.0" y="677.0" type="curve"/>
      <point x="844.0" y="756.0" type="line"/>
      <point x="774.0" y="862.0"/>
      <point x="693.0" y="898.0"/>
      <point x="591.0" y="898.0" type="curve" smooth="yes"/>
      <point x="279.0" y="898.0"/>
      <point x="1.0" y="481.0"/>
      <point x="1.0" y="183.0" type="curve" smooth="yes"/>
      <point x="1.0" y="45.0"/>
      <point x="94.0" y="-30.0"/>
      <point x="220.0" y="-30.0" type="curve" smooth="yes"/>
      <point x="365.0" y="-30.0"/>
      <point x="490.0" y="38.0"/>
      <point x="712.0" y="416.0" type="curve"/>
      <point x="685.0" y="416.0" type="line"/>
      <point x="577.0" y="93.0" type="line" smooth="yes"/>
      <point x="547.0" y="3.0"/>
      <point x="590.0" y="-30.0"/>
      <point x="715.0" y="-30.0" type="curve" smooth="yes"/>
      <point x="761.0" y="-30.0"/>
      <point x="807.0" y="-20.0"/>
      <point x="853.0" y="0.0" type="curve"/>
      <point x="834.0" y="25.0" type="line"/>
      <point x="719.0" y="-76.0" type="line" smooth="yes"/>
      <point x="525.0" y="-246.0"/>
      <point x="513.0" y="-317.0"/>
      <point x="513.0" y="-380.0" type="curve" smooth="yes"/>
      <point x="513.0" y="-461.0"/>
      <point x="565.0" y="-530.0"/>
      <point x="659.0" y="-530.0" type="curve" smooth="yes"/>
      <point x="752.0" y="-530.0"/>
      <point x="814.0" y="-497.0"/>
      <point x="933.0" y="-388.0" type="curve"/>
      <point x="902.0" y="-338.0" type="line"/>
      <point x="846.0" y="-374.0"/>
      <point x="813.0" y="-388.0"/>
      <point x="772.0" y="-388.0" type="curve" smooth="yes"/>
      <point x="718.0" y="-388.0"/>
      <point x="693.0" y="-354.0"/>
      <point x="693.0" y="-307.0" type="curve" smooth="yes"/>
      <point x="693.0" y="-245.0"/>
      <point x="710.0" y="-170.0"/>
      <point x="862.0" y="-29.0" type="curve" smooth="yes"/>
      <point x="981.0" y="82.0" type="line" smooth="yes"/>
      <point x="1039.0" y="136.0"/>
      <point x="1101.0" y="202.0"/>
    </contour>
  </outline>
</glyph>
<glyph name="Dcroat" format="2">
	<unicode hex="0110"/>
	<advance width="1522"/>
	<outline>
		<contour>
			<point x="122" y="614" type="line"/>
			<point x="853" y="614" type="line"/>
			<point x="893" y="744" type="line"/>
			<point x="162" y="744" type="line"/>
		</contour>
		<contour>
			<point x="580" y="128" type="curve" smooth="yes"/>
			<point x="314" y="128" type="line"/>
			<point x="234" y="0" type="line"/>
			<point x="564" y="0" type="line" smooth="yes"/>
			<point x="1163" y="0"/>
			<point x="1548" y="379"/>
			<point x="1548" y="854" type="curve" smooth="yes"/>
			<point x="1548" y="1130"/>
			<point x="1376" y="1340"/>
			<point x="937" y="1340" type="curve" smooth="yes"/>
			<point x="644" y="1340" type="line"/>
			<point x="639" y="1212" type="line"/>
			<point x="836" y="1212" type="line" smooth="yes"/>
			<point x="1061" y="1212"/>
			<point x="1181" y="1095"/>
			<point x="1181" y="894" type="curve" smooth="yes"/>
			<point x="1181" y="456"/>
			<point x="932" y="128"/>
		</contour>
		<contour>
			<point x="445" y="1243" type="line"/>
			<point x="96" y="103" type="line"/>
			<point x="-52" y="44" type="line"/>
			<point x="-65" y="0" type="line"/>
			<point x="435" y="0" type="line"/>
			<point x="844" y="1340" type="line"/>
			<point x="341" y="1340" type="line"/>
			<point x="328" y="1296" type="line"/>
		</contour>
	</outline>
</glyph>
<glyph name="dcroat" format="2">
	<unicode hex="0111"/>
	<advance width="1162"/>
	<outline>
		<contour>
			<point x="775" y="677" type="curve"/>
			<point x="833" y="756" type="line"/>
			<point x="763" y="862"/>
			<point x="682" y="898"/>
			<point x="580" y="898" type="curve" smooth="yes"/>
			<point x="268" y="898"/>
			<point x="4" y="481"/>
			<point x="4" y="183" type="curve" smooth="yes"/>
			<point x="4" y="45"/>
			<point x="97" y="-30"/>
			<point x="223" y="-30" type="curve" smooth="yes"/>
			<point x="368" y="-30"/>
			<point x="479" y="38"/>
			<point x="701" y="416" type="curve"/>
			<point x="674" y="416" type="line"/>
			<point x="565" y="93" type="line" smooth="yes"/>
			<point x="535" y="3"/>
			<point x="578" y="-30"/>
			<point x="703" y="-30" type="curve" smooth="yes"/>
			<point x="850" y="-30"/>
			<point x="1003" y="75"/>
			<point x="1148" y="288" type="curve"/>
			<point x="1102" y="328" type="line"/>
			<point x="994" y="212"/>
			<point x="913" y="169"/>
			<point x="822" y="162" type="curve"/>
			<point x="873" y="72" type="line"/>
			<point x="1318" y="1429" type="line"/>
			<point x="1279" y="1429" type="line"/>
			<point x="793" y="1354" type="line"/>
			<point x="776" y="1297" type="line"/>
			<point x="817" y="1264"/>
			<point x="866" y="1217"/>
			<point x="898" y="1156" type="curve"/>
			<point x="698" y="566" type="line" smooth="yes"/>
			<point x="604" y="288"/>
			<point x="464" y="184"/>
			<point x="393" y="184" type="curve" smooth="yes"/>
			<point x="356" y="184"/>
			<point x="347" y="196"/>
			<point x="347" y="239" type="curve" smooth="yes"/>
			<point x="347" y="400"/>
			<point x="516" y="757"/>
			<point x="659" y="757" type="curve" smooth="yes"/>
			<point x="726" y="757"/>
			<point x="761" y="720"/>
		</contour>
		<contour>
			<point x="606" y="1014" type="line"/>
			<point x="1366" y="1014" type="line"/>
			<point x="1405" y="1144" type="line"/>
			<point x="645" y="1144" type="line"/>
		</contour>
	</outline>
</glyph>
<glyph name="Eogonek" format="2">
	<unicode hex="0118"/>
	<advance width="1319"/>
	<outline>
		<contour>
			<point x="440" y="1243" type="line"/>
			<point x="91" y="103" type="line"/>
			<point x="-57" y="44" type="line"/>
			<point x="-70" y="0" type="line"/>
			<point x="430" y="0" type="line"/>
			<point x="839" y="1340" type="line"/>
			<point x="336" y="1340" type="line"/>
			<point x="323" y="1296" type="line"/>
		</contour>
		<contour>
			<point x="849" y="441" type="line"/>
			<point x="954" y="441" type="line"/>
			<point x="1034" y="703" type="line"/>
			<point x="1114" y="965" type="line"/>
			<point x="1009" y="965" type="line"/>
			<point x="927" y="767" type="line"/>
			<point x="482" y="767" type="line"/>
			<point x="444" y="639" type="line"/>
			<point x="889" y="639" type="line"/>
		</contour>
		<contour>
			<point x="1381" y="935" type="line"/>
			<point x="1440" y="1416" type="line"/>
			<point x="1404" y="1416" type="line"/>
			<point x="1250" y="1340" type="line"/>
			<point x="658" y="1340" type="line"/>
			<point x="616" y="1212" type="line"/>
			<point x="1264" y="1212" type="line"/>
			<point x="1220" y="1262" type="line"/>
			<point x="1316" y="935" type="line"/>
		</contour>
		<contour>
			<point x="997" y="-81" type="line"/>
			<point x="1038" y="-81" type="line"/>
			<point x="1290" y="430" type="line"/>
			<point x="1236" y="458" type="line"/>
			<point x="850" y="82" type="line"/>
			<point x="958" y="128" type="line"/>
			<point x="291" y="128" type="line"/>
			<point x="248" y="0" type="line"/>
			<point x="891" y="0" type="line"/>
		</contour>
		<contour>
			<point x="723" y="-307" type="curve" smooth="yes"/>
			<point x="723" y="-245"/>
			<point x="748" y="-179"/>
			<point x="892" y="-29" type="curve" smooth="yes"/>
			<point x="964" y="46" type="line"/>
			<point x="884" y="46" type="line"/>
			<point x="749" y="-76" type="line" smooth="yes"/>
			<point x="558" y="-249"/>
			<point x="543" y="-317"/>
			<point x="543" y="-380" type="curve" smooth="yes"/>
			<point x="543" y="-461"/>
			<point x="595" y="-530"/>
			<point x="689" y="-530" type="curve" smooth="yes"/>
			<point x="782" y="-530"/>
			<point x="844" y="-497"/>
			<point x="963" y="-388" type="curve"/>
			<point x="932" y="-338" type="line"/>
			<point x="876" y="-374"/>
			<point x="843" y="-388"/>
			<point x="802" y="-388" type="curve" smooth="yes"/>
			<point x="748" y="-388"/>
			<point x="723" y="-354"/>
		</contour>
	</outline>
</glyph>
<glyph name="eogonek" format="2">
	<unicode hex="0119"/>
	<advance width="922"/>
	<outline>
		<contour>
			<point x="706" y="86" type="line" smooth="yes"/>
			<point x="763" y="146"/>
			<point x="812" y="229"/>
			<point x="861" y="349" type="curve"/>
			<point x="795" y="349" type="line"/>
			<point x="715" y="223"/>
			<point x="642" y="183"/>
			<point x="535" y="183" type="curve" smooth="yes"/>
			<point x="439" y="183"/>
			<point x="378" y="234"/>
			<point x="378" y="365" type="curve" smooth="yes"/>
			<point x="378" y="594"/>
			<point x="490" y="795"/>
			<point x="591" y="795" type="curve" smooth="yes"/>
			<point x="626" y="795"/>
			<point x="643" y="771"/>
			<point x="643" y="724" type="curve" smooth="yes"/>
			<point x="643" y="617"/>
			<point x="589" y="568"/>
			<point x="288" y="460" type="curve"/>
			<point x="285" y="369" type="line"/>
			<point x="483" y="408"/>
			<point x="697" y="468"/>
			<point x="850" y="532" type="curve"/>
			<point x="891" y="579"/>
			<point x="918" y="643"/>
			<point x="918" y="709" type="curve" smooth="yes"/>
			<point x="918" y="820"/>
			<point x="840" y="902"/>
			<point x="635" y="902" type="curve" smooth="yes"/>
			<point x="329" y="902"/>
			<point x="39" y="666"/>
			<point x="39" y="315" type="curve" smooth="yes"/>
			<point x="39" y="103"/>
			<point x="164" y="-30"/>
			<point x="399" y="-30" type="curve" smooth="yes"/>
			<point x="455" y="-30"/>
			<point x="506" y="-24"/>
			<point x="553" y="-9" type="curve"/>
			<point x="543" y="9" type="line"/>
			<point x="487" y="-45" type="line" smooth="yes"/>
			<point x="296" y="-230"/>
			<point x="271" y="-318"/>
			<point x="271" y="-385" type="curve" smooth="yes"/>
			<point x="271" y="-471"/>
			<point x="333" y="-530"/>
			<point x="427" y="-530" type="curve" smooth="yes"/>
			<point x="520" y="-530"/>
			<point x="582" y="-497"/>
			<point x="701" y="-388" type="curve"/>
			<point x="670" y="-338" type="line"/>
			<point x="614" y="-374"/>
			<point x="581" y="-388"/>
			<point x="540" y="-388" type="curve" smooth="yes"/>
			<point x="486" y="-388"/>
			<point x="461" y="-342"/>
			<point x="461" y="-292" type="curve" smooth="yes"/>
			<point x="461" y="-226"/>
			<point x="483" y="-152"/>
			<point x="630" y="5" type="curve" smooth="yes"/>
		</contour>
	</outline>
</glyph>
<glyph name="Hbar" format="2">
	<unicode hex="0126"/>
	<advance width="1637"/>
	<outline>
		<contour>
			<point x="422" y="621" type="line"/>
			<point x="1327" y="621" type="line"/>
			<point x="1365" y="749" type="line"/>
			<point x="460" y="749" type="line"/>
		</contour>
		<contour>
			<point x="219" y="944" type="line"/>
			<point x="1729" y="944" type="line"/>
			<point x="1769" y="1074" type="line"/>
			<point x="259" y="1074" type="line"/>
		</contour>
		<contour>
			<point x="441" y="1243" type="line"/>
			<point x="92" y="103" type="line"/>
			<point x="-56" y="44" type="line"/>
			<point x="-69" y="0" type="line"/>
			<point x="564" y="0" type="line"/>
			<point x="577" y="44" type="line"/>
			<point x="460" y="97" type="line"/>
			<point x="809" y="1237" type="line"/>
			<point x="957" y="1296" type="line"/>
			<point x="970" y="1340" type="line"/>
			<point x="337" y="1340" type="line"/>
			<point x="324" y="1296" type="line"/>
		</contour>
		<contour>
			<point x="1320" y="1243" type="line"/>
			<point x="971" y="103" type="line"/>
			<point x="823" y="44" type="line"/>
			<point x="810" y="0" type="line"/>
			<point x="1443" y="0" type="line"/>
			<point x="1456" y="44" type="line"/>
			<point x="1339" y="97" type="line"/>
			<point x="1688" y="1237" type="line"/>
			<point x="1836" y="1296" type="line"/>
			<point x="1849" y="1340" type="line"/>
			<point x="1216" y="1340" type="line"/>
			<point x="1203" y="1296" type="line"/>
		</contour>
	</outline>
</glyph>
<glyph name="hbar" format="2">
	<unicode hex="0127"/>
	<advance width="1166"/>
	<outline>
		<contour>
			<point x="371" y="185" type="line" smooth="yes"/>
			<point x="482" y="550"/>
			<point x="609" y="674"/>
			<point x="688" y="674" type="curve" smooth="yes"/>
			<point x="718" y="674"/>
			<point x="732" y="656"/>
			<point x="732" y="629" type="curve" smooth="yes"/>
			<point x="732" y="608"/>
			<point x="724" y="581"/>
			<point x="701" y="521" type="curve" smooth="yes"/>
			<point x="543" y="113" type="line" smooth="yes"/>
			<point x="505" y="15"/>
			<point x="547" y="-30"/>
			<point x="675" y="-30" type="curve" smooth="yes"/>
			<point x="837" y="-30"/>
			<point x="993" y="65"/>
			<point x="1154" y="283" type="curve"/>
			<point x="1110" y="325" type="line"/>
			<point x="993" y="211"/>
			<point x="917" y="163"/>
			<point x="813" y="161" type="curve"/>
			<point x="866" y="73" type="line"/>
			<point x="1042" y="533" type="line" smooth="yes"/>
			<point x="1072" y="612"/>
			<point x="1085" y="680"/>
			<point x="1085" y="731" type="curve" smooth="yes"/>
			<point x="1085" y="831"/>
			<point x="1026" y="902"/>
			<point x="878" y="902" type="curve" smooth="yes"/>
			<point x="718" y="902"/>
			<point x="554" y="794"/>
			<point x="372" y="375" type="curve"/>
			<point x="385" y="346" type="line"/>
			<point x="760" y="1429" type="line"/>
			<point x="721" y="1429" type="line"/>
			<point x="232" y="1354" type="line"/>
			<point x="215" y="1297" type="line"/>
			<point x="270" y="1255"/>
			<point x="308" y="1221"/>
			<point x="343" y="1174" type="curve"/>
			<point x="-13" y="0" type="line"/>
			<point x="315" y="0" type="line"/>
		</contour>
		<contour>
			<point x="105" y="1014" type="line"/>
			<point x="865" y="1014" type="line"/>
			<point x="904" y="1144" type="line"/>
			<point x="144" y="1144" type="line"/>
		</contour>
	</outline>
</glyph>
<glyph name="Iogonek" format="2">
	<unicode hex="012E"/>
	<advance width="755"/>
	<outline>
		<contour>
			<point x="440" y="1243" type="line"/>
			<point x="91" y="103" type="line"/>
			<point x="-57" y="44" type="line"/>
			<point x="-70" y="0" type="line"/>
			<point x="563" y="0" type="line"/>
			<point x="576" y="44" type="line"/>
			<point x="459" y="97" type="line"/>
			<point x="808" y="1237" type="line"/>
			<point x="956" y="1296" type="line"/>
			<point x="969" y="1340" type="line"/>
			<point x="336" y="1340" type="line"/>
			<point x="323" y="1296" type="line"/>
		</contour>
		<contour>
			<point x="102" y="-307" type="curve" smooth="yes"/>
			<point x="102" y="-245"/>
			<point x="127" y="-179"/>
			<point x="271" y="-29" type="curve" smooth="yes"/>
			<point x="343" y="46" type="line"/>
			<point x="263" y="46" type="line"/>
			<point x="128" y="-76" type="line" smooth="yes"/>
			<point x="-63" y="-249"/>
			<point x="-78" y="-317"/>
			<point x="-78" y="-380" type="curve" smooth="yes"/>
			<point x="-78" y="-461"/>
			<point x="-26" y="-530"/>
			<point x="68" y="-530" type="curve" smooth="yes"/>
			<point x="161" y="-530"/>
			<point x="223" y="-497"/>
			<point x="342" y="-388" type="curve"/>
			<point x="311" y="-338" type="line"/>
			<point x="255" y="-374"/>
			<point x="222" y="-388"/>
			<point x="181" y="-388" type="curve" smooth="yes"/>
			<point x="127" y="-388"/>
			<point x="102" y="-354"/>
		</contour>
	</outline>
</glyph>
<glyph name="iogonek" format="2">
	<unicode hex="012F"/>
	<advance width="693"/>
	<outline>
		<contour>
			<point x="434" y="1242" type="curve" smooth="yes"/>
			<point x="434" y="1134"/>
			<point x="513" y="1058"/>
			<point x="615" y="1058" type="curve" smooth="yes"/>
			<point x="718" y="1058"/>
			<point x="797" y="1134"/>
			<point x="797" y="1242" type="curve" smooth="yes"/>
			<point x="797" y="1352"/>
			<point x="718" y="1426"/>
			<point x="615" y="1426" type="curve" smooth="yes"/>
			<point x="513" y="1426"/>
			<point x="434" y="1352"/>
		</contour>
		<contour>
			<point x="550" y="131" type="line" smooth="yes"/>
			<point x="589" y="168"/>
			<point x="628" y="211"/>
			<point x="667" y="261" type="curve"/>
			<point x="623" y="304" type="line"/>
			<point x="512" y="198"/>
			<point x="440" y="154"/>
			<point x="325" y="157" type="curve"/>
			<point x="390" y="73" type="line"/>
			<point x="641" y="759" type="line" smooth="yes"/>
			<point x="677" y="857"/>
			<point x="637" y="902"/>
			<point x="509" y="902" type="curve" smooth="yes"/>
			<point x="348" y="902"/>
			<point x="181" y="812"/>
			<point x="35" y="596" type="curve"/>
			<point x="81" y="556" type="line"/>
			<point x="190" y="673"/>
			<point x="264" y="718"/>
			<point x="381" y="715" type="curve"/>
			<point x="314" y="779" type="line"/>
			<point x="63" y="113" type="line" smooth="yes"/>
			<point x="26" y="15"/>
			<point x="67" y="-30"/>
			<point x="195" y="-30" type="curve" smooth="yes"/>
			<point x="248" y="-30"/>
			<point x="300" y="-20"/>
			<point x="353" y="1" type="curve"/>
			<point x="341" y="22" type="line"/>
			<point x="236" y="-67" type="line" smooth="yes"/>
			<point x="39" y="-233"/>
			<point x="20" y="-317"/>
			<point x="20" y="-380" type="curve" smooth="yes"/>
			<point x="20" y="-461"/>
			<point x="72" y="-530"/>
			<point x="166" y="-530" type="curve" smooth="yes"/>
			<point x="259" y="-530"/>
			<point x="321" y="-497"/>
			<point x="440" y="-388" type="curve"/>
			<point x="409" y="-338" type="line"/>
			<point x="353" y="-374"/>
			<point x="320" y="-388"/>
			<point x="279" y="-388" type="curve" smooth="yes"/>
			<point x="225" y="-388"/>
			<point x="200" y="-354"/>
			<point x="200" y="-307" type="curve" smooth="yes"/>
			<point x="200" y="-245"/>
			<point x="229" y="-169"/>
			<point x="379" y="-29" type="curve" smooth="yes"/>
		</contour>
	</outline>
</glyph>
<glyph name="dotlessi" format="2">
	<unicode hex="0131"/>
	<advance width="687"/>
	<outline>
		<contour>
			<point x="63" y="113" type="line" smooth="yes"/>
			<point x="26" y="15"/>
			<point x="67" y="-30"/>
			<point x="195" y="-30" type="curve" smooth="yes"/>
			<point x="354" y="-30"/>
			<point x="511" y="61"/>
			<point x="667" y="261" type="curve"/>
			<point x="623" y="304" type="line"/>
			<point x="512" y="198"/>
			<point x="440" y="154"/>
			<point x="325" y="157" type="curve"/>
			<point x="390" y="73" type="line"/>
			<point x="641" y="759" type="line" smooth="yes"/>
			<point x="677" y="857"/>
			<point x="637" y="902"/>
			<point x="509" y="902" type="curve" smooth="yes"/>
			<point x="348" y="902"/>
			<point x="181" y="812"/>
			<point x="35" y="596" type="curve"/>
			<point x="81" y="556" type="line"/>
			<point x="190" y="673"/>
			<point x="264" y="718"/>
			<point x="381" y="715" type="curve"/>
			<point x="314" y="779" type="line"/>
		</contour>
	</outline>
	<anchor name="top" x="471" y="872"/>
	<anchor name="bottom" x="243" y="0"/>
	<anchor name="right" x="524" y="0"/>
</glyph>
<glyph name="kgreenlandic" format="2">
	<unicode hex="0138"/>
	<advance width="1256"/>
	<outline>
		<contour>
			<point x="672" y="883" type="line"/>
			<point x="631" y="894"/>
			<point x="569" y="899"/>
			<point x="472" y="899" type="curve" smooth="yes"/>
			<point x="245" y="899"/>
			<point x="129" y="809"/>
			<point x="25" y="546" type="curve"/>
			<point x="87" y="517" type="line"/>
			<point x="165" y="667"/>
			<point x="194" y="694"/>
			<point x="270" y="694" type="curve" smooth="yes"/>
			<point x="275" y="694"/>
			<point x="280" y="694"/>
			<point x="285" y="694" type="curve"/>
			<point x="75" y="0" type="line"/>
			<point x="403" y="0" type="line"/>
		</contour>
		<contour>
			<point x="1121" y="584" type="curve" smooth="yes"/>
			<point x="1215" y="584"/>
			<point x="1296" y="645"/>
			<point x="1296" y="752" type="curve" smooth="yes"/>
			<point x="1296" y="832"/>
			<point x="1238" y="902"/>
			<point x="1136" y="902" type="curve" smooth="yes"/>
			<point x="1018" y="902"/>
			<point x="889" y="838"/>
			<point x="548" y="490" type="curve"/>
			<point x="521" y="441" type="line"/>
			<point x="648" y="62"/>
			<point x="733" y="-30"/>
			<point x="820" y="-30" type="curve" smooth="yes"/>
			<point x="951" y="-30"/>
			<point x="1086" y="70"/>
			<point x="1214" y="269" type="curve"/>
			<point x="1169" y="307" type="line"/>
			<point x="1077" y="201"/>
			<point x="1041" y="182"/>
			<point x="1006" y="182" type="curve" smooth="yes"/>
			<point x="951" y="182"/>
			<point x="890" y="274"/>
			<point x="759" y="631" type="curve"/>
			<point x="643" y="476" type="line"/>
			<point x="792" y="644"/>
			<point x="914" y="717"/>
			<point x="980" y="717" type="curve" smooth="yes"/>
			<point x="1011" y="717"/>
			<point x="1032" y="697"/>
			<point x="1056" y="648" type="curve" smooth="yes"/>
			<point x="1080" y="599"/>
			<point x="1098" y="584"/>
		</contour>
	</outline>
</glyph>
<glyph name="Lslash" format="2">
	<unicode hex="0141"/>
	<advance width="1273"/>
	<outline>
		<contour>
			<point x="825" y="1232" type="line"/>
			<point x="975" y="1294" type="line"/>
			<point x="990" y="1340" type="line"/>
			<point x="357" y="1340" type="line"/>
			<point x="343" y="1294" type="line"/>
			<point x="455" y="1232" type="line"/>
			<point x="111" y="108" type="line"/>
			<point x="-39" y="46" type="line"/>
			<point x="-53" y="0" type="line"/>
			<point x="449" y="0" type="line"/>
		</contour>
		<contour>
			<point x="818" y="82" type="line"/>
			<point x="926" y="128" type="line"/>
			<point x="259" y="128" type="line"/>
			<point x="216" y="0" type="line"/>
			<point x="859" y="0" type="line"/>
			<point x="960" y="-92" type="line"/>
			<point x="1001" y="-92" type="line"/>
			<point x="1268" y="460" type="line"/>
			<point x="1214" y="488" type="line"/>
		</contour>
		<contour>
			<point x="994" y="974" type="line"/>
			<point x="534" y="732" type="line"/>
			<point x="446" y="743" type="line"/>
			<point x="122" y="573" type="line"/>
			<point x="75" y="419" type="line"/>
			<point x="399" y="589" type="line"/>
			<point x="487" y="578" type="line"/>
			<point x="946" y="820" type="line"/>
		</contour>
	</outline>
</glyph>
<glyph name="lslash" format="2">
	<unicode hex="0142"/>
	<advance width="777"/>
	<outline>
		<contour>
			<point x="62" y="492" type="line"/>
			<point x="9" y="318" type="line"/>
			<point x="312" y="512" type="line"/>
			<point x="454" y="533" type="line"/>
			<point x="753" y="724" type="line"/>
			<point x="807" y="898" type="line"/>
			<point x="508" y="707" type="line"/>
			<point x="365" y="686" type="line"/>
		</contour>
		<contour>
			<point x="419" y="1180" type="curve"/>
			<point x="69" y="113" type="line" smooth="yes"/>
			<point x="36" y="13"/>
			<point x="73" y="-30"/>
			<point x="201" y="-30" type="curve" smooth="yes"/>
			<point x="369" y="-30"/>
			<point x="544" y="51"/>
			<point x="703" y="261" type="curve"/>
			<point x="659" y="303" type="line"/>
			<point x="542" y="190"/>
			<point x="460" y="152"/>
			<point x="339" y="161" type="curve"/>
			<point x="396" y="73" type="line"/>
			<point x="841" y="1429" type="line"/>
			<point x="802" y="1429" type="line"/>
			<point x="313" y="1354" type="line"/>
			<point x="296" y="1297" type="line"/>
			<point x="349" y="1257"/>
			<point x="386" y="1225"/>
		</contour>
	</outline>
</glyph>
<glyph name="Eng" format="2">
	<unicode hex="014A"/>
	<advance width="1456"/>
	<outline>
		<contour>
			<point x="1208" y="434" type="line"/>
			<point x="797" y="1340" type="line"/>
			<point x="320" y="1340" type="line"/>
			<point x="309" y="1303" type="line"/>
			<point x="435" y="1211" type="line"/>
			<point x="95" y="99" type="line"/>
			<point x="-53" y="44" type="line"/>
			<point x="-66" y="0" type="line"/>
			<point x="329" y="0" type="line"/>
			<point x="342" y="44" type="line"/>
			<point x="212" y="99" type="line"/>
			<point x="558" y="1230" type="line"/>
			<point x="499" y="1194" type="line"/>
			<point x="1035" y="-81" type="line"/>
		</contour>
		<contour>
			<point x="1118" y="-93" type="curve" smooth="yes"/>
			<point x="1526" y="1241" type="line"/>
			<point x="1674" y="1296" type="line"/>
			<point x="1687" y="1340" type="line"/>
			<point x="1292" y="1340" type="line"/>
			<point x="1279" y="1296" type="line"/>
			<point x="1409" y="1241" type="line"/>
			<point x="994" y="-116" type="line"/>
			<point x="937" y="-302"/>
			<point x="823" y="-387"/>
			<point x="715" y="-387" type="curve" smooth="yes"/>
			<point x="648" y="-387"/>
			<point x="593" y="-262"/>
			<point x="525" y="-262" type="curve" smooth="yes"/>
			<point x="453" y="-262"/>
			<point x="411" y="-322"/>
			<point x="411" y="-384" type="curve" smooth="yes"/>
			<point x="411" y="-472"/>
			<point x="482" y="-530"/>
			<point x="637" y="-530" type="curve" smooth="yes"/>
			<point x="884" y="-530"/>
			<point x="1027" y="-391"/>
		</contour>
	</outline>
</glyph>
<glyph name="OE" format="2">
	<unicode hex="0152"/>
	<advance width="2081"/>
	<outline>
		<contour>
			<point x="1232" y="1340" type="line"/>
			<point x="822" y="0" type="line"/>
			<point x="1192" y="0" type="line"/>
			<point x="1601" y="1340" type="line"/>
		</contour>
		<contour>
			<point x="1102" y="1340" type="line" smooth="yes"/>
			<point x="503" y="1340"/>
			<point x="118" y="961"/>
			<point x="118" y="486" type="curve" smooth="yes"/>
			<point x="118" y="210"/>
			<point x="290" y="0"/>
			<point x="729" y="0" type="curve" smooth="yes"/>
			<point x="1653" y="0" type="line"/>
			<point x="1759" y="-81" type="line"/>
			<point x="1800" y="-81" type="line"/>
			<point x="2052" y="430" type="line"/>
			<point x="1998" y="458" type="line"/>
			<point x="1612" y="82" type="line"/>
			<point x="1720" y="128" type="line"/>
			<point x="830" y="128" type="line" smooth="yes"/>
			<point x="605" y="128"/>
			<point x="485" y="245"/>
			<point x="485" y="446" type="curve" smooth="yes"/>
			<point x="485" y="884"/>
			<point x="734" y="1212"/>
			<point x="1086" y="1212" type="curve" smooth="yes"/>
			<point x="2026" y="1212" type="line"/>
			<point x="1982" y="1262" type="line"/>
			<point x="2078" y="935" type="line"/>
			<point x="2143" y="935" type="line"/>
			<point x="2202" y="1416" type="line"/>
			<point x="2166" y="1416" type="line"/>
			<point x="2012" y="1340" type="line"/>
		</contour>
		<contour>
			<point x="1716" y="441" type="line"/>
			<point x="1796" y="703" type="line"/>
			<point x="1876" y="965" type="line"/>
			<point x="1771" y="965" type="line"/>
			<point x="1689" y="767" type="line"/>
			<point x="1244" y="767" type="line"/>
			<point x="1206" y="639" type="line"/>
			<point x="1651" y="639" type="line"/>
			<point x="1611" y="441" type="line"/>
		</contour>
	</outline>
</glyph>
<glyph name="oe" format="2">
	<unicode hex="0153"/>
	<advance width="1523"/>
	<outline>
		<contour>
			<point x="617" y="902" type="curve" smooth="yes"/>
			<point x="303" y="902"/>
			<point x="43" y="660"/>
			<point x="43" y="332" type="curve" smooth="yes"/>
			<point x="43" y="116"/>
			<point x="171" y="-30"/>
			<point x="423" y="-30" type="curve" smooth="yes"/>
			<point x="586" y="-30"/>
			<point x="735" y="39"/>
			<point x="812" y="147" type="curve"/>
			<point x="692" y="147" type="line"/>
			<point x="731" y="38"/>
			<point x="837" y="-30"/>
			<point x="1000" y="-30" type="curve" smooth="yes"/>
			<point x="1205" y="-30"/>
			<point x="1341" y="50"/>
			<point x="1462" y="349" type="curve"/>
			<point x="1396" y="349" type="line"/>
			<point x="1316" y="223"/>
			<point x="1243" y="183"/>
			<point x="1136" y="183" type="curve" smooth="yes"/>
			<point x="1040" y="183"/>
			<point x="979" y="234"/>
			<point x="979" y="365" type="curve" smooth="yes"/>
			<point x="979" y="594"/>
			<point x="1091" y="795"/>
			<point x="1192" y="795" type="curve" smooth="yes"/>
			<point x="1227" y="795"/>
			<point x="1244" y="771"/>
			<point x="1244" y="724" type="curve" smooth="yes"/>
			<point x="1244" y="617"/>
			<point x="1190" y="568"/>
			<point x="889" y="460" type="curve"/>
			<point x="886" y="369" type="line"/>
			<point x="1084" y="408"/>
			<point x="1298" y="468"/>
			<point x="1451" y="532" type="curve"/>
			<point x="1492" y="579"/>
			<point x="1519" y="643"/>
			<point x="1519" y="709" type="curve" smooth="yes"/>
			<point x="1519" y="820"/>
			<point x="1441" y="902"/>
			<point x="1236" y="902" type="curve" smooth="yes"/>
			<point x="1067" y="902"/>
			<point x="901" y="826"/>
			<point x="817" y="702" type="curve"/>
			<point x="948" y="702" type="line"/>
			<point x="910" y="823"/>
			<point x="797" y="902"/>
		</contour>
		<contour>
			<point x="420" y="77" type="curve" smooth="yes"/>
			<point x="381" y="77"/>
			<point x="360" y="100"/>
			<point x="360" y="188" type="curve" smooth="yes"/>
			<point x="360" y="458"/>
			<point x="513" y="795"/>
			<point x="620" y="795" type="curve" smooth="yes"/>
			<point x="659" y="795"/>
			<point x="680" y="772"/>
			<point x="680" y="684" type="curve" smooth="yes"/>
			<point x="680" y="414"/>
			<point x="527" y="77"/>
		</contour>
	</outline>
	<anchor name="top" x="881" y="872"/>
	<anchor name="bottom" x="704" y="0"/>
</glyph>
<glyph name="Scedilla" format="2">
	<unicode hex="015E"/>
	<advance width="1153"/>
	<outline>
		<contour>
			<point x="1068" y="1129" type="curve"/>
			<point x="971" y="1285" type="line"/>
			<point x="1105" y="924" type="line"/>
			<point x="1172" y="924" type="line"/>
			<point x="1214" y="1418" type="line"/>
			<point x="1169" y="1418" type="line"/>
			<point x="1039" y="1328" type="line"/>
			<point x="1076" y="1328" type="line"/>
			<point x="1000" y="1355"/>
			<point x="913" y="1370"/>
			<point x="822" y="1370" type="curve" smooth="yes"/>
			<point x="483" y="1370"/>
			<point x="248" y="1193"/>
			<point x="248" y="906" type="curve" smooth="yes"/>
			<point x="248" y="758"/>
			<point x="315" y="638"/>
			<point x="521" y="548" type="curve" smooth="yes"/>
			<point x="726" y="459"/>
			<point x="767" y="395"/>
			<point x="767" y="306" type="curve" smooth="yes"/>
			<point x="767" y="182"/>
			<point x="651" y="105"/>
			<point x="427" y="105" type="curve" smooth="yes"/>
			<point x="325" y="105"/>
			<point x="230" y="131"/>
			<point x="127" y="178" type="curve"/>
			<point x="310" y="39" type="line"/>
			<point x="132" y="439" type="line"/>
			<point x="70" y="439" type="line"/>
			<point x="57" y="40" type="line"/>
			<point x="154" y="-1"/>
			<point x="280" y="-30"/>
			<point x="410" y="-30" type="curve" smooth="yes"/>
			<point x="814" y="-30"/>
			<point x="1083" y="155"/>
			<point x="1083" y="474" type="curve" smooth="yes"/>
			<point x="1083" y="631"/>
			<point x="1020" y="746"/>
			<point x="801" y="847" type="curve" smooth="yes"/>
			<point x="582" y="948"/>
			<point x="554" y="995"/>
			<point x="554" y="1065" type="curve" smooth="yes"/>
			<point x="554" y="1177"/>
			<point x="634" y="1245"/>
			<point x="791" y="1245" type="curve" smooth="yes"/>
			<point x="899" y="1245"/>
			<point x="1004" y="1204"/>
		</contour>
		<contour>
			<point x="311" y="-530" type="curve" smooth="yes"/>
			<point x="493" y="-530"/>
			<point x="608" y="-405"/>
			<point x="608" y="-282" type="curve" smooth="yes"/>
			<point x="608" y="-204"/>
			<point x="553" y="-136"/>
			<point x="390" y="-94" type="curve"/>
			<point x="360" y="-225" type="line"/>
			<point x="604" y="49" type="line"/>
			<point x="510" y="49" type="line"/>
			<point x="249" y="-239" type="line"/>
			<point x="246" y="-250" type="line"/>
			<point x="415" y="-288"/>
			<point x="451" y="-325"/>
			<point x="451" y="-365" type="curve" smooth="yes"/>
			<point x="451" y="-410"/>
			<point x="418" y="-444"/>
			<point x="364" y="-444" type="curve" smooth="yes"/>
			<point x="288" y="-444"/>
			<point x="274" y="-369"/>
			<point x="220" y="-369" type="curve" smooth="yes"/>
			<point x="177" y="-369"/>
			<point x="153" y="-401"/>
			<point x="153" y="-435" type="curve" smooth="yes"/>
			<point x="153" y="-488"/>
			<point x="210" y="-530"/>
		</contour>
	</outline>
</glyph>
<glyph name="uni0162" format="2">
	<unicode hex="0162"/>
	<advance width="1351"/>
	<outline>
		<contour>
			<point x="1382" y="1202" type="line"/>
			<point x="1332" y="1245" type="line"/>
			<point x="1411" y="916" type="line"/>
			<point x="1472" y="916" type="line"/>
			<point x="1575" y="1415" type="line"/>
			<point x="1530" y="1415" type="line"/>
			<point x="1327" y="1312" type="line"/>
			<point x="1453" y="1340" type="line"/>
			<point x="442" y="1340" type="line"/>
			<point x="549" y="1312" type="line"/>
			<point x="411" y="1415" type="line"/>
			<point x="368" y="1415" type="line"/>
			<point x="177" y="929" type="line"/>
			<point x="236" y="906" type="line"/>
			<point x="533" y="1241" type="line"/>
			<point x="377" y="1202" type="line"/>
		</contour>
		<contour>
			<point x="737" y="1243" type="line"/>
			<point x="388" y="103" type="line"/>
			<point x="240" y="44" type="line"/>
			<point x="227" y="0" type="line"/>
			<point x="860" y="0" type="line"/>
			<point x="873" y="44" type="line"/>
			<point x="756" y="97" type="line"/>
			<point x="1107" y="1243" type="line"/>
		</contour>
		<contour>
			<point x="353" y="-530" type="curve" smooth="yes"/>
			<point x="535" y="-530"/>
			<point x="650" y="-405"/>
			<point x="650" y="-282" type="curve" smooth="yes"/>
			<point x="650" y="-204"/>
			<point x="595" y="-136"/>
			<point x="432" y="-94" type="curve"/>
			<point x="402" y="-225" type="line"/>
			<point x="646" y="49" type="line"/>
			<point x="552" y="49" type="line"/>
			<point x="291" y="-239" type="line"/>
			<point x="288" y="-250" type="line"/>
			<point x="457" y="-288"/>
			<point x="493" y="-325"/>
			<point x="493" y="-365" type="curve" smooth="yes"/>
			<point x="493" y="-410"/>
			<point x="460" y="-444"/>
			<point x="406" y="-444" type="curve" smooth="yes"/>
			<point x="330" y="-444"/>
			<point x="316" y="-369"/>
			<point x="262" y="-369" type="curve" smooth="yes"/>
			<point x="219" y="-369"/>
			<point x="195" y="-401"/>
			<point x="195" y="-435" type="curve" smooth="yes"/>
			<point x="195" y="-488"/>
			<point x="252" y="-530"/>
		</contour>
	</outline>
</glyph>
<glyph name="uni0163" format="2">
	<unicode hex="0163"/>
	<advance width="769"/>
	<outline>
		<contour>
			<point x="97" y="763" type="line"/>
			<point x="840" y="763" type="line"/>
			<point x="861" y="872" type="line"/>
			<point x="117" y="872" type="line"/>
		</contour>
		<contour>
			<point x="511" y="427" type="curve" smooth="yes"/>
			<point x="735" y="1110" type="line"/>
			<point x="396" y="1110" type="line"/>
			<point x="169" y="404" type="line" smooth="yes"/>
			<point x="134" y="294"/>
			<point x="117" y="204"/>
			<point x="117" y="151" type="curve" smooth="yes"/>
			<point x="117" y="12"/>
			<point x="179" y="-30"/>
			<point x="272" y="-30" type="curve" smooth="yes"/>
			<point x="409" y="-30"/>
			<point x="564" y="40"/>
			<point x="736" y="317" type="curve"/>
			<point x="682" y="359" type="line"/>
			<point x="586" y="240"/>
			<point x="535" y="201"/>
			<point x="499" y="201" type="curve" smooth="yes"/>
			<point x="478" y="201"/>
			<point x="465" y="210"/>
			<point x="465" y="238" type="curve" smooth="yes"/>
			<point x="465" y="263"/>
			<point x="468" y="297"/>
		</contour>
		<contour>
			<point x="145" y="-530" type="curve" smooth="yes"/>
			<point x="327" y="-530"/>
			<point x="442" y="-405"/>
			<point x="442" y="-282" type="curve" smooth="yes"/>
			<point x="442" y="-204"/>
			<point x="387" y="-136"/>
			<point x="224" y="-94" type="curve"/>
			<point x="194" y="-225" type="line"/>
			<point x="438" y="49" type="line"/>
			<point x="344" y="49" type="line"/>
			<point x="83" y="-239" type="line"/>
			<point x="80" y="-250" type="line"/>
			<point x="249" y="-288"/>
			<point x="285" y="-325"/>
			<point x="285" y="-365" type="curve" smooth="yes"/>
			<point x="285" y="-410"/>
			<point x="252" y="-444"/>
			<point x="198" y="-444" type="curve" smooth="yes"/>
			<point x="122" y="-444"/>
			<point x="108" y="-369"/>
			<point x="54" y="-369" type="curve" smooth="yes"/>
			<point x="11" y="-369"/>
			<point x="-13" y="-401"/>
			<point x="-13" y="-435" type="curve" smooth="yes"/>
			<point x="-13" y="-488"/>
			<point x="44" y="-530"/>
		</contour>
	</outline>
</glyph>
<glyph name="Tbar" format="2">
	<unicode hex="0166"/>
	<advance width="1357"/>
	<outline>
		<contour>
			<point x="308" y="594" type="line"/>
			<point x="1138" y="594" type="line"/>
			<point x="1178" y="724" type="line"/>
			<point x="347" y="724" type="line"/>
		</contour>
		<contour>
			<point x="1384" y="1202" type="line"/>
			<point x="1334" y="1245" type="line"/>
			<point x="1413" y="916" type="line"/>
			<point x="1474" y="916" type="line"/>
			<point x="1577" y="1415" type="line"/>
			<point x="1532" y="1415" type="line"/>
			<point x="1329" y="1312" type="line"/>
			<point x="1455" y="1340" type="line"/>
			<point x="444" y="1340" type="line"/>
			<point x="551" y="1312" type="line"/>
			<point x="413" y="1415" type="line"/>
			<point x="370" y="1415" type="line"/>
			<point x="179" y="929" type="line"/>
			<point x="238" y="906" type="line"/>
			<point x="535" y="1241" type="line"/>
			<point x="379" y="1202" type="line"/>
		</contour>
		<contour>
			<point x="739" y="1243" type="line"/>
			<point x="390" y="103" type="line"/>
			<point x="242" y="44" type="line"/>
			<point x="229" y="0" type="line"/>
			<point x="862" y="0" type="line"/>
			<point x="875" y="44" type="line"/>
			<point x="758" y="97" type="line"/>
			<point x="1109" y="1243" type="line"/>
		</contour>
	</outline>
</glyph>
<glyph name="tbar" format="2">
	<unicode hex="0167"/>
	<advance width="785"/>
	<outline>
		<contour>
			<point x="61" y="472" type="line"/>
			<point x="754" y="472" type="line"/>
			<point x="794" y="602" type="line"/>
			<point x="101" y="602" type="line"/>
		</contour>
		<contour>
			<point x="109" y="763" type="line"/>
			<point x="852" y="763" type="line"/>
			<point x="873" y="872" type="line"/>
			<point x="129" y="872" type="line"/>
		</contour>
		<contour>
			<point x="477" y="238" type="curve" smooth="yes"/>
			<point x="477" y="263"/>
			<point x="480" y="297"/>
			<point x="523" y="427" type="curve" smooth="yes"/>
			<point x="747" y="1110" type="line"/>
			<point x="408" y="1110" type="line"/>
			<point x="181" y="404" type="line" smooth="yes"/>
			<point x="146" y="294"/>
			<point x="129" y="204"/>
			<point x="129" y="151" type="curve" smooth="yes"/>
			<point x="129" y="12"/>
			<point x="191" y="-30"/>
			<point x="284" y="-30" type="curve" smooth="yes"/>
			<point x="421" y="-30"/>
			<point x="576" y="40"/>
			<point x="748" y="317" type="curve"/>
			<point x="694" y="359" type="line"/>
			<point x="598" y="240"/>
			<point x="547" y="201"/>
			<point x="511" y="201" type="curve" smooth="yes"/>
			<point x="490" y="201"/>
			<point x="477" y="210"/>
		</contour>
	</outline>
</glyph>
<glyph name="Uogonek" format="2">
	<unicode hex="0172"/>
	<advance width="1502"/>
	<outline>
		<contour>
			<point x="570" y="551" type="curve" smooth="yes"/>
			<point x="779" y="1237" type="line"/>
			<point x="927" y="1296" type="line"/>
			<point x="940" y="1340" type="line"/>
			<point x="307" y="1340" type="line"/>
			<point x="294" y="1296" type="line"/>
			<point x="411" y="1243" type="line"/>
			<point x="187" y="511" type="line" smooth="yes"/>
			<point x="88" y="187"/>
			<point x="300" y="-30"/>
			<point x="694" y="-30" type="curve" smooth="yes"/>
			<point x="1031" y="-30"/>
			<point x="1246" y="142"/>
			<point x="1349" y="477" type="curve" smooth="yes"/>
			<point x="1583" y="1241" type="line"/>
			<point x="1731" y="1296" type="line"/>
			<point x="1744" y="1340" type="line"/>
			<point x="1349" y="1340" type="line"/>
			<point x="1336" y="1296" type="line"/>
			<point x="1466" y="1241" type="line"/>
			<point x="1256" y="555" type="line" smooth="yes"/>
			<point x="1179" y="302"/>
			<point x="1049" y="197"/>
			<point x="833" y="197" type="curve" smooth="yes"/>
			<point x="594" y="197"/>
			<point x="495" y="304"/>
		</contour>
		<contour>
			<point x="617" y="-307" type="curve" smooth="yes"/>
			<point x="617" y="-245"/>
			<point x="642" y="-179"/>
			<point x="786" y="-29" type="curve" smooth="yes"/>
			<point x="858" y="46" type="line"/>
			<point x="778" y="46" type="line"/>
			<point x="643" y="-76" type="line" smooth="yes"/>
			<point x="452" y="-249"/>
			<point x="437" y="-317"/>
			<point x="437" y="-380" type="curve" smooth="yes"/>
			<point x="437" y="-461"/>
			<point x="489" y="-530"/>
			<point x="583" y="-530" type="curve" smooth="yes"/>
			<point x="676" y="-530"/>
			<point x="738" y="-497"/>
			<point x="857" y="-388" type="curve"/>
			<point x="826" y="-338" type="line"/>
			<point x="770" y="-374"/>
			<point x="737" y="-388"/>
			<point x="696" y="-388" type="curve" smooth="yes"/>
			<point x="642" y="-388"/>
			<point x="617" y="-354"/>
		</contour>
	</outline>
</glyph>
<glyph name="uogonek" format="2">
	<unicode hex="0173"/>
	<advance width="1200"/>
	<outline>
		<contour>
			<point x="1188" y="288" type="curve"/>
			<point x="1142" y="328" type="line"/>
			<point x="1034" y="212"/>
			<point x="953" y="169"/>
			<point x="862" y="162" type="curve"/>
			<point x="913" y="73" type="line"/>
			<point x="1155" y="872" type="line"/>
			<point x="827" y="872" type="line"/>
			<point x="714" y="506" type="line" smooth="yes"/>
			<point x="650" y="297"/>
			<point x="567" y="198"/>
			<point x="500" y="198" type="curve" smooth="yes"/>
			<point x="469" y="198"/>
			<point x="449" y="217"/>
			<point x="449" y="243" type="curve" smooth="yes"/>
			<point x="449" y="264"/>
			<point x="459" y="290"/>
			<point x="480" y="351" type="curve" smooth="yes"/>
			<point x="623" y="759" type="line" smooth="yes"/>
			<point x="658" y="858"/>
			<point x="619" y="902"/>
			<point x="491" y="902" type="curve" smooth="yes"/>
			<point x="331" y="902"/>
			<point x="166" y="812"/>
			<point x="21" y="597" type="curve"/>
			<point x="67" y="557" type="line"/>
			<point x="176" y="674"/>
			<point x="252" y="718"/>
			<point x="370" y="715" type="curve"/>
			<point x="307" y="799" type="line"/>
			<point x="146" y="339" type="line" smooth="yes"/>
			<point x="118" y="259"/>
			<point x="103" y="192"/>
			<point x="103" y="141" type="curve" smooth="yes"/>
			<point x="103" y="41"/>
			<point x="160" y="-30"/>
			<point x="303" y="-30" type="curve" smooth="yes"/>
			<point x="506" y="-30"/>
			<point x="648" y="146"/>
			<point x="793" y="494" type="curve"/>
			<point x="761" y="522" type="line"/>
			<point x="641" y="93" type="line" smooth="yes"/>
			<point x="616" y="2"/>
			<point x="651" y="-30"/>
			<point x="756" y="-30" type="curve" smooth="yes"/>
			<point x="795" y="-30"/>
			<point x="839" y="-19"/>
			<point x="884" y="1" type="curve"/>
			<point x="871" y="16" type="line"/>
			<point x="805" y="-54" type="line" smooth="yes"/>
			<point x="628" y="-241"/>
			<point x="611" y="-317"/>
			<point x="611" y="-380" type="curve" smooth="yes"/>
			<point x="611" y="-461"/>
			<point x="663" y="-530"/>
			<point x="757" y="-530" type="curve" smooth="yes"/>
			<point x="850" y="-530"/>
			<point x="912" y="-497"/>
			<point x="1031" y="-388" type="curve"/>
			<point x="1000" y="-338" type="line"/>
			<point x="944" y="-374"/>
			<point x="911" y="-388"/>
			<point x="870" y="-388" type="curve" smooth="yes"/>
			<point x="816" y="-388"/>
			<point x="791" y="-354"/>
			<point x="791" y="-307" type="curve" smooth="yes"/>
			<point x="791" y="-245"/>
			<point x="811" y="-164"/>
			<point x="948" y="-5" type="curve" smooth="yes"/>
			<point x="1069" y="135" type="line" smooth="yes"/>
			<point x="1108" y="181"/>
			<point x="1150" y="229"/>
		</contour>
	</outline>
</glyph>
<glyph name="uni018F" format="2">
	<unicode hex="018F"/>
	<advance width="1404"/>
	<outline>
		<contour>
			<point x="149" y="603" type="line"/>
			<point x="133" y="530"/>
			<point x="125" y="462"/>
			<point x="125" y="400" type="curve" smooth="yes"/>
			<point x="125" y="125"/>
			<point x="286" y="-30"/>
			<point x="627" y="-30" type="curve" smooth="yes"/>
			<point x="1110" y="-30"/>
			<point x="1417" y="382"/>
			<point x="1417" y="833" type="curve" smooth="yes"/>
			<point x="1417" y="1164"/>
			<point x="1211" y="1370"/>
			<point x="859" y="1370" type="curve" smooth="yes"/>
			<point x="640" y="1370"/>
			<point x="425" y="1258"/>
			<point x="199" y="1060" type="curve"/>
			<point x="263" y="969" type="line"/>
			<point x="422" y="1092"/>
			<point x="546" y="1132"/>
			<point x="725" y="1132" type="curve" smooth="yes"/>
			<point x="947" y="1132"/>
			<point x="1101" y="998"/>
			<point x="1101" y="747" type="curve" smooth="yes"/>
			<point x="1101" y="383"/>
			<point x="913" y="107"/>
			<point x="646" y="107" type="curve" smooth="yes"/>
			<point x="491" y="107"/>
			<point x="413" y="185"/>
			<point x="413" y="353" type="curve" smooth="yes"/>
			<point x="413" y="410"/>
			<point x="421" y="476"/>
			<point x="439" y="553" type="curve"/>
			<point x="319" y="475" type="line"/>
			<point x="1118" y="475" type="line"/>
			<point x="1161" y="603" type="line"/>
		</contour>
	</outline>
</glyph>
